SplineFontDB: 3.0
FontName: Maritime_Tropical_Neue
FullName: Maritime Tropical Neue
FamilyName: Maritime Tropical Neue
Weight: Bold
Copyright: 
UComments: "2012-6-14: Created." 
Version: 001.000
ItalicAngle: 0
UnderlinePosition: -205
UnderlineWidth: 102
Ascent: 1500
Descent: 548
LayerCount: 2
Layer: 0 0 "Back"  1
Layer: 1 0 "Fore"  0
XUID: [1021 548 483398849 16748575]
FSType: 0
OS2Version: 0
OS2_WeightWidthSlopeOnly: 0
OS2_UseTypoMetrics: 1
CreationTime: 1339705680
ModificationTime: 1363125214
PfmFamily: 65
TTFWeight: 700
TTFWidth: 5
LineGap: 184
VLineGap: 0
OS2TypoAscent: 0
OS2TypoAOffset: 1
OS2TypoDescent: 0
OS2TypoDOffset: 1
OS2TypoLinegap: 184
OS2WinAscent: 0
OS2WinAOffset: 1
OS2WinDescent: 0
OS2WinDOffset: 1
HheadAscent: 0
HheadAOffset: 1
HheadDescent: 0
HheadDOffset: 1
OS2Vendor: 'PfEd'
MacStyle: 1
Lookup: 4 0 1 "'liga' Standard Ligatures lookup 0"  {"'liga' Standard Ligatures lookup 0-1"  } ['liga' ('DFLT' <'dflt' > 'grek' <'dflt' > 'latn' <'dflt' > ) ]
Lookup: 258 0 0 "'kern' Horizontal Kerning lookup 2"  {"'kern' Horizontal Kerning lookup 2-1" [600,50,2] } ['kern' ('DFLT' <'dflt' > 'grek' <'dflt' > 'latn' <'dflt' > ) ]
MarkAttachClasses: 1
DEI: 91125
LangName: 1033 
Encoding: UnicodeBmp
UnicodeInterp: none
NameList: Adobe Glyph List
DisplaySize: -96
AntiAlias: 1
FitToEm: 1
WinInfo: 8683 19 9
BeginPrivate: 0
EndPrivate
Grid
-2048 -870 m 0
 4096 -870 l 0
  Named: "g" 
-2048 864.843 m 0
 4096 864.843 l 0
-2048 732.843 m 0
 4096 732.843 l 0
-2048 595.229 m 0
 4096 595.229 l 0
-2048 481.229 m 0
 4096 481.229 l 0
-2048 1440 m 0
 4096 1440 l 0
-2036.7 972 m 0
 4107.3 972 l 0
EndSplineSet
TeXData: 1 0 0 359936 179968 119978 479846 -1048576 119978 783286 444596 497025 792723 393216 433062 380633 303038 157286 324010 404750 52429 2506097 1059062 262144
BeginChars: 65539 460

StartChar: b
Encoding: 98 98 0
Width: 1060
VWidth: 0
Flags: HMW
VStem: 110 130<0 1440>
LayerCount: 2
Fore
SplineSet
264.851 177.116 m 1
 364.935 128.655 677.683 61.0162 806.999 212.247 c 0
 914.544 338.017 883.129 675.167 762.312 772.535 c 0
 648.643 864.142 513.208 847.833 383.538 720.184 c 0
 272.326 610.705 263.195 306.909 264.851 177.116 c 1
79.386 1400.31 m 0
 76.1314 1511.08 247.5 1496.44 250.367 1395.69 c 0
 257.201 1155.37 259.549 1040.64 263.809 847.075 c 1
 404.846 1002.75 661.868 1078.38 861.727 925.551 c 0
 1083.69 755.826 1109.93 316.732 945.837 102.785 c 0
 751.006 -151.239 375.368 -51.5884 252.053 2.20242 c 1
 236.29 -33.1639 200.801 -46.8076 169.901 -46.3809 c 0
 132.017 -45.8577 85.2592 -21.4417 86.0811 30.3963 c 0
 93.8179 518.341 96.0013 834.627 79.386 1400.31 c 0
EndSplineSet
EndChar

StartChar: c
Encoding: 99 99 1
Width: 875
VWidth: 0
Flags: HW
LayerCount: 2
Fore
SplineSet
687.471 803.563 m 0
 650.13 825.966 518.681 855.367 425.603 827.08 c 0
 235.436 769.288 119.017 515.473 203.961 334.628 c 0
 283.612 165.053 474.942 80.2973 761.211 178.644 c 0
 879.353 219.229 921.207 56.2872 807.798 15.4767 c 0
 523.434 -86.8528 131.311 -52.0396 22.8765 314.207 c 0
 -53.6878 572.81 61.8784 903.195 371.547 994.659 c 0
 529.916 1040.56 733.715 994.183 790.037 953.218 c 0
 886.966 882.72 783.76 745.792 687.471 803.563 c 0
EndSplineSet
EndChar

StartChar: d
Encoding: 100 100 2
Width: 977
VWidth: 0
Flags: HW
VStem: 738.4 136<75.4526 1421.63>
LayerCount: 2
Fore
SplineSet
713.406 1377.44 m 0
 711.836 1447.32 754.694 1485.18 803.828 1480.57 c 0
 852.307 1476.02 905.285 1432.48 899.279 1371.55 c 0
 885.776 1234.63 897.173 208.379 906.94 67.7323 c 0
 911.953 -4.46044 859.013 -53.8457 804.438 -52.402 c 0
 753.701 -51.0598 714.974 -5.54505 717.009 68.6847 c 0
 720.972 213.226 717.382 1200.46 713.406 1377.44 c 0
694.471 803.563 m 0
 651.776 829.178 544.609 844.48 450.886 814.643 c 0
 212.262 738.679 93.9809 456.196 226.941 257.767 c 0
 327.813 107.227 543.742 69.5483 765.025 218.729 c 0
 795.683 239.397 833.105 247.406 855.363 219.316 c 0
 886.034 180.607 858.395 117.546 809.382 79.2921 c 0
 552.93 -120.862 104.086 -83.1641 8.97968 316.484 c 0
 -54.5849 583.59 106.703 914.489 424.311 989.944 c 0
 580.639 1027.08 740.948 994.013 797.037 953.218 c 0
 893.966 882.72 790.76 745.792 694.471 803.563 c 0
EndSplineSet
EndChar

StartChar: e
Encoding: 101 101 3
Width: 947
VWidth: 0
Flags: HW
HStem: 0 122<393 669> 484.229 120<10.8401 494.735> 864.843 107.157<424 664>
LayerCount: 2
Fore
SplineSet
244.615 451.865 m 1
 252.096 339.617 301.637 234.841 390.631 176.957 c 0
 522.227 91.3637 710.021 158.76 803.387 242.601 c 0
 888.632 319.151 993.987 209.965 919.147 121.819 c 0
 822.056 7.46491 543.748 -100.595 338.059 -0.478744 c 0
 166.263 83.1402 72.6231 269.112 65.9113 458.462 c 1
 59.9325 458.723 53.8763 458.989 47.895 459.253 c 0
 -78.8038 464.858 -59.9516 639.669 67.0642 629.144 c 0
 72.5173 628.692 78.2741 628.222 83.8558 627.773 c 1
 100.533 693.325 128.662 756.576 168.767 812.559 c 0
 266.695 949.257 404.928 1008.42 534.631 1012.66 c 0
 729.919 1019.04 913.723 905.838 909.117 724.473 c 0
 902.603 467.997 633.329 441.446 244.615 451.865 c 1
264.498 616.329 m 1
 345.276 612.909 419.789 612.558 484.636 616.559 c 0
 661.038 627.443 741.321 668.921 737.138 736.455 c 0
 736.063 753.807 729.71 769.647 718.405 784.304 c 0
 664.606 854.048 499.668 882.506 383.324 792.247 c 0
 326.712 748.328 286.804 686.024 264.498 616.329 c 1
EndSplineSet
EndChar

StartChar: f
Encoding: 102 102 4
Width: 818
VWidth: 0
Flags: HW
HStem: 477 140<9.31875 547.833> 497 122<320.033 682.446>
VStem: 169 127<620.722 1210.94> 226 127<7.05368 476.862>
LayerCount: 2
Fore
SplineSet
637.281 472.002 m 0
 549.399 471.015 213.975 456.015 67.6844 452.009 c 0
 -9.72867 449.889 -56.8745 493.494 -53.234 547.597 c 0
 -49.7472 599.418 -1.29887 646.668 66.7319 641.94 c 0
 208.187 632.117 532.46 636.109 633.064 643.925 c 0
 692.935 648.576 740.043 600.829 740.847 551.462 c 0
 741.59 505.891 701.674 472.725 637.281 472.002 c 0
144.031 928.765 m 0
 135.102 1109.26 131.689 1349.23 328.943 1435.89 c 0
 539.427 1528.36 769.003 1432.84 892.567 1353 c 0
 1011.32 1276.27 907.121 1115.59 798.663 1191.52 c 0
 711.048 1252.85 533.141 1322.73 432.99 1279.08 c 0
 336.403 1236.99 316.502 1053.96 320.98 940.991 c 0
 333.684 620.552 352.646 394.149 377.932 52.8468 c 0
 386.592 -64.0565 208.893 -82.074 201.049 43.4405 c 0
 178.599 402.633 159.787 610.245 144.031 928.765 c 0
EndSplineSet
EndChar

StartChar: g
Encoding: 103 103 5
Width: 900
VWidth: 0
Flags: HW
LayerCount: 2
Fore
SplineSet
622.979 798.008 m 0
 622.607 802.854 622.724 810.228 622.914 812.982 c 1
 591.211 826.137 524.286 840.282 456.304 831.219 c 0
 432.329 828.023 408.124 820.75 384.409 809.764 c 0
 225.515 736.153 97.3868 499.711 206.673 264.535 c 0
 274.434 118.712 515.561 57.3005 664.254 243.669 c 1
 653.154 405.095 636.609 620.874 622.979 798.008 c 0
676.102 48.5884 m 1
 631.983 10.8097 585.621 -13.9205 536.667 -28.9204 c 0
 324.975 -93.7842 88.6694 36.7193 27.0867 238.709 c 0
 -80.4443 591.407 111.896 920.949 406.186 991.315 c 0
 621.755 1042.86 780.727 961.072 825.078 851.369 c 0
 840.879 812.278 819.443 775.768 792.343 756.674 c 1
 851.283 213.982 855.933 -159.54 820.744 -472.79 c 0
 797.574 -679.041 701.914 -803.247 580.376 -860.368 c 0
 368.792 -959.811 87.1722 -856.37 0.871769 -672.628 c 0
 -18.9492 -630.428 -4.18309 -589.957 25.3307 -570.5 c 0
 56.1227 -550.2 102.989 -553.121 128.774 -592.242 c 0
 235.139 -753.626 539.822 -825.34 630.199 -556.046 c 0
 677.568 -414.903 686.068 -202.026 676.102 48.5884 c 1
EndSplineSet
EndChar

StartChar: h
Encoding: 104 104 6
Width: 1024
VWidth: 0
Flags: HW
VStem: 99.9551 124.592<763.888 1424.64> 113.982 127.543<-11.8623 572.444> 802.863 126.603<20.4965 502.932>
LayerCount: 2
Fore
SplineSet
777.88 43.5279 m 0
 791.558 415.531 780.13 593.546 750.818 709.945 c 0
 713.255 859.109 517.876 871.418 395.193 724.835 c 0
 262.508 566.303 270.245 321.157 266.52 129.609 c 0
 265.699 87.4384 290.864 -40.0439 179.451 -40.6266 c 0
 105.741 -41.0121 89.1649 35.7616 88.9822 83.761 c 0
 87.025 596.819 82.1934 819.604 74.957 1401.78 c 0
 73.5895 1511.73 243.35 1501.81 242.087 1399.65 c 0
 239.161 1163.55 245.425 1039.45 248.602 836.94 c 1
 380.265 990.529 571.72 1057.41 754.537 982.107 c 0
 997.128 882.166 961.375 440.05 954.452 55.6371 c 0
 952.725 -8.65815 901.447 -42.1919 855.608 -40.8306 c 0
 815.552 -39.641 775.926 -9.60849 777.88 43.5279 c 0
EndSplineSet
EndChar

StartChar: i
Encoding: 105 105 7
Width: 412
VWidth: 0
Flags: HMW
VStem: 150 130<0 972>
LayerCount: 2
Fore
SplineSet
206.635 1211.3 m 0
 123.824 1217.3 56.314 1341.61 119.578 1406.6 c 0
 153.905 1441.87 222.979 1459.46 264.787 1418.14 c 0
 311.005 1372.45 332.743 1249.57 243.61 1216.58 c 0
 231.39 1212.06 218.766 1210.42 206.635 1211.3 c 0
115.201 926.501 m 0
 111.984 996.814 154.28 1035.43 203.546 1031.77 c 0
 251.991 1028.18 305.736 985.952 301.157 925.028 c 0
 290.753 786.612 304.003 218.093 317.069 77.3522 c 0
 323.696 5.96094 272.601 -44.8743 218.068 -45.1319 c 0
 167.068 -45.3727 126.858 -0.748434 127.167 73.8886 c 0
 127.769 219.323 123.281 749.901 115.201 926.501 c 0
EndSplineSet
EndChar

StartChar: a
Encoding: 97 97 8
Width: 905
VWidth: 0
Flags: HW
VStem: 709.322 119.846<286.619 483.386 595.013 838.333> 719.458 135.71<3.70734 103.717>
LayerCount: 2
Fore
SplineSet
822.194 -33.8161 m 0
 749.776 -42.6475 715.936 11.7338 702.308 62.384 c 1
 616.889 9.48027 522.615 -21.2785 430.955 -32.2975 c 0
 228.471 -56.6395 25.1375 17.4899 3.94383 195.037 c 0
 -27.3524 457.22 211.129 575.304 406.47 619.61 c 0
 495.266 639.75 617.435 636.919 683.231 626.343 c 1
 683.961 713.004 695.23 774.003 658.137 813.535 c 0
 590.704 885.401 373.885 854.908 200.343 690.834 c 0
 165.257 657.662 120.885 660.832 94.943 689.394 c 0
 61.2675 726.469 60.9518 795.72 114.498 843.631 c 0
 286.872 997.864 569.307 1063.88 742.349 977.361 c 0
 833.146 931.962 858.641 825.842 854.134 739.695 c 0
 838.116 433.52 840.16 366.871 879.886 104.745 c 0
 888.721 46.4476 893.354 -25.1383 822.194 -33.8161 c 0
679.416 453.41 m 1
 640.123 467.83 551.533 477.861 476.198 465.556 c 0
 329.22 441.545 146.329 357.054 177.492 225.774 c 0
 180.692 212.293 186.385 200.946 194.395 190.95 c 0
 264.232 103.788 530.487 128.876 683.727 252.054 c 1
 678.809 350.452 678.286 369.632 679.416 453.41 c 1
EndSplineSet
EndChar

StartChar: j
Encoding: 106 106 9
Width: 545
VWidth: 0
Flags: HW
VStem: 254.9 132.1<480.334 967.598>
LayerCount: 2
Fore
SplineSet
288.532 1211.3 m 0
 205.597 1217.31 138.116 1341.51 201.475 1406.6 c 0
 235.802 1441.87 304.876 1459.46 346.684 1418.14 c 0
 392.902 1372.45 414.64 1249.57 325.507 1216.58 c 0
 313.287 1212.06 300.663 1210.42 288.532 1211.3 c 0
230.077 933.028 m 0
 216.19 1049 400.511 1043.12 411.845 941.779 c 0
 473.497 390.531 486.717 -174.973 444.655 -473.488 c 0
 415.325 -681.647 317.636 -806.353 195.809 -863.67 c 0
 -17.7802 -964.16 -296.335 -857.353 -382.628 -673.628 c 0
 -402.545 -631.224 -396.356 -586.762 -365.515 -566.301 c 0
 -337.206 -547.518 -301.506 -560.322 -281.126 -591.242 c 0
 -173.95 -753.851 154.113 -820.974 237.006 -551.646 c 0
 317.363 -290.56 295.954 382.881 230.077 933.028 c 0
EndSplineSet
EndChar

StartChar: k
Encoding: 107 107 10
Width: 935
VWidth: 0
Flags: HW
HStem: 871 114<647.994 795.108>
VStem: 98.5537 127<907.397 1415.5> 127.554 133.599<23.4931 352.485>
LayerCount: 2
Fore
SplineSet
73.6323 1363.02 m 0
 68.435 1428.41 99.5519 1470.99 145.837 1473.8 c 0
 194.922 1476.77 247.23 1435.71 250.516 1376.38 c 0
 257.14 1256.75 262.09 997.466 265.043 787.186 c 1
 409.045 905.141 600.53 977.468 709.608 1009.02 c 0
 773.874 1027.6 833.491 989.058 847.063 940.138 c 0
 858.009 900.68 834.268 860.994 783.205 846.901 c 0
 608.992 798.82 439.399 711.973 309.413 562.588 c 0
 308.452 561.484 306.88 558.149 306.624 556.979 c 0
 445.398 350.974 715.716 115.888 899.137 172.874 c 0
 974.56 196.307 983.782 105.938 967.43 61.5196 c 0
 943.909 -2.3741 867.88 -56.9776 745.813 -11.422 c 0
 579.946 50.4795 432.127 106.642 280.105 296.396 c 1
 282.54 186.488 289.229 140.886 286.129 70.7995 c 0
 283.104 2.42111 234.647 -47.6433 181.405 -45.3293 c 0
 131.367 -43.1547 99.1019 5.10335 102.583 77.2055 c 0
 123.49 510.293 97.5591 1061.96 73.6323 1363.02 c 0
EndSplineSet
EndChar

StartChar: l
Encoding: 108 108 11
Width: 406
VWidth: 0
Flags: HMW
VStem: 135 130<0 1440>
LayerCount: 2
Fore
SplineSet
95.1604 1383.17 m 0
 92.2646 1453.19 134.501 1491.66 183.62 1487.99 c 0
 232.175 1484.36 285.967 1441.83 281.11 1380.79 c 0
 270.19 1243.55 298.128 217.642 310.537 77.2961 c 0
 316.889 5.4724 265.047 -45.1657 210.319 -44.7509 c 0
 159.565 -44.3661 119.989 0.410413 120.622 74.6652 c 0
 121.855 219.353 102.471 1206.39 95.1604 1383.17 c 0
EndSplineSet
EndChar

StartChar: m
Encoding: 109 109 12
Width: 1720
VWidth: 0
Flags: HW
VStem: 108.163 132.8<753.785 937.228> 121.093 129.001<-9.95657 591.927> 814.163 154<26.6479 548.213> 1491.29 128<19.6786 516.091>
LayerCount: 2
Fore
SplineSet
789.163 54 m 0
 789.163 427.695 793.815 552.548 757.771 704.22 c 0
 718.749 868.426 510.687 885.787 387.564 730.267 c 0
 255.687 563.69 285.253 322.725 275.06 128.687 c 0
 272.801 85.7245 290.152 -40.4862 180.561 -38.6017 c 0
 105.861 -37.3172 94.7334 41.8673 96.1037 88.7307 c 0
 111.091 601.273 93.3644 635.288 83.1786 923.903 c 0
 79.3069 1033.61 245.927 1024.38 256.034 925.323 c 0
 258.688 899.307 260.841 867.687 262.418 838.12 c 1
 379.097 994.924 587.864 1056.43 764.375 976.788 c 0
 832.124 946.221 878.299 888.6 908.213 818.761 c 1
 1043.01 976.661 1251.58 1060.57 1434.57 978.003 c 0
 1672.93 870.458 1648.88 405.916 1644.29 60.8814 c 0
 1643.45 -2.32071 1592.59 -35.4674 1546.99 -34.0841 c 0
 1506.12 -32.8444 1464.45 -2.50456 1466.3 52.0621 c 0
 1479.04 427.068 1473.14 552.135 1428.31 704.145 c 0
 1416.4 744.549 1397.42 774.033 1374.42 794.732 c 0
 1297.06 864.367 1156.81 842.127 1056.79 730.331 c 0
 1011.9 680.152 982.778 618.414 964.22 552.796 c 1
 976.586 408.099 993.163 238.082 993.163 70 c 0
 993.163 2.21439 932.178 -31.4898 882.253 -31.7106 c 0
 838.547 -31.9039 789.163 -4.97918 789.163 54 c 0
EndSplineSet
EndChar

StartChar: n
Encoding: 110 110 13
Width: 1030
VWidth: 0
Flags: HW
VStem: 112.866 127.681<-8.73322 541.091 739.888 963.758> 806.863 129.603<16.4965 501.213>
LayerCount: 2
Fore
SplineSet
781.88 39.5279 m 0
 795.555 411.459 783.141 593.502 753.818 709.945 c 0
 716.342 858.764 525.202 871.807 402.193 724.835 c 0
 269.639 566.459 277.245 313.168 273.52 121.609 c 0
 272.728 80.9456 283.63 -7.42469 206.547 -31.8336 c 0
 195.551 -35.3159 184.958 -37.1955 174.683 -37.2162 c 0
 109.442 -37.3481 95.9796 30.2537 95.982 75.8582 c 0
 95.9993 327.916 95.983 725.999 87.883 945.208 c 0
 83.7657 1056.64 265.739 1046.44 263.996 943.576 c 0
 263.399 908.327 263.893 869.873 264.497 827.756 c 1
 388.782 1000.44 582.163 1055.99 761.537 982.107 c 0
 1004.19 882.14 968.374 436.023 961.452 51.6393 c 0
 959.705 -13.1049 907.13 -46.1381 861.004 -44.8331 c 0
 820.726 -43.6934 779.907 -14.131 781.88 39.5279 c 0
EndSplineSet
EndChar

StartChar: o
Encoding: 111 111 14
Width: 1012
VWidth: 0
Flags: HW
HStem: -18 123.011<360.353 689.194>
LayerCount: 2
Fore
SplineSet
464.332 1012.9 m 0
 493.856 1015.58 520.199 1006.47 538.34 992.635 c 1
 824.668 960.915 1002.57 781.769 1011.89 493.02 c 0
 1021.24 203.775 848.931 -33.5179 555.401 -42.987 c 0
 271.586 -52.1427 24.6871 132.098 1.66077 448.184 c 0
 -20.8498 757.193 188.999 987.872 464.332 1012.9 c 0
432.43 830.997 m 1
 277.639 781.589 177.969 643.027 179.594 474.24 c 0
 181.497 276.297 363.32 102.789 576.075 132.62 c 0
 742.99 156.024 866.445 323.795 842.142 495.508 c 0
 813.398 698.598 723.239 823.913 432.43 830.997 c 1
EndSplineSet
EndChar

StartChar: p
Encoding: 112 112 15
Width: 1063
VWidth: 0
Flags: HW
VStem: 107.059 140<-836.681 -317.08>
LayerCount: 2
Fore
SplineSet
69.4653 929.438 m 0
 67.9076 998.752 109.991 1036.64 158.744 1032.66 c 0
 207.636 1028.68 261.389 984.917 255.338 923.547 c 0
 241.892 787.158 262.247 -638.831 271.999 -779.268 c 0
 276.985 -851.079 224.553 -900.427 170.178 -899.417 c 0
 119.186 -898.471 80.0246 -852.927 82.0684 -778.315 c 0
 86.0197 -634.105 73.4441 752.397 69.4653 929.438 c 0
331.575 -10.6052 m 0
 213.467 10.6369 103.178 83.6223 52.7107 131.942 c 0
 5.0247 177.599 -4.73932 235.474 21.7224 270.495 c 0
 41.0982 296.137 77.0924 299.439 105.229 277.826 c 0
 172.462 226.183 267.881 169.218 358.512 152.589 c 0
 592.775 109.604 754.859 135.913 835.164 325.583 c 0
 921.605 529.743 820.037 764.173 673.299 825.959 c 0
 538.52 882.709 381.358 844.837 233.574 809.727 c 0
 184.888 798.161 152.296 834.11 143.439 870.151 c 0
 132.459 914.831 150.354 977.906 213.355 993.049 c 0
 394.509 1036.59 593 1039.47 720.109 993.527 c 0
 1023.59 883.839 1110.26 545.814 1013 277.843 c 0
 895.913 -44.7449 611.422 -60.9366 331.575 -10.6052 c 0
EndSplineSet
EndChar

StartChar: q
Encoding: 113 113 17
Width: 981
VWidth: 0
Flags: HW
LayerCount: 2
Fore
SplineSet
911.994 879.43 m 0
 897.796 255.973 916.242 -390.144 950.994 -671.275 c 1
 1035.59 -612.177 1136.86 -571.015 1228.38 -545.892 c 0
 1262.81 -536.44 1296.31 -547.429 1307.97 -575.545 c 0
 1318.79 -601.644 1303.97 -630.334 1276.14 -641.269 c 0
 1171.84 -682.243 1022.66 -816.637 937.784 -893.528 c 0
 865.583 -958.933 786.367 -877.534 777.125 -785.498 c 0
 729.922 -315.431 728.978 315.133 746.01 913.711 c 0
 747.393 962.314 784.942 991.582 824.021 990.758 c 0
 870.961 989.77 913.557 948.076 911.994 879.43 c 0
767.729 735.925 m 0
 689.005 811.153 639.765 854.026 526.612 842.137 c 0
 494.775 838.792 462.336 828.93 430.501 813.456 c 0
 243.312 722.475 95.0188 447.576 192.466 247.968 c 0
 207.731 216.699 231.007 190.572 260.437 170.555 c 0
 382.15 87.7724 613.057 111.214 771.702 345.4 c 0
 798.991 385.683 843.754 380.327 871.335 359.407 c 0
 905.052 333.832 935.477 274.652 900.333 228.793 c 0
 786.232 79.9044 653.977 0.164665 526.049 -28.5965 c 0
 277.717 -84.4268 44.6056 51.5177 3.69435 234.156 c 0
 -70.1904 563.995 121.736 913.55 459.775 1001.81 c 0
 640.838 1049.08 829.873 952.96 874.178 843.37 c 0
 887.936 809.333 875.889 763.058 851.25 736.701 c 0
 831.2 715.253 796.48 708.451 767.729 735.925 c 0
EndSplineSet
EndChar

StartChar: r
Encoding: 114 114 18
Width: 800
VWidth: 0
Flags: HW
HStem: 863 123.787<500.959 790.997>
VStem: 112.485 134.515<-0.337273 559.12>
LayerCount: 2
Fore
SplineSet
761.613 838.038 m 0
 642.855 843.924 457.26 829.427 352.828 646.46 c 0
 256.342 477.424 269.717 328.435 271.998 137.298 c 0
 272.52 93.4378 296.036 -28.2636 187.312 -31.9955 c 0
 113.182 -34.5399 88.8793 41.6909 87.4945 91.9799 c 0
 79.2639 390.868 84.0061 573.526 45.7425 909.556 c 0
 33.5645 1016.51 190.699 1052.66 214.736 941.487 c 0
 222.977 903.364 231.929 836.937 238.545 770.99 c 1
 355.989 968.199 551.343 1007.64 737.217 1011.78 c 0
 810.006 1013.4 854.351 961.389 851.86 910.492 c 0
 849.839 869.22 815.082 835.385 761.613 838.038 c 0
EndSplineSet
EndChar

StartChar: s
Encoding: 115 115 19
Width: 830
VWidth: 0
Flags: HW
HStem: 834 128<215.729 712.563>
LayerCount: 2
Fore
SplineSet
646.934 811.021 m 0
 609.021 827.27 561.721 836.216 512.011 838.616 c 0
 346.448 846.608 199.813 780.461 198.767 750.138 c 0
 195.695 661.065 720.97 607.595 806.273 390.129 c 0
 891.67 172.426 772.321 -16.2034 539.105 -35.9112 c 0
 334.196 -53.2278 153.213 9.85447 60.3512 145.906 c 0
 18.4617 207.28 17.8014 270.772 60.0271 300.569 c 0
 101.712 329.985 160.133 308.549 199.481 252.337 c 0
 259.718 166.283 462.511 94.5633 596.414 163.931 c 0
 649.239 191.297 679.06 233.297 639.838 308.43 c 0
 573.701 435.122 83.4429 479.902 9.0969 700 c 0
 -12.0362 762.563 10.4823 856.202 130.244 925.628 c 0
 276.347 1010.32 543.732 1033.38 692.401 985.811 c 0
 757.729 964.908 780.003 901.852 759.847 854.263 c 0
 743.378 815.38 698.263 789.023 646.934 811.021 c 0
EndSplineSet
EndChar

StartChar: t
Encoding: 116 116 20
Width: 865
VWidth: 0
Flags: HW
HStem: 822 140<15.3188 344.354> 860 122<493.24 847.446>
VStem: 344.91 136.051<979.551 1404.26> 370.393 140.012<17.7803 534.241>
LayerCount: 2
Fore
SplineSet
802.281 835.002 m 0
 715.283 834.024 220.569 801.036 73.6844 797.009 c 0
 -3.72838 794.887 -50.8743 838.496 -47.234 892.597 c 0
 -43.747 944.421 4.70068 991.664 72.7319 986.94 c 0
 212.728 977.218 696.853 999.062 798.064 1006.92 c 0
 857.935 1011.58 905.043 963.828 905.847 914.461 c 0
 906.59 868.891 866.674 835.725 802.281 835.002 c 0
319.931 1360.17 m 0
 317.036 1430.19 359.272 1468.66 408.391 1464.99 c 0
 456.945 1461.36 510.739 1418.83 505.882 1357.79 c 0
 494.935 1220.2 522.922 220.362 535.351 78.7978 c 0
 541.198 7.55519 490.287 -42.7348 435.772 -42.7533 c 0
 384.509 -42.7707 345.109 2.51563 345.389 76.0856 c 0
 346.609 224.063 327.263 1182.89 319.931 1360.17 c 0
EndSplineSet
EndChar

StartChar: u
Encoding: 117 117 21
Width: 1024
VWidth: 0
Flags: HW
VStem: 90 136<441.594 963.142> 114 124<188.791 750.479> 785 132<505.226 971.077>
LayerCount: 2
Fore
SplineSet
65.049 915.436 m 0
 60.6475 985.858 102.569 1025.25 151.993 1022.36 c 0
 200.376 1019.53 254.663 978.315 250.957 917.535 c 0
 247.133 849.644 253.059 504.859 262.952 349.551 c 0
 263.762 336.367 264.944 323.972 266.486 312.233 c 0
 284.833 172.572 347.659 132.843 444.729 145.785 c 0
 649.031 172.432 757.979 493.118 760 923.156 c 0
 760.538 992.022 800.005 1030.58 847.739 1027.97 c 0
 896.138 1025.32 945.578 981.928 941.957 922.539 c 0
 934.173 784.43 956.186 225.721 971.847 85.7608 c 0
 979.715 14.9311 931.166 -37.9422 876.638 -38.7968 c 0
 826.221 -39.587 787.033 4.9163 786.003 78.6418 c 0
 785.34 120.401 784.634 177.686 783.101 252.637 c 1
 689.442 36.2878 577.204 -22.1077 440.162 -33.9063 c 0
 171.036 -57.495 102.434 123.566 89.0791 291.012 c 0
 76.769 445.354 70.9582 821.878 65.049 915.436 c 0
EndSplineSet
EndChar

StartChar: v
Encoding: 118 118 22
Width: 870
VWidth: 0
Flags: HW
LayerCount: 2
Fore
SplineSet
-27.9751 896.729 m 0
 -72.225 1007.54 96.2952 1080.71 140.643 962.801 c 0
 261.702 640.934 356.161 484.749 478.912 240.723 c 1
 588.711 513.78 633.1 667.142 731.555 958.992 c 0
 750.301 1014.55 800.656 1027.11 839.573 1014.05 c 0
 878.388 1001.03 921.17 959.115 903.883 908.868 c 0
 788.791 574.323 729.428 382.219 582.318 29.3797 c 0
 569.5 -1.36326 549.592 -23.4451 525.528 -35.134 c 0
 470.695 -61.7685 408.419 -30.9165 381.748 24.0932 c 0
 218.524 360.738 116.329 535.352 -27.9751 896.729 c 0
EndSplineSet
EndChar

StartChar: w
Encoding: 119 119 23
Width: 1324
VWidth: 0
Flags: HW
VStem: -12 121<774.129 968.389>
LayerCount: 2
Fore
SplineSet
-36.3348 895.271 m 0
 -65.1835 1017.53 98.9458 1072.68 133.164 943.412 c 0
 210.002 653.868 229.725 511.093 345.013 242.95 c 1
 413.519 471.937 447.22 694.399 540.23 833.915 c 0
 586.016 902.008 727.164 901.565 758.735 806.852 c 0
 818.26 625.562 867.611 410.133 941.362 253.6 c 1
 1068.83 669.778 1067.89 879.874 1226.17 1009.35 c 0
 1259.89 1036.93 1298.23 1045.67 1327.03 1025.21 c 0
 1367.87 996.193 1363.27 933.376 1328.2 885.271 c 0
 1229.7 750.173 1208.66 528.218 1070.02 49.0582 c 0
 1060.19 14.8519 1038.44 -10.7642 1011.84 -25.5002 c 0
 956.482 -56.1645 879.894 -40.7052 845.114 22.9161 c 0
 761.761 172.379 709.695 387.814 631.128 617.296 c 1
 560.098 464.401 523.927 203.695 471.846 36.4925 c 0
 436.434 -74.806 273.323 -71.6915 223.944 46.3336 c 0
 136.139 255.246 44.9033 549.266 -36.3348 895.271 c 0
EndSplineSet
EndChar

StartChar: x
Encoding: 120 120 24
Width: 830
VWidth: 0
Flags: HW
LayerCount: 2
Fore
SplineSet
14.3271 876.942 m 0
 -20.1698 927.728 -13.4587 987.571 33.6203 1012.26 c 0
 76.7957 1034.9 144.883 1026.9 173.215 972.468 c 0
 234.954 851.84 715.198 240.729 801.052 124.931 c 0
 840.85 71.6612 829.219 -1.16248 780.339 -31.1555 c 0
 736.908 -57.8053 679.287 -40.7051 640.638 23.0122 c 0
 566.685 144.642 115.113 728.782 14.3271 876.942 c 0
641.816 966.528 m 0
 669.909 1020.81 725.645 1043.59 769.826 1013.99 c 0
 810.435 986.779 836.061 922.779 801.693 871.971 c 0
 721.111 753.114 287.909 163.724 199.082 24.5631 c 0
 159.96 -36.8185 84.4277 -51.701 38.4243 -19.3538 c 0
 -1.78662 8.92035 -4.89983 64.8494 35.6672 121.546 c 0
 128.875 251.836 562.616 813.92 641.816 966.528 c 0
EndSplineSet
EndChar

StartChar: y
Encoding: 121 121 25
Width: 867
VWidth: 0
Flags: HW
LayerCount: 2
Fore
SplineSet
680.353 911.395 m 0
 685.928 979.492 731.666 1014.07 780.834 1004.81 c 0
 828.879 995.752 877.984 947.566 866.562 887.342 c 0
 833.733 714.249 675.041 -353.659 641.368 -500.584 c 0
 625.276 -570.799 561.341 -611.305 507.572 -596.718 c 0
 460.226 -583.873 439.286 -531.929 457.881 -464.821 c 0
 501.691 -306.712 664.191 700.012 680.353 911.395 c 0
518.104 -15.138 m 0
 446.057 79.5508 83.4617 647.277 -41.2303 847.799 c 0
 -121.031 976.13 45.3023 1074.58 119.398 951.927 c 0
 236.882 757.447 637.631 125.9 640.923 119.651 c 0
 664.91 74.1159 646.623 20.5754 618.269 -9.52106 c 0
 596.606 -32.5152 546.618 -52.6146 518.104 -15.138 c 0
EndSplineSet
EndChar

StartChar: z
Encoding: 122 122 26
Width: 899
VWidth: 0
Flags: HMW
HStem: 0 120<360.779 851.207> 850 120<61.365 283.887 567.506 695.556>
LayerCount: 2
Fore
SplineSet
98.0649 816.039 m 0
 35.3158 811.307 1.61848 855.111 0.0613812 898.329 c 0
 -1.35436 937.623 23.8965 984.135 75.6634 985.984 c 0
 354.79 995.957 443.466 1007.03 728.436 996.984 c 0
 779.605 995.181 820.26 976.022 846.199 947.12 c 0
 888.86 899.586 888.965 827.461 838.689 782.386 c 0
 682.333 642.205 400.658 311.544 271.101 140.907 c 1
 498.673 157.368 562.892 158.922 817.923 144.963 c 0
 926.45 139.02 920.45 -30.4033 813.29 -24.9679 c 0
 537.017 -10.9542 493.886 -8.96468 183.845 -24.9668 c 0
 142.884 -27.0809 107.519 -15.5376 81.814 4.42541 c 0
 38.5575 38.0191 22.3292 98.2758 58.2874 144.376 c 0
 165.815 282.23 450.834 653.458 633.106 826.661 c 1
 435.576 835.918 424.512 843.512 98.0649 816.039 c 0
EndSplineSet
EndChar

StartChar: A
Encoding: 65 65 27
Width: 1103
VWidth: 0
Flags: HW
HStem: 483 112.229<541.89 1002.15>
LayerCount: 2
Fore
SplineSet
992.803 458.029 m 0
 788.975 467.974 470.454 468.826 259.389 441.211 c 0
 189.172 432.024 138.174 464.933 136.168 517.849 c 0
 134.114 572.023 181.93 628.292 253.203 630.982 c 0
 466.725 639.042 838.293 632.289 1003.97 620.162 c 0
 1059.32 616.114 1104.29 573.31 1102.15 525.814 c 0
 1100.11 480.535 1055.56 455.088 992.803 458.029 c 0
965.805 12.9802 m 0
 909.61 174.188 661.031 912.882 573.706 1185.01 c 1
 460.144 872.757 218.041 186.192 140.059 18.4602 c 0
 87.8029 -93.9364 -74.2203 -19.7247 -26.5399 89.9662 c 0
 77.3953 329.073 371.855 1118.43 454.483 1402.56 c 0
 481.648 1495.96 656.247 1513.48 692.329 1399.1 c 0
 807.812 1033.12 1053.77 323.242 1135.28 70.6773 c 0
 1165.57 -23.1618 1006.06 -102.466 965.805 12.9802 c 0
EndSplineSet
EndChar

StartChar: B
Encoding: 66 66 28
Width: 1104
VWidth: 0
Flags: HW
HStem: 727 144<229 491.37>
VStem: 100 129<13.3174 92 206.735 727 871 1333.98>
LayerCount: 2
Fore
SplineSet
109.021 1454.44 m 1
 131.879 1471.47 160.06 1471.5 182.336 1465.42 c 1
 506.064 1501.2 774.41 1435.11 840 1211 c 0
 881.345 1069.27 820.061 907.346 659.743 833.559 c 1
 831.108 808.755 958.155 733.222 1053.75 564.33 c 0
 1163.76 368.981 1083.6 90.7772 885.131 12.7271 c 0
 671.643 -70.7248 451.282 -42.5168 266.846 49.9287 c 1
 261.482 -10.8655 214.005 -50.5185 164.956 -49.4609 c 0
 114.037 -48.363 74.9237 -2.87717 77.0105 71.7243 c 0
 80.9065 206.121 79.0369 1054.88 75.1928 1318.23 c 1
 35.0479 1355.07 46.2642 1431.88 109.021 1454.44 c 1
258.168 1308.13 m 1
 255.774 1227.62 254.191 1033.81 254.015 895.196 c 1
 477.68 891.715 693.31 984.502 671.214 1154.73 c 0
 658.018 1254.1 498.266 1327.69 258.168 1308.13 c 1
254.121 701.929 m 1
 255.271 489.543 258.921 383.872 262.643 238.391 c 1
 464.002 119.768 635.165 107.275 794.644 163.562 c 0
 893.453 198.78 971.354 355.433 888.505 495.234 c 0
 766.286 701.032 494.838 701.474 254.121 701.929 c 1
EndSplineSet
EndChar

StartChar: C
Encoding: 67 67 29
Width: 1202
VWidth: 0
Flags: HW
LayerCount: 2
Fore
SplineSet
870.913 1278.35 m 0
 810.133 1320.03 719.584 1324.08 606.419 1293.84 c 0
 247.494 1199.38 99.0099 673.73 237.424 393.053 c 0
 246.328 374.989 255.888 358.047 266.046 342.175 c 0
 443.624 64.6932 819.836 100.078 1097.55 278.074 c 0
 1181.91 331.632 1274.3 201.934 1192.17 139.129 c 0
 1124.86 87.7375 1051.42 47.4723 975.218 18.2646 c 0
 605.587 -123.412 165.214 -4.18153 47.0795 375.489 c 0
 -53.0074 697.157 34.4795 1295.54 531.642 1449.89 c 0
 695.399 1500.37 883.612 1489.5 966.018 1427.99 c 0
 1067.09 1351.56 975.238 1206.89 870.913 1278.35 c 0
EndSplineSet
EndChar

StartChar: D
Encoding: 68 68 30
Width: 1260
VWidth: 0
Flags: HW
HStem: 88 98<35.903 104.003>
VStem: 112 140<19.581 535.387>
LayerCount: 2
Fore
SplineSet
185.502 1320.04 m 0
 134.27 1316.7 117.224 1375.72 114.964 1407.77 c 0
 113.11 1434.05 119.15 1482.93 164.396 1485.95 c 0
 561.667 1511.22 852.649 1431.87 1098.4 1128.76 c 0
 1301.17 879.217 1307.78 446.629 1085.69 196.395 c 0
 835.833 -84.8252 426.382 -60.4775 51.0943 64.2829 c 0
 -47.8526 97.2655 1.75421 239.927 96.5462 209.834 c 0
 414.245 109.245 788.73 93.2701 962.19 319.25 c 0
 1128.35 535.063 1103.43 860.025 951.614 1046.21 c 0
 752.576 1290.68 489.571 1336.88 185.502 1320.04 c 0
62.019 1387.02 m 0
 59.2821 1457.09 101.598 1495.53 150.665 1492.02 c 0
 199.261 1488.53 253.124 1445.95 247.918 1384.97 c 0
 237.316 1248.11 264.228 221.61 276.896 81.2795 c 0
 283.532 9.60191 232.013 -41.1884 177.361 -41.1311 c 0
 126.442 -41.0776 86.4792 3.65132 87.0006 78.1712 c 0
 87.9922 222.909 68.9783 1210.05 62.019 1387.02 c 0
EndSplineSet
EndChar

StartChar: E
Encoding: 69 69 31
Width: 1180
VWidth: 0
Flags: HW
HStem: 0 119<248 354.531 829.668 1098.3> 730 123<233.376 718.996> 1332 111<222 1109.52>
VStem: 90 143<906.863 1323>
LayerCount: 2
Fore
SplineSet
65.0373 1380.64 m 0
 63.4035 1410.04 69.0367 1434.69 82.1938 1453.19 c 0
 114.748 1498.96 174.122 1488.85 208.78 1463.95 c 1
 585.646 1461.84 755.511 1451.13 1108.81 1467.97 c 0
 1150.4 1469.95 1165.2 1427.61 1166.82 1400.94 c 0
 1169.1 1363.46 1148.82 1310.33 1090.41 1307.04 c 0
 790.813 1290.15 561.481 1293.81 247.938 1297.68 c 1
 250.286 1213.82 252.365 1005.47 256.777 878.174 c 1
 259.986 878.231 262.355 878.102 264.956 877.937 c 0
 576.437 863.988 697.205 869.929 1007.06 893.925 c 0
 1130.22 903.5 1107.73 726.839 1000.35 721.037 c 0
 685.557 703.988 576.942 708.99 261.157 705 c 0
 259.044 705 256.047 705.142 255.428 705.177 c 1
 258.789 453.733 268.673 257.442 272.305 143.183 c 1
 549.926 133.934 816.968 133.613 1093.06 154.925 c 0
 1215.84 164.475 1193.46 -7.17367 1086.37 -12.9626 c 0
 780.61 -29.95 505.544 -22.0909 203.036 -24.9622 c 1
 135.078 -45.0296 85.9762 10.3345 88.0084 92.65 c 0
 91.9561 236.728 77.9458 1142.31 65.0373 1380.64 c 0
EndSplineSet
EndChar

StartChar: F
Encoding: 70 70 32
Width: 1160
VWidth: 0
Flags: HW
HStem: 734 123<242 405.856 702.909 926.496> 1328 116<229 1178.85>
VStem: 95 146<909.809 1328> 131 131<24.9488 540.34>
LayerCount: 2
Fore
SplineSet
70.0064 1386.43 m 0
 69.3591 1415.56 75.3876 1439.72 88.3212 1457.93 c 0
 120.842 1503.72 179.166 1493.96 213.799 1468.95 c 1
 595.639 1466.81 825.418 1455.13 1178.81 1471.97 c 0
 1218.73 1473.87 1233.25 1434.32 1235.07 1408.98 c 0
 1237.81 1370.89 1217.36 1315.32 1157.78 1311.06 c 0
 857.4 1289.59 574.915 1298.53 253.918 1302.69 c 1
 254.248 1211.9 259.946 1020.52 265.112 881.077 c 1
 560.502 867.812 608.779 865.438 912.061 888.925 c 0
 1035.84 898.549 1009.04 721.802 902.356 716.037 c 0
 597.245 699.457 554.952 712.187 267.987 709.297 c 1
 280.105 393.89 281.201 163.194 286.932 85.8468 c 0
 292.143 15.5014 243.754 -35.5199 190.175 -34.4657 c 0
 139.997 -33.4784 103.956 13.2687 106.009 86.6847 c 0
 109.939 230.098 74.007 1208.42 70.0064 1386.43 c 0
EndSplineSet
EndChar

StartChar: G
Encoding: 71 71 33
Width: 1440
VWidth: 0
Flags: HW
HStem: 735.649 125.351<815.622 1202.01>
VStem: 1241 112<-8.13222 343.544>
LayerCount: 2
Fore
SplineSet
1049.79 1235.39 m 0
 963.866 1264.73 876.594 1324.81 660.161 1269.77 c 0
 573.74 1247.79 500.699 1214.63 439.552 1173.66 c 0
 139.004 972.28 121.329 576.04 255.752 375.941 c 0
 343.743 244.964 525.535 149.966 704.122 145.477 c 0
 936.958 139.624 1166.39 283.654 1176.67 710.981 c 1
 1089.89 711.993 988.716 711.417 847.866 695.165 c 0
 735.87 682.242 705.592 851.666 824.239 864.847 c 0
 988.23 883.065 1206.59 884.997 1281.77 885.998 c 0
 1384.58 887.366 1380.39 778.586 1375.99 732.619 c 0
 1354.02 503.006 1352.03 280.924 1377.87 30.5676 c 0
 1387.56 -63.3904 1230.34 -84.1009 1216.25 14.4645 c 0
 1206.33 83.9012 1201.35 168.856 1199.63 246.903 c 1
 1140.9 150.931 1068.84 84.4449 987.606 39.7673 c 0
 668.118 -135.948 232.8 45.7235 99.0919 288.957 c 0
 74.2257 334.192 53.5167 383.228 37.6038 434.81 c 0
 -71.0261 786.933 45.4336 1262.15 606.645 1434.89 c 0
 811.457 1497.94 1098.68 1471.36 1147.18 1351.37 c 0
 1154.66 1332.86 1152.91 1313.49 1147.29 1296.9 c 0
 1135.56 1262.19 1097.46 1219.11 1049.79 1235.39 c 0
EndSplineSet
EndChar

StartChar: H
Encoding: 72 72 34
Width: 1333
VWidth: 0
Flags: HW
HStem: 723 140<167.319 687.55> 757 122<687.55 1190.44>
VStem: 90.1387 136.049<930.122 1427.26> 115.621 140.013<15.7803 531.806> 1077.5 136.05<920.031 1417.17> 1102.99 140.01<5.6865 521.713>
LayerCount: 2
Fore
SplineSet
1145.28 732.002 m 0
 1057.53 731.016 371.956 702.019 225.684 698.009 c 0
 148.272 695.887 101.125 739.496 104.766 793.597 c 0
 108.253 845.421 156.701 892.664 224.732 887.94 c 0
 364.736 878.218 1040.8 896.135 1141.06 903.925 c 0
 1200.93 908.576 1248.04 860.828 1248.85 811.462 c 0
 1249.59 765.891 1209.68 732.725 1145.28 732.002 c 0
1052.53 1372.77 m 0
 1049.63 1442.97 1091.69 1481.59 1140.98 1477.9 c 0
 1189.54 1474.27 1243.34 1431.73 1238.47 1370.7 c 0
 1227.56 1233.45 1255.5 207.55 1267.9 67.2023 c 0
 1274.26 -4.62055 1222.41 -55.2594 1167.69 -54.8448 c 0
 1116.93 -54.4603 1077.36 -9.68244 1077.99 64.5696 c 0
 1079.23 209.258 1059.86 1195.99 1052.53 1372.77 c 0
65.1601 1383.17 m 0
 62.2782 1452.85 104.019 1491.31 152.874 1488.04 c 0
 201.694 1484.78 255.99 1442.11 251.109 1380.79 c 0
 240.189 1243.55 268.128 217.642 280.537 77.2961 c 0
 286.889 5.47225 235.047 -45.1657 180.318 -44.7509 c 0
 129.564 -44.3661 89.9885 0.410636 90.6219 74.6652 c 0
 91.855 219.353 72.4709 1206.39 65.1601 1383.17 c 0
EndSplineSet
EndChar

StartChar: I
Encoding: 73 73 35
Width: 406
VWidth: 0
Flags: HW
VStem: 120.139 136.049<930.122 1427.26> 145.621 140.013<15.7803 531.806>
LayerCount: 2
Fore
SplineSet
95.1604 1383.17 m 0
 92.2646 1453.19 134.501 1491.66 183.619 1487.99 c 0
 232.175 1484.36 285.966 1441.83 281.109 1380.79 c 0
 270.189 1243.55 298.128 217.642 310.537 77.2961 c 0
 316.889 5.47225 265.047 -45.1657 210.318 -44.7509 c 0
 159.564 -44.3661 119.989 0.410635 120.622 74.6652 c 0
 121.855 219.353 102.471 1206.39 95.1604 1383.17 c 0
EndSplineSet
EndChar

StartChar: J
Encoding: 74 74 36
Width: 1072
VWidth: 0
Flags: HW
HStem: -291 119<-0.907978 476.581> 1315 118<-11.7706 848.751>
LayerCount: 2
Fore
SplineSet
-0.484844 1458 m 0
 361.442 1465.02 552.242 1453.01 889.057 1464.98 c 0
 972.674 1467.96 996.75 1401.57 999.918 1339.27 c 0
 1026.68 813.032 1135.17 372.494 896.883 7.33793 c 0
 697.135 -298.756 413.131 -360.198 36.0253 -315.829 c 0
 -33.6968 -307.625 -67.8687 -254.487 -60.4759 -207.366 c 0
 -54.7071 -170.597 -21.5611 -139.881 24.8961 -147.314 c 0
 317.025 -194.054 539.018 -153.345 724.759 69.027 c 0
 925.648 309.533 882.369 644.821 823.156 1294.54 c 1
 528.017 1288.48 318.422 1278.28 21.0126 1290.02 c 0
 -38.1093 1292.36 -70.8589 1338.07 -72.0819 1380.49 c 0
 -73.1411 1417.22 -48.6584 1457.06 -0.484844 1458 c 0
EndSplineSet
EndChar

StartChar: K
Encoding: 75 75 37
Width: 1075
VWidth: 0
Flags: HW
VStem: 95 143<995.654 1428.49> 118 124<9.62898 518.309>
LayerCount: 2
Fore
SplineSet
70.0766 1362.04 m 0
 64.9962 1427.07 95.4537 1469.69 141.487 1472.86 c 0
 190.816 1476.25 243.33 1434.95 246.959 1375.44 c 0
 253.362 1257.44 259.102 1207.81 262.256 1029.94 c 1
 445.688 1160.91 668.548 1325.65 856.536 1459.39 c 0
 963.769 1535.18 1043.36 1359.44 935.814 1288.16 c 0
 665.524 1108.96 437.048 962.206 306.773 812.49 c 0
 305.484 811.039 304.194 808.435 303.864 807.282 c 0
 443.683 599.02 800.689 158.147 1012.91 149.983 c 0
 1081.63 147.613 1111.65 70.2702 1092.11 17.1472 c 0
 1071.28 -39.4691 1002.22 -63.2212 898.289 -24.4332 c 0
 717.947 42.4683 441.757 316.971 267.51 545.032 c 1
 269.542 369.348 276.569 129.656 272.971 56.8 c 0
 269.836 -10.9292 222.765 -61.8102 169.807 -59.3136 c 0
 120.173 -56.9738 89.5339 -8.2017 93.0291 63.2055 c 0
 113.944 496.464 93.98 1061.28 70.0766 1362.04 c 0
EndSplineSet
EndChar

StartChar: L
Encoding: 76 76 38
Width: 1020
VWidth: 0
Flags: HW
HStem: -12 132<241.82 706.34> 32 122<629.339 1020.23>
VStem: 112 126<115.589 1435.78>
LayerCount: 2
Fore
SplineSet
271 -37 m 0
 157.186 -37 83.6054 -11.0591 87.0088 121.665 c 0
 90.9632 265.984 76.0003 1210.79 75.0005 1394.83 c 0
 74.4554 1464.62 117.437 1502.36 166.494 1497.58 c 0
 214.874 1492.87 266.793 1449.15 260.884 1388.6 c 0
 250.999 1286.14 263.299 310.72 263.185 142.04 c 1
 462.754 119.224 807.444 133.379 972.487 178.137 c 0
 1101.19 212.635 1108 35.4796 997.023 7.73629 c 0
 784.209 -44.6969 432.893 -37 271 -37 c 0
EndSplineSet
EndChar

StartChar: M
Encoding: 77 77 39
Width: 1575
VWidth: 0
Flags: HW
VStem: 100.142 144<893.893 1240> 115.402 135<4.96124 486.173> 1324.14 120<962.781 1226> 1352.4 123<5.97537 483.166>
LayerCount: 2
Fore
SplineSet
343.471 1401.99 m 0
 484.382 1036.24 616.812 758.216 763.999 644.803 c 0
 794.229 621.51 802.543 620.084 821.262 633.381 c 0
 966.122 736.281 1127.82 1117.04 1248.06 1405.62 c 0
 1270.11 1458.53 1324.06 1479.68 1369.13 1480.59 c 0
 1410.89 1481.43 1468.33 1463.56 1469.14 1410.38 c 0
 1478.15 815.221 1478.86 606.322 1500.38 46.9608 c 0
 1502.55 -9.27175 1456.51 -36.9447 1417.02 -38.8629 c 0
 1379.58 -40.6816 1329.87 -20.4084 1327.43 30.8111 c 0
 1309.23 412.576 1303.16 746.204 1299.98 1118.27 c 1
 1190.52 887.586 1053.68 578.739 922.573 484.687 c 0
 851.456 433.669 771.043 422.737 693.92 481.06 c 0
 546.768 592.342 395.355 825.399 270.303 1111.27 c 1
 275.14 702.85 288.811 392.51 275.385 30.0753 c 0
 273.338 -25.2196 207.252 -43.5052 167.944 -43.8118 c 0
 137.603 -44.0485 89.5961 -31.3003 90.4056 16.4242 c 0
 99.1449 531.405 100.886 817.279 75.1694 1365.83 c 0
 68.0843 1516.94 300.082 1514.61 343.471 1401.99 c 0
EndSplineSet
EndChar

StartChar: N
Encoding: 78 78 40
Width: 1293
VWidth: 0
Flags: HW
VStem: 100.109 135<929.583 1283.82> 128.909 135<-12.7829 468.245> 1060.11 124<971.146 1455.75>
LayerCount: 2
Fore
SplineSet
1179.75 34.2058 m 0
 1141.46 -48.6553 1031.35 -79.7759 936.768 1.90361 c 0
 741.001 170.972 520.194 711.598 262.207 1183.76 c 1
 270.847 748.302 270.379 476.174 288.889 16.0048 c 0
 291.184 -41.0522 222.558 -59.2893 183.96 -59.7696 c 0
 153.29 -60.1513 104.322 -48.1691 103.91 -0.215299 c 0
 98.9965 570.195 105.107 858.214 75.1475 1397.43 c 0
 72.194 1450.62 112.911 1501.41 163.446 1504.76 c 0
 187.794 1506.39 204.228 1501.52 215.653 1493.68 c 1
 256.413 1495.99 295.982 1479.57 319.443 1440.85 c 0
 612.943 964.147 913.556 227.027 1028.96 154.494 c 1
 1059.13 245.423 1038.62 728.656 1035.11 1412.69 c 0
 1034.49 1533.42 1209.11 1534.12 1209.11 1412.82 c 0
 1209.11 676.785 1246.16 181.25 1179.75 34.2058 c 0
EndSplineSet
EndChar

StartChar: O
Encoding: 79 79 41
Width: 1314
VWidth: 0
Flags: HW
LayerCount: 2
Fore
SplineSet
570.718 1479.15 m 0
 600.988 1487.74 628.861 1479.36 647.495 1468.11 c 1
 1011.15 1489.41 1263.87 1195.82 1298.28 802.997 c 0
 1351.46 196.083 1020.63 -6.92457 704.737 -35.2012 c 0
 420.347 -60.6576 98.9962 131.851 23.5395 555.085 c 0
 -29.7752 854.129 60.6717 1334.51 570.718 1479.15 c 0
577.019 1294.51 m 0
 179.095 1170.18 166.088 779.236 188.223 602.347 c 0
 225.932 300.988 471.121 110.809 687.331 135.077 c 0
 925.653 161.826 1160.83 281.268 1123.21 762.774 c 0
 1094.58 1120.33 909.836 1332.46 601.407 1305.75 c 1
 592.928 1301.85 584.865 1296.97 577.019 1294.51 c 0
EndSplineSet
EndChar

StartChar: P
Encoding: 80 80 42
Width: 1050
VWidth: 0
Flags: HW
VStem: 95.4541 140<22.3188 675.925>
LayerCount: 2
Fore
SplineSet
62.4067 1384.44 m 0
 60.8319 1454.52 103.948 1492.33 153.178 1487.53 c 0
 201.525 1482.82 254.274 1439.34 248.279 1378.55 c 0
 234.794 1241.77 250.616 220.536 260.394 79.7321 c 0
 265.407 7.53942 212.465 -41.8456 157.892 -40.402 c 0
 107.154 -39.0598 68.4302 6.4551 70.4635 80.6847 c 0
 74.4197 225.072 66.3866 1207.32 62.4067 1384.44 c 0
310.439 471.243 m 0
 193.537 486.044 105.574 522.866 42.0739 565.199 c 0
 -12.2669 601.425 -23.8787 656.994 -1.0482 694.42 c 0
 16.3674 722.97 54.3255 736.657 89.0441 715.291 c 0
 165.163 668.448 259.817 642.767 334.571 634.861 c 0
 556.864 611.354 753.057 638.343 831.202 823.253 c 0
 913.124 1017.1 816.859 1217.54 666.24 1280.96 c 0
 531.464 1337.71 374.297 1299.85 226.514 1264.73 c 0
 177.828 1253.16 145.238 1289.11 136.38 1325.15 c 0
 125.398 1369.83 143.297 1432.9 206.296 1448.05 c 0
 387.939 1491.72 586.046 1494.17 713.584 1448.4 c 0
 1015.46 1340.07 1094.63 1020.84 1005.97 773.923 c 0
 889.822 450.463 592.93 436.041 310.439 471.243 c 0
EndSplineSet
EndChar

StartChar: Q
Encoding: 81 81 43
Width: 1352
VWidth: 0
Flags: HW
LayerCount: 2
Fore
SplineSet
581.221 1479.15 m 0
 611.492 1487.74 639.364 1479.36 657.998 1468.11 c 1
 1021.65 1489.41 1274.37 1195.82 1308.78 802.997 c 0
 1362 195.628 1032.37 6.75504 716.599 -39.042 c 0
 431.63 -80.3707 109.315 132.88 34.0424 555.085 c 0
 -19.2729 854.129 71.1754 1334.51 581.221 1479.15 c 0
587.368 1297.46 m 0
 189.463 1173.14 173.615 779.047 195.726 602.347 c 0
 233.457 300.807 481.98 103.849 697.834 128.077 c 0
 935.833 154.79 1174.34 281.22 1136.72 762.752 c 0
 1108.09 1120.31 920.29 1335.42 611.909 1308.75 c 1
 603.434 1304.85 595.198 1299.92 587.368 1297.46 c 0
1290.36 -81.0999 m 0
 1149.64 -30.5699 929.068 135.228 840.732 242.07 c 0
 766.561 331.781 875.727 456.683 954.977 364.275 c 0
 1033.9 272.246 1256.55 91.5664 1384.25 19.7941 c 0
 1406.17 7.47615 1419.65 -16.1419 1411.53 -40.0197 c 0
 1397.57 -81.0809 1339.16 -98.6259 1290.36 -81.0999 c 0
EndSplineSet
EndChar

StartChar: R
Encoding: 82 82 44
Width: 1046
VWidth: 0
Flags: HW
HStem: 1294 111<49.3107 113.032>
VStem: 113.032 136.919<891.939 1296.99> 134.464 137<22.9518 539.667>
LayerCount: 2
Fore
SplineSet
268.783 1296.16 m 1
 266.254 1203.59 268.547 1122.3 274.361 900.573 c 1
 525.497 877.623 747.454 871.34 829.936 1000.46 c 0
 889.749 1094.09 846.284 1181.42 807.168 1215.04 c 0
 679.846 1324.48 455.595 1325.67 268.783 1296.16 c 1
88.734 1267.13 m 1
 -2.39246 1263 -36.0073 1409.52 59.1898 1429.44 c 0
 77.6242 1433.02 92.5761 1435.86 107.554 1438.61 c 1
 137.194 1474.57 181.284 1471.5 213.401 1456.01 c 1
 438.166 1487.54 781.687 1488.27 937.317 1329.5 c 0
 1015.56 1249.68 1076.05 1102.76 1002.85 937.858 c 0
 919.087 749.12 624.597 700.53 418.606 723.85 c 1
 613.222 466.397 785.348 298.352 1017.23 88.5373 c 0
 1050.8 58.1641 1038.73 11.1336 1013.21 -15.1665 c 0
 975.056 -54.4919 903.651 -59.3283 836.349 6.76398 c 0
 659.773 181.946 491.475 342.509 279.357 618.206 c 1
 286.219 382.111 297.493 134.948 296.729 72.5021 c 0
 295.937 7.75279 247.762 -37.199 196.549 -36.4225 c 0
 145.724 -35.6519 107.437 10.3129 109.473 84.6846 c 0
 112.93 210.874 95.975 961.242 88.734 1267.13 c 1
EndSplineSet
EndChar

StartChar: S
Encoding: 83 83 45
Width: 969
VWidth: 0
Flags: HW
LayerCount: 2
Fore
SplineSet
756.82 1240.1 m 0
 658.148 1336.24 392.644 1319.62 295.997 1256.11 c 0
 216.135 1203.63 157.441 1142.77 183.485 1041.21 c 0
 233.058 847.875 898.377 697.206 958.175 417.221 c 0
 965.717 381.907 969.331 348.844 969.392 317.924 c 0
 969.935 39.7241 689.506 -38 506.726 -38 c 0
 301.297 -38 133.124 32.5729 37.3918 183.617 c 0
 -10.4338 259.074 26.4276 361.475 101.323 377.717 c 0
 142.849 386.723 182.101 359.838 193.011 305.962 c 0
 237.211 87.6885 799.879 50.969 787.746 350.99 c 0
 779.475 555.536 125.53 656.837 18.6014 970.943 c 0
 -33.2008 1123.11 25.6626 1288.05 166.51 1380.87 c 0
 371.904 1516.24 746.7 1497.32 864.897 1382.97 c 0
 913.793 1335.66 908.526 1276.1 875.636 1242.34 c 0
 846.629 1212.56 794.882 1203.01 756.82 1240.1 c 0
EndSplineSet
EndChar

StartChar: T
Encoding: 84 84 46
Width: 1240
VWidth: 0
Flags: HW
HStem: 1325.3 114<38.065 115.501 820.368 1116.6>
VStem: 538.231 140<19.6176 1312.33>
LayerCount: 2
Fore
SplineSet
49.1458 1464.28 m 0
 540.448 1446.28 731.206 1458.81 1185.27 1476.28 c 0
 1241.54 1478.45 1276.02 1436.88 1279.68 1396.44 c 0
 1282.86 1361.44 1261.38 1322.28 1215.33 1318.39 c 0
 1010.89 1301.13 855.032 1291.94 694.421 1288.69 c 1
 685.098 1032.14 694.212 206.04 703.171 77.0311 c 0
 708.184 4.83849 655.244 -44.5469 600.669 -43.1032 c 0
 549.933 -41.7611 511.205 3.75347 513.24 77.9836 c 0
 516.866 210.222 515.604 1011.1 512.517 1287.43 c 1
 367.183 1288.22 230.214 1293.01 46.7489 1300.34 c 1
 -63.4939 1305.85 -72.5376 1468.74 49.1458 1464.28 c 0
EndSplineSet
EndChar

StartChar: U
Encoding: 85 85 47
Width: 1274
VWidth: 0
Flags: HW
VStem: 77.7725 129<949.48 1442.13> 1043.77 135<966.725 1450.28>
LayerCount: 2
Fore
SplineSet
52.7344 1400.34 m 0
 59.0503 1524.12 237.194 1525.62 231.751 1396.4 c 0
 228.694 1323.8 220.476 1207.65 218.577 1073.98 c 0
 212.82 668.732 268.193 147.973 644.073 143.447 c 0
 1111.88 137.808 1067.2 996.451 1018.96 1385.37 c 0
 1010.33 1454.99 1056.28 1495.63 1103.82 1500.99 c 0
 1145.66 1505.7 1197.67 1483.75 1203.62 1430.21 c 0
 1245.72 1051.45 1261.14 471.827 1053.06 182.841 c 0
 1025.16 144.102 994.768 110.839 962.478 82.8215 c 0
 733.156 -116.161 417.685 -45.0823 239.88 160.076 c 0
 17.305 416.897 37.7809 1107.26 52.7344 1400.34 c 0
EndSplineSet
EndChar

StartChar: V
Encoding: 86 86 48
Width: 1234
VWidth: 0
Flags: HW
LayerCount: 2
Fore
SplineSet
-29.4138 1352.6 m 0
 -67.3759 1465.23 102.922 1538.55 139.07 1416.2 c 0
 234.787 1092.26 482.97 534.627 640.196 217.305 c 1
 764.664 572.666 981.572 1105.95 1107.84 1425.31 c 0
 1127.62 1475.33 1171.81 1489.72 1208.24 1475.79 c 0
 1247.18 1460.9 1283.28 1413.95 1264.41 1365.11 c 0
 1128.38 1013.01 897.153 425.921 754.942 33.4824 c 0
 743.912 3.04342 723.74 -18.8291 699.533 -30.8306 c 0
 640.705 -59.9959 563.826 -32.4773 534.943 27.0932 c 0
 370.817 365.598 91.349 994.323 -29.4138 1352.6 c 0
EndSplineSet
EndChar

StartChar: W
Encoding: 87 87 49
Width: 1810
VWidth: 0
Flags: HW
LayerCount: 2
Fore
SplineSet
-26.7859 1357.09 m 0
 -47.1666 1408.59 -26.6566 1455.49 12.2154 1473.14 c 0
 55.255 1492.69 109.751 1471.94 136.41 1412.19 c 0
 300.629 1044.12 429.591 607.761 517.232 224.359 c 1
 647.518 528.467 761.965 846.649 854.778 985.867 c 0
 902.093 1056.84 1031.58 1044.09 1074.67 962.697 c 0
 1171.9 779.048 1295.52 494.052 1363.75 255.086 c 1
 1501.62 699.788 1633.84 1232.28 1693.76 1420.58 c 0
 1705.21 1456.58 1732.82 1480.28 1766.11 1472.32 c 0
 1820.26 1459.37 1859.15 1379.5 1841.82 1310.88 c 0
 1766.64 1013.19 1625.6 515.201 1487.59 38.0504 c 0
 1472.43 -14.3553 1421.63 -42.6127 1374.26 -51.0333 c 0
 1318.88 -60.8775 1243.76 -45.3915 1231.95 22.7271 c 0
 1183.85 300.047 1100.05 496.546 960.63 781.297 c 1
 864.607 607.581 705.122 212.476 653.448 46.5653 c 0
 618.923 -64.2857 395.87 -74.7945 370.985 61.5103 c 0
 304.845 423.794 137.98 949.503 -26.7859 1357.09 c 0
EndSplineSet
EndChar

StartChar: X
Encoding: 88 88 50
Width: 1051
VWidth: 0
Flags: HW
LayerCount: 2
Fore
SplineSet
23.3418 1328.83 m 0
 -11.0947 1379.85 -3.82297 1439.91 43.6312 1464.48 c 0
 86.8699 1486.88 154.977 1478.9 182.876 1424.39 c 0
 245.472 1302.1 942.557 238.375 1026.65 125.591 c 0
 1066.51 72.1394 1054.61 -1.05793 1005.39 -30.8921 c 0
 961.988 -57.2008 904.802 -39.8535 866.373 23.6864 c 0
 791.573 147.364 122.325 1182.2 23.3418 1328.83 c 0
850.801 1418.62 m 0
 881.606 1469.81 939.475 1489.62 981.978 1456.79 c 0
 1020.51 1427.02 1042 1361.9 1004.33 1313.62 c 0
 919.674 1205.11 255.681 150.827 188.968 27.2096 c 0
 157.125 -31.7923 85.7555 -51.4382 38.1087 -19.4896 c 0
 -4.0472 8.77717 -12.4296 67.9461 28.9844 129.583 c 0
 109.736 249.765 759.645 1267.17 850.801 1418.62 c 0
EndSplineSet
EndChar

StartChar: Y
Encoding: 89 89 51
Width: 1063
VWidth: 0
Flags: HW
LayerCount: 2
Fore
SplineSet
530.457 4.19448 m 0
 525.045 -5.90831 518.986 -14.7965 512.315 -22.4758 c 0
 429.332 -117.997 280.809 6.54506 356.281 91.8572 c 0
 419.934 163.814 509.69 363.998 547.054 443.846 c 1
 417.31 695.962 112.588 1159.95 -13.2001 1309.94 c 0
 -90.883 1402.57 47.4006 1551.21 128.556 1433.16 c 0
 253.34 1251.65 486.116 897.322 633.423 647.383 c 1
 759.472 952.591 887.973 1300.62 897.589 1382.9 c 0
 905.94 1454.36 973.148 1482.67 1026.68 1465.63 c 0
 1078.26 1449.21 1114.93 1392.55 1090.23 1315.38 c 0
 1048.13 1183.84 882.998 785.653 738.483 456.822 c 1
 768.755 393.138 730.412 331.83 677.258 318.996 c 1
 630.015 217.485 575.177 87.67 530.457 4.19448 c 0
EndSplineSet
EndChar

StartChar: Z
Encoding: 90 90 52
Width: 1147
VWidth: 0
Flags: HW
HStem: -1 112<177.557 449.317 948.207 1102.21> 1305 120<55.9901 315.279 735.838 951.556>
LayerCount: 2
Fore
SplineSet
98.6546 1280.09 m 0
 36.2855 1274.83 1.63061 1318.77 0.0613812 1362.33 c 0
 -1.35425 1401.62 23.8978 1448.14 75.6634 1449.98 c 0
 355.911 1459.98 706.243 1469.02 991.436 1458.98 c 0
 1028.42 1457.68 1058.61 1446.21 1080.16 1426.76 c 0
 1138.92 1373.72 1123.08 1280.23 1075.09 1227.22 c 0
 840.501 968.142 457.107 487.502 226.077 139.402 c 1
 490.622 156.444 810.201 159.125 1068.93 144.963 c 0
 1177.45 139.021 1171.45 -30.4034 1064.29 -24.9679 c 0
 789.266 -11.0165 444.842 -10.0186 135.846 -25.9668 c 0
 107.34 -27.438 82.2955 -21.0979 62.3161 -8.58181 c 0
 2.65161 28.7949 -3.69512 110.43 29.4778 162.443 c 0
 256.98 519.144 635.353 991.138 897.754 1288.13 c 1
 660.421 1297.76 428.627 1307.9 98.6546 1280.09 c 0
EndSplineSet
EndChar

StartChar: zero
Encoding: 48 48 53
Width: 1285
VWidth: 0
Flags: HW
HStem: 1322 114.6<451.483 861.157>
LayerCount: 2
Fore
SplineSet
486.221 1297.07 m 1
 477.522 1286.32 466.675 1275.73 454.098 1266.13 c 0
 223.362 1089.97 155.639 774.26 177.151 602.347 c 0
 214.837 301.137 458.814 114.783 675.258 139.077 c 0
 913.849 165.856 1148.73 281.559 1111.16 762.588 c 0
 1082.2 1125.24 926.785 1362.53 486.221 1297.07 c 1
428.381 1435.22 m 1
 457.077 1467.76 529.347 1469.49 582.863 1472.35 c 0
 1030.07 1496.24 1260.17 1201.66 1282.9 771.32 c 0
 1314.99 163.636 1007.77 -6.99586 692.665 -35.2012 c 0
 408.275 -60.6576 86.923 131.851 11.4672 555.085 c 0
 -42.2453 856.359 93.9377 1246.51 374.997 1415.16 c 0
 393.339 1426.16 411.309 1432.85 428.381 1435.22 c 1
EndSplineSet
EndChar

StartChar: one
Encoding: 49 49 54
Width: 406
VWidth: 0
Flags: HW
VStem: 120.139 136.05<912.309 1418.26> 145.621 140.013<15.7803 537.658>
LayerCount: 2
Fore
SplineSet
95.1604 1374.17 m 0
 92.2646 1444.19 134.501 1482.66 183.62 1478.99 c 0
 232.175 1475.36 285.967 1432.83 281.11 1371.79 c 0
 270.19 1234.54 298.126 217.659 310.537 77.2961 c 0
 316.889 5.4724 265.047 -45.1657 210.319 -44.7509 c 0
 159.565 -44.3661 119.989 0.410413 120.622 74.6652 c 0
 121.855 219.35 102.472 1197.38 95.1604 1374.17 c 0
EndSplineSet
EndChar

StartChar: two
Encoding: 50 50 55
Width: 1011
VWidth: 0
Flags: HMW
HStem: 0 130 6 115<248.55 277.626 864.954 968.48>
LayerCount: 2
Fore
SplineSet
695.533 961.758 m 0
 749.641 1089.39 752.974 1262.52 631.188 1296.94 c 0
 477.12 1340.48 278.658 1318.71 126.955 1192.76 c 0
 33.5417 1115.21 -64.4997 1261.84 29.0471 1339.26 c 0
 211.948 1490.63 454.628 1489.02 651.414 1461.76 c 0
 907.003 1426.39 967.339 1172.45 857.167 899.638 c 0
 794.229 743.787 504.975 407.546 303.927 151.424 c 1
 476.144 164.994 766.908 167.751 932.181 156.947 c 0
 995.039 152.838 1024.58 100.906 1020.74 56.1664 c 0
 1017.3 16.1384 985.422 -24.3272 932.009 -18.8706 c 0
 729.561 1.81136 425.945 -9.98805 180.069 -24.9538 c 0
 145.089 -27.0829 115.864 -18.1033 94.6522 -0.924339 c 0
 43.1594 40.778 45.5551 118.594 79.7161 159.927 c 0
 348.816 485.52 640.126 831.069 695.533 961.758 c 0
EndSplineSet
EndChar

StartChar: three
Encoding: 51 51 56
Width: 1023
VWidth: 0
Flags: HW
HStem: 25.1523 134.848<45.2439 328.878>
LayerCount: 2
Fore
SplineSet
942.993 1012.89 m 0
 918.926 931.821 876.062 854 775.355 803.468 c 1
 854.43 758.111 955.483 668.511 998.644 544.201 c 0
 1060.76 365.295 1006.97 148.683 811.148 40.1349 c 0
 650.198 -49.0844 289.874 -51.0785 63.4458 0.783336 c 0
 -50.5412 26.8913 0.0629502 219.233 106.912 183.724 c 0
 255.202 134.441 555.077 110.181 694.265 176.565 c 0
 815.977 234.612 884.125 336.474 835.173 492.517 c 0
 777.198 677.324 559.648 717.981 367.727 704.901 c 0
 235.843 695.914 242.355 895.155 363.917 890.827 c 0
 531.986 884.843 718.594 887.776 770.209 1049.6 c 0
 794.598 1126.06 767.941 1207.96 700.197 1257.87 c 0
 578.765 1347.36 327.599 1322.29 165.185 1221.74 c 0
 64.8674 1159.64 -34.3766 1310.14 75.6668 1372.73 c 0
 301.558 1501.21 594.56 1494.39 752.118 1424.87 c 0
 935.522 1343.95 983.954 1150.85 942.993 1012.89 c 0
EndSplineSet
EndChar

StartChar: four
Encoding: 52 52 57
Width: 1016
VWidth: 0
Flags: HW
VStem: 764.505 132.05<909.942 1412.17> 789.987 136.013<20.6865 529.942>
LayerCount: 2
Fore
SplineSet
285 456.229 m 0
 100.084 456.229 -19.7466 564.04 -8.95686 747.468 c 0
 8.46217 1043.6 101.296 1238.51 172.9 1411.56 c 0
 195.893 1467.13 249.863 1478.73 289.119 1463.77 c 0
 323.603 1450.63 355.782 1412.62 338.349 1367.07 c 0
 262.675 1169.31 186.237 1019.34 165.922 762.032 c 0
 158.457 667.476 208.486 649.293 309.994 637.049 c 0
 482.101 616.289 599.063 639.985 768.958 653.916 c 0
 881.952 663.175 899.907 478.953 781.876 470.07 c 0
 598.281 456.254 519.769 456.229 285 456.229 c 0
739.502 1368.67 m 0
 737.052 1437.59 777.37 1476.63 826.185 1472.9 c 0
 874.286 1469.22 926.289 1426.16 921.476 1365.7 c 0
 910.552 1228.45 938.49 222.586 950.903 82.2023 c 0
 957.176 11.255 907.461 -40.0645 853.218 -39.8464 c 0
 802.725 -39.6434 764.357 5.69141 764.988 79.5715 c 0
 766.228 224.65 746.838 1190.49 739.502 1368.67 c 0
EndSplineSet
EndChar

StartChar: five
Encoding: 53 53 58
Width: 1089
VWidth: 0
Flags: HMW
HStem: 0 131<137.085 617.693> 1312 115<564.055 1015.45>
VStem: 40 130<982.98 1312>
LayerCount: 2
Fore
SplineSet
1015.78 1289.02 m 0
 680.843 1300.72 477.002 1304.74 195.265 1288.41 c 1
 192.568 1196.17 185.713 1096.36 178.643 1005 c 1
 520.003 1026.76 790.997 952.207 958.188 752 c 0
 1160.42 509.832 1044.74 219.689 912.861 109.795 c 0
 704.518 -63.8197 405.509 -68.1719 146.86 -4.27022 c 0
 93.4466 8.92635 83.4298 71.0571 94.1576 111.619 c 0
 104.901 152.242 143.134 190.666 201.298 175.156 c 0
 420.278 116.762 677.838 115.156 812.674 260.741 c 0
 902.618 357.855 933.651 540.417 794.89 668.639 c 0
 646.89 805.396 424.469 871.415 125.58 821.344 c 0
 53.8782 809.332 -6.86982 870.767 0.612831 935.856 c 0
 16.0056 1069.73 25.8173 1170.55 19.8746 1326.05 c 0
 17.838 1379.35 45.2875 1445.64 111.882 1450.92 c 0
 416.598 1475.06 711.747 1466.99 1016.68 1451.97 c 0
 1116.27 1447.06 1112.94 1285.64 1015.78 1289.02 c 0
EndSplineSet
EndChar

StartChar: six
Encoding: 54 54 59
Width: 1118
VWidth: 0
Flags: HW
VStem: 25.9697 119<664 992.109>
LayerCount: 2
Fore
SplineSet
198.335 510.905 m 1
 178.879 375.43 277.279 161.378 458.817 147.932 c 0
 690.908 130.74 878.545 261.723 928.673 475.702 c 0
 988.375 730.55 811.033 879.354 597.055 844.174 c 0
 399.129 811.633 262.853 691.182 198.335 510.905 c 1
392.082 1356.56 m 0
 277.957 1181.01 192.03 1015.79 173.578 762.189 c 1
 253.11 874.732 389.212 987.515 596.337 1009.7 c 0
 976.827 1050.46 1173.37 762.566 1104.4 456.504 c 0
 1038.19 162.73 791.103 -75.154 437.213 -20.7093 c 0
 65.9351 36.4104 -9.79183 375.856 0.981406 727.765 c 0
 10.1828 1028.34 138.156 1300.16 252.093 1451.07 c 0
 315.197 1534.64 445.433 1438.65 392.082 1356.56 c 0
EndSplineSet
EndChar

StartChar: seven
Encoding: 55 55 60
Width: 1047
VWidth: 0
Flags: HW
HStem: 1332 111<-10.854 896>
VStem: 342 138.801<-2.11728 171.107>
LayerCount: 2
Fore
SplineSet
25.3548 1467.96 m 0
 411.548 1447 582.153 1455.93 932.139 1467.99 c 0
 1029.31 1471.33 1084.03 1382.32 1048.49 1309.09 c 0
 804.511 806.042 639.229 574.09 505.111 15.2533 c 0
 478.432 -95.8932 288.519 -54.0022 317.895 52.8154 c 0
 447.352 523.551 580.655 773.079 853.818 1307.39 c 1
 626.516 1294.33 349.987 1290.09 16.7319 1307.03 c 0
 -81.362 1312.02 -71.111 1473.2 25.3548 1467.96 c 0
EndSplineSet
EndChar

StartChar: eight
Encoding: 56 56 61
Width: 1055
VWidth: 0
Flags: HW
LayerCount: 2
Fore
SplineSet
711.922 1416.69 m 1
 717.703 1415.33 723.647 1413.42 729.289 1411.07 c 0
 874.514 1350.37 978.413 1163.43 940.916 1011.99 c 0
 895.352 827.976 736.84 691.541 463.907 726.865 c 0
 218.856 758.581 31.0804 918.844 62.8668 1158.29 c 0
 65.2005 1175.87 69.3202 1193.38 75.0739 1210.63 c 0
 134.875 1389.89 371.759 1544.96 659.579 1448.71 c 0
 681.9 1441.24 698.877 1430.97 711.922 1416.69 c 1
641.839 1263.97 m 0
 634.933 1267.67 628.119 1275.95 620.403 1277.45 c 0
 612.327 1279.01 604.248 1281.73 596.429 1285.66 c 0
 451.224 1358.59 255.387 1268.24 247.607 1133.56 c 0
 240.54 1011.2 319.264 923.662 502.441 895.554 c 0
 622.577 877.119 746.403 944.641 763.971 1053 c 0
 774.516 1118.02 757.67 1201.88 641.839 1263.97 c 0
475.303 891.928 m 1
 491.3 898.856 510.335 902.693 533.017 901.499 c 0
 827.845 885.984 973.351 774.055 1038.95 555.711 c 0
 1106.77 329.947 953.56 68.6725 734.833 3.05434 c 0
 503.114 -66.4612 138.095 -70.6494 24.3337 273.78 c 0
 16.472 297.583 10.4852 322.001 6.41644 346.755 c 0
 -31.3177 576.323 97.6835 835.469 424.768 888.829 c 0
 442.425 891.709 456.852 892.934 475.303 891.928 c 1
496.999 724.846 m 1
 463.159 714.729 424.639 713.265 392.989 702.861 c 0
 220.454 646.15 145.034 476.507 192.725 331.826 c 0
 250.514 156.513 433.233 89.1844 672.479 167.959 c 0
 810.807 213.508 903.456 384.613 859.755 526.648 c 0
 813.532 676.874 715.749 701.6 511.143 722.665 c 0
 506.535 723.14 501.567 723.919 496.999 724.846 c 1
EndSplineSet
EndChar

StartChar: nine
Encoding: 57 57 62
Width: 1050
VWidth: 0
Flags: HW
VStem: 815 140<-5.29642 511.048>
LayerCount: 2
Fore
SplineSet
765.021 1361.96 m 0
 762.281 1432.07 804.564 1470.54 853.665 1467.02 c 0
 902.26 1463.53 956.125 1420.95 950.918 1359.97 c 0
 940.319 1223.1 967.227 196.629 979.897 56.2663 c 0
 986.511 -15.1389 935.32 -65.5786 880.871 -65.5782 c 0
 829.792 -65.5778 789.475 -20.7216 790.001 54.1712 c 0
 790.99 198.909 771.983 1184.99 765.021 1361.96 c 0
738.138 1272.56 m 0
 700.797 1294.97 569.356 1324.37 476.26 1296.08 c 0
 249.191 1227.16 46.6361 787.383 286.877 655.747 c 0
 413.472 586.381 643 624.671 803.056 916.977 c 0
 813.248 935.701 833.556 966.633 864.574 951.99 c 0
 914.183 928.572 897.443 824.697 868.43 765.959 c 0
 797.755 622.334 686.097 526.568 565.971 479.615 c 0
 345.74 393.536 95.0424 474.766 24.5285 713.729 c 0
 -53.8318 979.282 108.479 1371.98 421.985 1464 c 0
 578.642 1509.52 784.859 1463.49 840.783 1422.16 c 0
 937.587 1351.76 834.31 1214.86 738.138 1272.56 c 0
EndSplineSet
EndChar

StartChar: period
Encoding: 46 46 63
Width: 402
VWidth: 0
Flags: HW
LayerCount: 2
Fore
SplineSet
195.545 -31.0659 m 0
 117.757 -18.1932 59.5964 87.7944 120.911 152.35 c 0
 157.433 190.801 229.398 207.798 274.292 165.093 c 0
 325.045 116.7 321.743 -0.118022 239.009 -27.6958 c 0
 224.623 -32.5769 209.552 -33.3839 195.545 -31.0659 c 0
EndSplineSet
EndChar

StartChar: slash
Encoding: 47 47 64
Width: 646
VWidth: 0
Flags: HW
LayerCount: 2
Fore
SplineSet
472.383 1432.99 m 0
 493.275 1497.61 549.062 1526.44 598.039 1504.07 c 0
 639.927 1484.93 672.38 1431.78 647.858 1378.8 c 0
 589.9 1253.59 93.8497 -115.689 57.1218 -250.568 c 0
 38.8723 -317.59 -26.3127 -349.828 -78.5554 -330.536 c 0
 -126.399 -312.869 -148.399 -256.976 -121.925 -187.19 c 0
 -70.3826 -51.3204 418.206 1265.43 472.383 1432.99 c 0
EndSplineSet
EndChar

StartChar: comma
Encoding: 44 44 65
Width: 275
VWidth: 0
Flags: HW
VStem: 74.3994 128.601<-254.157 155.303>
LayerCount: 2
Fore
SplineSet
49.6363 102.878 m 0
 33.2782 213.389 204.513 242.463 227.447 135.229 c 0
 260.766 -20.5531 220.202 -224.092 153.91 -315.716 c 0
 82.9404 -413.806 -45.5017 -317.861 20.0994 -218.338 c 0
 88.5783 -114.45 69.3845 -30.5281 49.6363 102.878 c 0
EndSplineSet
EndChar

StartChar: plus
Encoding: 43 43 66
Width: 957
VWidth: 0
Flags: HW
HStem: 470.189 140<67.7516 890.151>
VStem: 423.557 135.976<134.175 947.987>
LayerCount: 2
Fore
SplineSet
398.561 177.619 m 0
 401.642 354.73 396.766 747.083 392.047 892.344 c 0
 389.531 969.789 432.919 1017.11 487.019 1013.75 c 0
 538.858 1010.52 586.352 962.315 581.969 894.261 c 0
 572.848 752.503 570.068 322.656 584.4 184.452 c 0
 597.239 60.6522 395.863 22.5724 398.561 177.619 c 0
848.866 447.596 m 0
 671.75 451.575 271.355 449.176 126.117 445.198 c 0
 48.7044 443.078 1.55826 486.683 5.19866 540.786 c 0
 8.68569 592.61 57.1335 639.853 125.165 635.129 c 0
 266.871 625.289 704.763 619.839 842.975 633.469 c 0
 966.969 645.69 1003.79 444.116 848.866 447.596 c 0
EndSplineSet
EndChar

StartChar: hyphen
Encoding: 45 45 67
Width: 650
VWidth: 0
Flags: HW
HStem: 470.189 140<57.7516 593.151>
LayerCount: 2
Fore
SplineSet
551.866 447.596 m 0
 374.326 451.585 262.071 449.195 116.117 445.198 c 0
 38.7044 443.078 -8.44175 486.683 -4.80134 540.786 c 0
 -1.31432 592.61 47.1335 639.853 115.165 635.129 c 0
 258.617 625.167 406.308 619.695 545.975 633.469 c 0
 669.969 645.69 706.787 444.116 551.866 447.596 c 0
EndSplineSet
EndChar

StartChar: semicolon
Encoding: 59 59 68
Width: 338
VWidth: 0
Flags: HW
VStem: 105.399 128.601<-254.157 155.303>
LayerCount: 2
Fore
SplineSet
80.6735 102.624 m 0
 64.2964 213.266 235.48 242.618 258.447 135.229 c 0
 291.764 -20.5545 251.203 -224.09 184.91 -315.716 c 0
 113.94 -413.806 -14.5016 -317.861 51.0994 -218.338 c 0
 119.578 -114.45 100.409 -30.6927 80.6735 102.624 c 0
155.545 783.934 m 0
 77.756 796.807 19.5979 902.793 80.9115 967.35 c 0
 117.433 1005.8 189.398 1022.8 234.292 980.093 c 0
 285.049 931.699 281.748 814.883 199.001 787.301 c 0
 184.633 782.427 169.548 781.617 155.545 783.934 c 0
EndSplineSet
EndChar

StartChar: colon
Encoding: 58 58 69
Width: 338
VWidth: 0
Flags: HW
LayerCount: 2
Fore
SplineSet
155.545 783.934 m 0
 77.756 796.807 19.5979 902.793 80.9115 967.35 c 0
 117.433 1005.8 189.398 1022.8 234.292 980.093 c 0
 285.049 931.699 281.748 814.883 199.001 787.301 c 0
 184.633 782.427 169.548 781.617 155.545 783.934 c 0
171.585 -31.0659 m 0
 93.7977 -18.1932 35.6365 87.7945 96.9515 152.35 c 0
 133.473 190.801 205.437 207.797 250.332 165.093 c 0
 301.086 116.7 297.783 -0.118087 215.049 -27.696 c 0
 200.664 -32.5767 185.592 -33.3838 171.585 -31.0659 c 0
EndSplineSet
EndChar

StartChar: backslash
Encoding: 92 92 70
Width: 703
VWidth: 0
Flags: HW
LayerCount: 2
Fore
SplineSet
621.213 -243.691 m 0
 567.052 -76.201 38.3505 1343.24 -13.2048 1479.13 c 0
 -38.7098 1546.36 -17.5198 1609.26 36.6325 1624.58 c 0
 86.8438 1638.79 147.848 1608.59 165.842 1542.51 c 0
 202.537 1407.76 738.735 -64.2932 796.688 -189.499 c 0
 822.453 -245.167 785.004 -302.94 737.137 -318.568 c 0
 692.288 -333.211 642.352 -309.065 621.213 -243.691 c 0
EndSplineSet
EndChar

StartChar: quotesingle
Encoding: 39 39 71
Width: 227
VWidth: 0
Flags: HW
VStem: 25.3926 136<1082.03 1406.93>
LayerCount: 2
Fore
SplineSet
0.394065 1392.64 m 0
 6.04294 1509.01 182.327 1473.78 186.372 1374.01 c 0
 189.336 1300.92 199.317 1131.2 222.141 1061.81 c 0
 259.853 947.163 103.728 894.618 63.8304 1009.63 c 0
 38.8586 1083.87 -4.95243 1282.5 0.394065 1392.64 c 0
EndSplineSet
EndChar

StartChar: quotedbl
Encoding: 34 34 72
Width: 480
VWidth: 0
Flags: HW
VStem: 25.3926 136<1082.03 1406.93> 287.393 136<1082.03 1406.93>
LayerCount: 2
Fore
SplineSet
262.422 1393.21 m 0
 268.05 1509.12 444.342 1473.44 448.372 1374.01 c 0
 451.335 1300.92 461.317 1131.2 484.141 1061.81 c 0
 521.808 947.299 364.979 893.895 325.711 1009.99 c 0
 301.456 1081.7 257.087 1283.31 262.422 1393.21 c 0
0.394065 1392.64 m 0
 6.04294 1509.01 182.327 1473.78 186.372 1374.01 c 0
 189.336 1300.92 199.317 1131.2 222.141 1061.81 c 0
 259.853 947.163 103.728 894.618 63.8304 1009.63 c 0
 38.8586 1083.87 -4.95243 1282.5 0.394065 1392.64 c 0
EndSplineSet
EndChar

StartChar: dollar
Encoding: 36 36 73
Width: 969
VWidth: 0
Flags: HW
VStem: 419 140.001<-171.681 -13 1556 1600.72>
LayerCount: 2
Fore
SplineSet
396.006 1559.44 m 0
 394.436 1629.32 437.295 1667.18 486.429 1662.57 c 0
 534.906 1658.03 587.889 1614.48 581.879 1553.55 c 0
 568.39 1416.77 574.212 25.8279 583.941 -114.268 c 0
 588.954 -186.46 536.014 -235.846 481.439 -234.402 c 0
 430.701 -233.06 391.977 -187.546 394.009 -113.315 c 0
 397.969 31.286 399.976 1382.74 396.006 1559.44 c 0
756.82 1240.1 m 0
 658.148 1336.24 392.644 1319.62 295.997 1256.11 c 0
 216.135 1203.63 157.441 1142.77 183.485 1041.21 c 0
 233.058 847.875 898.377 697.206 958.175 417.221 c 0
 965.717 381.907 969.331 348.844 969.392 317.924 c 0
 969.935 39.7241 689.506 -38 506.726 -38 c 0
 301.297 -38 133.124 32.5729 37.3918 183.617 c 0
 -10.4338 259.074 26.4276 361.475 101.323 377.717 c 0
 142.849 386.723 182.101 359.838 193.011 305.962 c 0
 237.211 87.6885 799.879 50.969 787.746 350.99 c 0
 779.475 555.536 125.53 656.837 18.6014 970.943 c 0
 -33.2008 1123.11 25.6626 1288.05 166.51 1380.87 c 0
 371.904 1516.24 746.7 1497.32 864.897 1382.97 c 0
 913.793 1335.66 908.526 1276.1 875.636 1242.34 c 0
 846.629 1212.56 794.882 1203.01 756.82 1240.1 c 0
EndSplineSet
EndChar

StartChar: percent
Encoding: 37 37 74
Width: 1090
VWidth: 0
Flags: HW
LayerCount: 2
Fore
SplineSet
772.114 329.218 m 0
 707.677 279.424 723.737 160.481 810.45 149.637 c 0
 865.384 142.767 919.854 177.408 928.015 244.039 c 0
 937.685 323.022 827.133 371.734 772.114 329.218 c 0
578.33 331.986 m 0
 587.591 377.482 610.975 414.769 642.297 442.576 c 0
 746.347 534.949 939.651 529.953 1033.57 423.543 c 0
 1173.33 265.198 1048.16 -71.1869 779.576 -16.8802 c 0
 643.452 10.6433 539.47 141.073 578.33 331.986 c 0
202.114 1186.56 m 0
 137.675 1136.76 153.739 1017.82 240.449 1006.98 c 0
 295.384 1000.11 349.856 1034.75 358.013 1101.38 c 0
 367.686 1180.36 257.133 1229.07 202.114 1186.56 c 0
8.33041 1189.33 m 0
 17.5913 1234.82 40.9756 1272.11 72.297 1299.92 c 0
 176.347 1392.29 369.655 1387.29 463.571 1280.88 c 0
 603.328 1122.54 478.166 786.156 209.575 840.463 c 0
 73.4516 867.986 -30.53 998.416 8.33041 1189.33 c 0
844.484 1309.04 m 0
 877.621 1362.84 939.345 1383.05 983.403 1348.31 c 0
 1019.57 1319.8 1038.49 1260.47 1002.12 1214.81 c 0
 916.365 1107.18 296.783 138.012 228.706 14.9027 c 0
 196.321 -43.6669 124.747 -62.7198 77.3791 -30.2504 c 0
 35.5144 -1.55357 27.7371 57.6973 69.7795 118.908 c 0
 151.758 238.261 751.788 1158.54 844.484 1309.04 c 0
EndSplineSet
EndChar

StartChar: equal
Encoding: 61 61 75
Width: 1116
VWidth: 0
Flags: HW
HStem: 263 136<62.7513 1042.08> 617 136<68.7513 1048.08>
LayerCount: 2
Fore
SplineSet
1012.87 592.006 m 0
 835.281 595.996 272.709 597.956 126.526 593.993 c 0
 49.4078 592.242 2.56222 635.553 6.19866 689.597 c 0
 9.68568 741.421 58.1335 788.664 126.165 783.94 c 0
 267.59 774.119 869.419 764.313 1006.98 777.879 c 0
 1130.98 790.1 1167.79 588.526 1012.87 592.006 c 0
1006.87 238.006 m 0
 829.676 241.987 265.921 243.977 121.117 240.009 c 0
 43.7044 237.889 -3.44176 281.494 0.198664 335.597 c 0
 3.68559 387.419 52.1337 434.666 120.165 429.94 c 0
 261.591 420.119 863.418 410.318 1000.98 423.879 c 0
 1124.97 436.101 1161.79 234.526 1006.87 238.006 c 0
EndSplineSet
EndChar

StartChar: question
Encoding: 63 63 76
Width: 900
VWidth: 0
Flags: HW
HStem: 1296 123<57.0418 556.299>
LayerCount: 2
Fore
SplineSet
587.117 -31.0659 m 0
 509.331 -18.1932 451.167 87.7947 512.484 152.35 c 0
 549.005 190.801 620.97 207.798 665.864 165.093 c 0
 716.618 116.701 713.315 -0.117779 630.581 -27.6961 c 0
 616.196 -32.5767 601.124 -33.3839 587.117 -31.0659 c 0
338.078 355.82 m 0
 243.005 405.259 219.197 510.939 265.558 597.774 c 0
 364.056 782.26 571.398 938.926 663.254 1060.1 c 0
 689.389 1094.58 706.564 1125.01 715.291 1150.52 c 0
 736.643 1212.97 715.674 1253.2 623.606 1284.32 c 0
 491.083 1329.11 255.15 1299.33 114.468 1271.48 c 0
 -19.2958 1244.99 -41.7235 1420.82 88.2943 1443.62 c 0
 302.498 1481.19 501.031 1473.11 645.779 1448.65 c 0
 713.581 1437.19 771.067 1413.19 814.525 1377.96 c 0
 929.441 1284.79 932.823 1123.56 797.023 956.246 c 0
 676.274 807.476 510.223 664.24 437.278 537.527 c 0
 414.193 497.428 430.931 483.19 477.889 450.523 c 0
 511.052 427.452 537.558 396.009 520.32 362.614 c 0
 494.007 311.64 403.986 321.546 338.078 355.82 c 0
EndSplineSet
EndChar

StartChar: exclam
Encoding: 33 33 77
Width: 406
VWidth: 0
Flags: HW
VStem: 120.139 136.05<915.546 1427.26> 136 140.013<334.328 857.24>
LayerCount: 2
Fore
SplineSet
208.505 -30.0659 m 0
 130.718 -17.1932 72.5565 88.7945 133.872 153.35 c 0
 170.393 191.801 242.358 208.798 287.252 166.093 c 0
 338.005 117.7 334.704 0.882152 251.969 -26.6961 c 0
 237.584 -31.5766 222.512 -32.3838 208.505 -30.0659 c 0
95.1604 1383.17 m 0
 92.2646 1453.19 134.501 1491.66 183.62 1487.99 c 0
 232.175 1484.36 285.967 1441.83 281.11 1380.79 c 0
 270.144 1242.97 288.473 536.578 300.916 395.844 c 0
 307.268 324.02 255.426 273.383 200.698 273.797 c 0
 149.944 274.181 110.368 318.958 111.001 393.213 c 0
 112.237 538.229 102.472 1206.37 95.1604 1383.17 c 0
EndSplineSet
EndChar

StartChar: parenleft
Encoding: 40 40 78
Width: 660
VWidth: 0
Flags: HW
HStem: -300 109<553.648 688.605> 1394 106<526.116 637.169>
LayerCount: 2
Fore
SplineSet
623.642 1370.23 m 0
 377.379 1290.05 120.66 995.254 155.828 541.934 c 0
 187.602 132.451 392.376 -103.222 683.224 -166.573 c 0
 728.588 -176.454 744.672 -217.416 737.118 -251.807 c 0
 727.589 -295.191 682.539 -337.845 621.529 -324.415 c 0
 291.592 -251.793 32.6522 22.0036 -11.0097 543.916 c 0
 -54.1733 1059.87 259.956 1445.83 576.897 1524.27 c 0
 625.056 1536.19 661.837 1514.36 673.639 1479.31 c 0
 686.769 1440.32 670.898 1385.61 623.642 1370.23 c 0
EndSplineSet
EndChar

StartChar: parenright
Encoding: 41 41 79
Width: 680
VWidth: 0
Flags: HW
HStem: -294 109<41.0286 161.595> 1393 108<-20.807 100.827>
LayerCount: 2
Fore
SplineSet
-6.13904 1368.96 m 0
 -49.8667 1381.46 -67.0093 1427.87 -60.7337 1464.45 c 0
 -53.9567 1503.95 -17.1775 1535.91 38.3076 1525.58 c 0
 360.458 1465.58 647.124 1063.09 673.679 643.579 c 0
 704.209 161.266 442.52 -244.806 108.104 -318.415 c 0
 47.0923 -331.845 2.04605 -289.19 -7.48459 -245.807 c 0
 -15.0396 -211.417 1.04153 -170.455 46.4087 -160.573 c 0
 332.688 -98.2153 536.213 240.038 506.798 634.14 c 0
 480.617 985.067 253.71 1294.7 -6.13904 1368.96 c 0
EndSplineSet
EndChar

StartChar: asterisk
Encoding: 42 42 80
Width: 687
VWidth: 0
Flags: HW
HStem: 1228 140<62.7476 194.642 484.604 653.236>
LayerCount: 2
Fore
SplineSet
503.781 1208.32 m 1
 521.673 1185.52 537.349 1166.13 554.15 1146.03 c 0
 595.285 1096.83 574.494 1025.5 531.986 995.693 c 0
 494.467 969.386 443.317 979.594 406.588 1032.79 c 0
 383.397 1066.38 360.537 1098.79 339.233 1128.5 c 1
 319.219 1099.78 302.349 1074.69 285.321 1048.25 c 0
 250.59 994.334 176.302 992.945 135.197 1024.66 c 0
 98.9167 1052.65 93.4352 1104.52 133.285 1155.41 c 0
 146.285 1172.02 159.303 1188.82 171.253 1204.38 c 1
 147.66 1203.74 128.342 1202.09 105.593 1203.14 c 0
 -48.7513 1210.21 -20.109 1400.51 119.814 1392.96 c 0
 127.178 1392.57 135.078 1392.16 142.243 1391.81 c 1
 135.768 1400.25 128.74 1409.06 122.916 1417.93 c 0
 35.9236 1550.42 211.308 1631.98 285.005 1517.74 c 0
 302.655 1490.38 321.289 1462.15 340.293 1434.01 c 1
 366.086 1470.28 388.703 1506.99 416.525 1540.87 c 0
 459.922 1593.71 516.629 1600.66 554.287 1569.61 c 0
 594.732 1536.26 604.023 1468.49 560.066 1415.84 c 0
 553.278 1407.71 545.114 1397.85 539.076 1390.51 c 1
 554.177 1391.32 565.449 1392.01 578.73 1392.94 c 0
 701.6 1401.51 738.655 1203.53 583.907 1207.01 c 0
 556.287 1207.63 528.844 1208.06 503.781 1208.32 c 1
EndSplineSet
EndChar

StartChar: numbersign
Encoding: 35 35 81
Width: 1084
VWidth: 0
Flags: HW
HStem: 444.14 125.681<-73.6812 128.851 278.333 630.2 779.111 1079.89> 900.058 128.292<-33.6813 204.477 351.583 705.757 852.519 1119.89>
LayerCount: 2
Fore
SplineSet
254.315 1372.48 m 0
 264.313 1442.52 315.67 1476.7 365.986 1463.45 c 0
 410.522 1451.72 451.538 1404.86 436.387 1348.48 c 0
 426.497 1311.68 405.221 1196.07 381.094 1053.11 c 1
 488.19 1052.31 602.122 1052.21 704.862 1052.91 c 1
 728.893 1201.88 747.48 1319.65 754.851 1371.29 c 0
 764.873 1441.51 815.981 1476.03 866.586 1462.71 c 0
 911.121 1450.98 952.138 1404.12 936.987 1347.74 c 0
 927.086 1310.9 906.27 1197.83 882.171 1055.21 c 1
 963.732 1056.93 1013.14 1062.89 1051.54 1062.27 c 0
 1110.89 1061.31 1151.45 1005.81 1150.56 956.217 c 0
 1149.74 910.466 1111.77 874.508 1047.04 875.962 c 0
 1006.39 876.875 935.513 877.326 852.808 877.411 c 1
 838.006 786.041 822.609 688.648 808.344 596.56 c 1
 905.258 598.228 968.884 604.947 1011.54 604.265 c 0
 1070.89 603.316 1111.45 547.804 1110.56 498.218 c 0
 1109.74 452.467 1071.77 416.508 1007.04 417.962 c 0
 961.473 418.986 877.893 419.426 781.283 419.426 c 1
 752.589 228.747 738.375 95.4515 727.752 36.3812 c 0
 716.191 -27.9025 659.971 -63.7429 609.18 -54.354 c 0
 558.771 -45.0358 528.277 6.68501 541.944 78.9368 c 0
 551.092 126.178 573.73 258.266 600.652 419.03 c 1
 492.312 418.597 379.438 417.848 280.203 416.967 c 1
 252.06 229.861 237.489 94.6005 227.152 37.1166 c 0
 215.592 -27.1674 159.37 -63.0075 108.58 -53.6187 c 0
 58.4282 -44.3479 27.2413 6.989 41.4578 80.2622 c 0
 50.135 124.981 72.3935 254.702 99.2551 415.006 c 1
 34.4049 414.129 5.9154 410.789 -33.8549 413.26 c 0
 -185.732 422.696 -154.944 612.526 -16.268 602.896 c 0
 11.3732 600.977 63.9774 599.237 129.705 597.885 c 1
 144.791 688.983 160.279 783.202 175.013 873.463 c 1
 93.8799 872.472 51.3526 868.451 6.14513 871.26 c 0
 -145.731 880.696 -114.946 1070.52 23.7316 1060.9 c 0
 56.1818 1058.65 121.992 1056.68 204.518 1055.23 c 1
 228.275 1202.5 247 1321.23 254.315 1372.48 c 0
676.336 877.161 m 1
 569.321 876.802 455.211 876.104 351.738 875.239 c 1
 336.924 783.761 321.582 686.643 307.45 595.388 c 1
 412.002 594.45 524.54 594.183 629.9 594.704 c 1
 645.496 688.872 661.469 786.066 676.336 877.161 c 1
EndSplineSet
EndChar

StartChar: less
Encoding: 60 60 82
Width: 918
VWidth: 0
Flags: HW
LayerCount: 2
Fore
SplineSet
766.022 92.5685 m 0
 573.928 156.266 277.894 285.334 92.5166 380.035 c 0
 14.9647 419.652 -11.5248 568.156 97.3179 618.953 c 0
 322.839 724.203 532.592 812.515 777.154 903.722 c 0
 870.616 938.578 949.015 789.774 836.806 746.942 c 0
 613.464 661.688 438.562 587.669 250.589 497.094 c 1
 403.636 416.757 655.396 308.542 829.657 256.069 c 1
 950.674 218.576 877.531 55.5927 766.022 92.5685 c 0
EndSplineSet
EndChar

StartChar: greater
Encoding: 62 62 83
Width: 918
VWidth: 0
Flags: HW
LayerCount: 2
Fore
SplineSet
152.153 80.2705 m 0
 39.904 43.0498 -32.1528 207.508 89.0901 243.943 c 0
 261.857 295.862 516.614 405.548 667.586 484.796 c 1
 477.57 576.354 305.676 648.987 80.8008 734.861 c 0
 31.6357 754.132 16.9824 796.23 29.4894 832.096 c 0
 43.6582 872.727 91.2736 909.232 140.572 891.592 c 0
 388.067 799.255 594.722 712.19 820.857 606.655 c 0
 847.399 594.269 866.665 574.514 878.386 551.829 c 0
 911.205 488.311 888.663 399.924 825.659 367.737 c 0
 640.282 273.035 344.247 143.967 152.153 80.2705 c 0
EndSplineSet
EndChar

StartChar: underscore
Encoding: 95 95 84
Width: 1085
VWidth: 0
Flags: HW
HStem: -139.346 140<-57.6812 1129.72>
LayerCount: 2
Fore
SplineSet
1088.44 -160.994 m 0
 911.6 -157.021 145.599 -160.366 0.684402 -164.337 c 0
 -76.7286 -166.457 -123.875 -122.852 -120.234 -68.7488 c 0
 -116.747 -16.9266 -68.2993 30.3201 -0.26806 25.5942 c 0
 140.835 15.7955 944.397 11.4065 1083.06 24.9293 c 1
 1207.12 35.9702 1242.74 -164.46 1088.44 -160.994 c 0
EndSplineSet
EndChar

StartChar: bar
Encoding: 124 124 85
Width: 420
VWidth: 0
Flags: HW
VStem: 140.074 140.001<-236.681 1535.72>
LayerCount: 2
Fore
SplineSet
117.08 1494.44 m 0
 115.517 1564 157.892 1601.83 206.759 1597.64 c 0
 255.509 1593.46 308.989 1549.76 302.953 1488.55 c 0
 289.468 1351.77 295.286 -39.171 305.015 -179.268 c 0
 310.031 -251.461 257.086 -300.845 202.513 -299.402 c 0
 151.775 -298.061 113.051 -252.545 115.083 -178.315 c 0
 119.045 -33.7143 121.051 1317.74 117.08 1494.44 c 0
EndSplineSet
EndChar

StartChar: ampersand
Encoding: 38 38 86
Width: 1097
VWidth: 0
Flags: HW
LayerCount: 2
Fore
SplineSet
419.446 967.364 m 1
 510.802 1032.21 581.264 1067.44 625.755 1139.18 c 0
 674.779 1218.22 586.527 1323.71 511.568 1322.01 c 0
 392.787 1319.31 286.151 1211.89 319.008 1134.58 c 0
 345.51 1072.23 382.338 1030.69 419.446 967.364 c 1
933.638 192.894 m 1
 979.91 133.461 1025.76 76.0292 1074.86 15.7965 c 0
 1138.03 -61.6976 1015.34 -176.124 949.001 -93.6718 c 0
 901.232 -34.3034 853.031 27.2736 807.761 86.6462 c 1
 731.863 32.1399 653.881 -7.17272 574.808 -24.4254 c 0
 498.231 -41.1335 421.353 -49.271 349.33 -43.9639 c 0
 142.527 -28.7253 -16.9078 102.569 7.54935 429.067 c 0
 22.5495 629.313 151.757 759.751 288.391 868.362 c 1
 231.922 968.971 183.17 1032.99 158.106 1114.45 c 0
 149.535 1142.3 146.245 1170.26 147.859 1197.45 c 0
 157.442 1358.92 333.107 1481.28 551.522 1467.95 c 0
 739.831 1456.46 834.536 1257.93 778.519 1102.52 c 0
 734.135 979.389 614.748 917.943 496.196 829.107 c 1
 588.59 669.269 700.719 502.634 828.056 331.515 c 1
 862.301 366.863 894.638 402.586 928.838 440.858 c 0
 1006.5 527.765 1130.99 422.295 1063.07 336.665 c 0
 1022.6 285.632 977.965 235.938 933.638 192.894 c 1
368.864 727.06 m 1
 257.879 630.512 173.514 527.034 165.436 389.732 c 0
 151.769 157.378 314.794 65.2521 559.246 139.131 c 0
 609.2 154.229 659.585 183.612 707.467 220.868 c 1
 577.664 398.233 462.193 570.426 368.864 727.06 c 1
EndSplineSet
EndChar

StartChar: asciicircum
Encoding: 94 94 87
Width: 703
VWidth: 0
Flags: HW
LayerCount: 2
Fore
SplineSet
13.8052 1067.43 m 1
 79.8502 1177.77 155.91 1289.62 244.497 1451.97 c 0
 285.968 1527.98 405.977 1549.06 463.181 1448.35 c 0
 547.088 1300.63 619.445 1179.86 691.951 1058.85 c 0
 717.138 1016.82 689.609 973.312 657.531 954.873 c 0
 620.717 933.713 565.665 937.735 534.815 991.57 c 0
 489.562 1070.54 419.857 1176.54 351.552 1295.17 c 1
 279.474 1167.9 223.38 1077.7 167.342 993.185 c 0
 103.359 896.684 -49.1072 960.241 13.8052 1067.43 c 1
EndSplineSet
EndChar

StartChar: at
Encoding: 64 64 88
Width: 1471
VWidth: 0
Flags: HW
HStem: -249.256 118.182<500.474 728.8>
LayerCount: 2
Fore
SplineSet
1189.45 188.494 m 0
 1259.48 183.707 1318.25 333.242 1300.11 530.74 c 0
 1275.18 802.277 1109.11 1112.68 691.112 1073.99 c 0
 275.331 1035.5 165.267 679.795 168.204 430.178 c 0
 171.74 129.627 453.514 -106.074 672.877 -106.074 c 0
 734.903 -106.074 783.429 -141.933 785.096 -190.326 c 0
 786.762 -238.712 740.54 -272.059 672.883 -274.243 c 0
 386.665 -283.481 30.9578 -29.2134 2.26147 401.221 c 0
 -23.3607 785.547 169.047 1197.35 696.049 1243.79 c 0
 726.703 1246.42 751.233 1247.5 778.36 1247.59 c 0
 1285.35 1249.45 1470.82 833.303 1471.88 487.086 c 0
 1472.64 236.507 1378.23 -9 1209.21 -9 c 0
 1099.84 -9 1035.43 64.8304 1001.89 162.567 c 1
 926.994 54.7653 832.551 -4.79553 735.899 -26.7197 c 0
 519.175 -75.8809 293.074 62.5108 252.301 244.535 c 0
 178.443 574.256 365.05 901.516 692.853 980.308 c 0
 908.236 1032.08 1005 963.42 1047.88 857.369 c 0
 1054.38 841.292 1053.55 822.888 1049.77 810.234 c 1
 1063.94 796.912 1072.23 777.814 1073.57 755.494 c 0
 1094.35 408.611 1151.69 191.076 1189.45 188.494 c 0
906.597 757.148 m 1
 858.382 791.879 893.57 826.87 757.795 820.407 c 0
 729.262 819.049 698.994 810.827 668.597 796.483 c 0
 498.563 716.245 346.951 457.095 441.201 258.079 c 0
 461.364 215.503 493.255 182.429 531.779 161.247 c 0
 636.218 103.823 795.77 131.274 900.587 322.761 c 0
 933.954 383.727 929.012 566.216 905.869 724.382 c 0
 904.213 735.705 904.851 748.232 906.597 757.148 c 1
EndSplineSet
EndChar

StartChar: singlestorya
Encoding: 65536 -1 89
Width: 975
VWidth: 0
Flags: HW
LayerCount: 2
Fore
SplineSet
769.546 205.829 m 1
 694.173 70.8719 590.234 -0.684158 481.825 -24.7282 c 0
 275.299 -70.5333 57.8547 58.4381 16.0784 247.609 c 0
 -56.8451 577.818 128.781 903.957 456.807 983.347 c 0
 673.562 1035.06 768.882 966.203 811.668 860.369 c 0
 818.166 844.294 817.344 825.895 813.567 813.236 c 1
 827.736 799.906 836.02 780.811 837.355 758.494 c 0
 857.374 424.06 873.765 331.09 993.094 155.027 c 0
 1029.77 100.919 1021.46 -10.8029 963.751 -24.6807 c 0
 951.064 -27.7316 937.924 -25.0352 926.703 -19.0947 c 0
 856.111 18.2774 817.031 107.4 769.546 205.829 c 1
670.39 760.149 m 1
 622.177 794.878 657.364 829.87 521.589 823.407 c 0
 493.056 822.049 462.788 813.827 432.391 799.483 c 0
 262.355 719.244 110.747 460.097 204.995 261.079 c 0
 225.067 218.693 256.764 185.726 295.055 164.533 c 0
 399.769 106.577 559.022 134.144 664.396 325.784 c 0
 697.99 387.952 692.769 569.469 669.664 727.38 c 0
 668.007 738.704 668.644 751.231 670.39 760.149 c 1
EndSplineSet
EndChar

StartChar: bracketleft
Encoding: 91 91 90
Width: 606
VWidth: 0
Flags: HW
HStem: -325 126<186 586.637> 1496 128<179.133 567.642>
VStem: 48 138<-202.91 1496>
LayerCount: 2
Fore
SplineSet
21.0063 1503.44 m 0
 20.2083 1538.95 24.7444 1644.26 157.109 1648.98 c 0
 243.446 1652.06 476.653 1643.13 536.892 1640.98 c 0
 599.899 1638.74 635.399 1599.94 632.644 1555.19 c 0
 629.89 1510.47 590.225 1466.66 534.364 1470.32 c 0
 438.093 1476.64 263.92 1473.19 203.568 1471.66 c 1
 195.65 1104.21 201.934 22.4719 209.973 -177.771 c 1
 269.044 -183.06 442.43 -187.643 553.865 -178.091 c 0
 657.667 -169.194 666.193 -356.679 553.405 -353.993 c 0
 468.759 -351.977 281.323 -342.078 141.406 -349.96 c 0
 53.0516 -354.938 23 -286.049 23 -199 c 0
 23 -53.1072 24.9832 1326.47 21.0063 1503.44 c 0
EndSplineSet
EndChar

StartChar: bracketright
Encoding: 93 93 91
Width: 606
VWidth: 0
Flags: HW
HStem: -327 126<19.5668 420.204> 1495.27 120.73<38.5616 427.071>
VStem: 420.204 138<-200.91 1496>
LayerCount: 2
Fore
SplineSet
583.204 -197 m 0
 583.204 -285.195 552.595 -352.906 464.798 -347.96 c 0
 324.881 -340.078 137.445 -349.977 52.7992 -351.993 c 0
 -61.2216 -354.708 -50.3476 -167.289 52.3391 -176.091 c 0
 163.8 -185.645 339.038 -180.892 396.231 -175.771 c 1
 404.335 25.9999 410.506 1106.45 402.636 1471.66 c 1
 340.237 1473.24 168.198 1476.64 71.8392 1470.32 c 0
 15.3733 1466.62 -24.5792 1511.4 -26.5199 1556.72 c 0
 -28.4162 1601 7.16543 1638.77 69.3127 1640.98 c 0
 129.549 1643.13 362.759 1652.06 449.096 1648.98 c 0
 581.453 1644.26 585.995 1538.95 585.198 1503.44 c 0
 581.222 1326.47 583.204 -51.1069 583.204 -197 c 0
EndSplineSet
EndChar

StartChar: grave
Encoding: 96 96 92
Width: 485
VWidth: 0
Flags: HW
LayerCount: 2
Fore
SplineSet
23.0255 1368.38 m 0
 -59.3896 1445.59 84.0987 1572.38 167.296 1480.31 c 0
 276.175 1359.81 361.048 1266.95 459.939 1161.06 c 0
 490.704 1128.12 494.074 1085.34 468.259 1058.12 c 0
 436.755 1024.9 379.303 1028.82 334.357 1071.96 c 0
 233.225 1169.04 164.462 1235.86 23.0255 1368.38 c 0
EndSplineSet
EndChar

StartChar: braceleft
Encoding: 123 123 93
Width: 753
VWidth: 0
Flags: HW
HStem: -225 138<391.88 697.682> 606 147<53.5045 206.536> 1503 129<390.989 699.015>
LayerCount: 2
Fore
SplineSet
636.206 1478.43 m 0
 529.086 1498.52 434.75 1504.64 402.806 1430.18 c 0
 298.022 1183.5 513.102 920.843 323.735 679.627 c 1
 493.05 495.399 292.891 205.352 399.268 -13.0073 c 0
 439.417 -94.6105 543.972 -82.6475 657.417 -62.3893 c 0
 777.35 -40.9732 782.04 -241.476 663.595 -249.936 c 0
 500.045 -261.618 338.758 -252.085 244.551 -100.148 c 0
 124.327 94.8714 230.725 266.428 213.908 459.834 c 0
 207.126 537.832 182.877 589.014 91.78 581.094 c 0
 -10.7712 572.179 -42.9012 768.98 68.8209 777.92 c 0
 152.962 784.654 201.068 799.776 214.54 854.982 c 0
 272.333 1087.32 106.455 1281.12 237.901 1521.03 c 0
 326.651 1682.62 520.327 1693.48 673.704 1656.3 c 0
 800.153 1625.64 765.112 1454.25 636.206 1478.43 c 0
EndSplineSet
EndChar

StartChar: braceright
Encoding: 125 125 94
Width: 754
VWidth: 0
Flags: HW
HStem: -229 138<52.1318 366.463> 596 147<548.293 701.309> 1495 129<55.7988 363.906>
LayerCount: 2
Fore
SplineSet
118.608 1470.43 m 0
 -9.2297 1446.45 -46.4299 1617.38 81.1099 1648.3 c 0
 234.477 1685.48 428.337 1674.68 516.953 1512.96 c 0
 648.519 1272.11 481.698 1078.33 540.261 845.032 c 0
 553.899 789.718 601.873 774.652 685.994 767.92 c 0
 797.983 758.958 765.346 562.199 663.033 571.094 c 0
 571.932 579.014 547.687 527.833 540.906 449.834 c 0
 524.108 256.611 631.788 82.8004 510.137 -110.35 c 0
 413.729 -262.63 248.897 -265.556 86.2188 -253.936 c 0
 17.9977 -249.064 -6.74184 -180.572 1.66391 -132.796 c 0
 8.38147 -94.6155 40.3465 -57.0951 92.3948 -66.3893 c 0
 207.318 -86.912 315.025 -104.846 355.609 -22.8794 c 0
 463.983 194.746 262.551 486.079 431.084 669.624 c 1
 240.858 911.922 457.01 1174.49 351.997 1422.21 c 0
 320.219 1496.62 225.756 1490.52 118.608 1470.43 c 0
EndSplineSet
EndChar

StartChar: asciitilde
Encoding: 126 126 95
Width: 1227
VWidth: 0
Flags: HW
LayerCount: 2
Fore
SplineSet
1171.49 492.335 m 0
 1001.33 350.721 807.969 362.403 613.174 446.027 c 0
 418.698 529.514 268.177 541.202 114.249 423.162 c 0
 79.0581 396.174 38.5574 402.478 17.211 431.9 c 0
 -13.1088 473.691 -5.93267 549.847 54.0451 592.955 c 0
 237.516 724.819 446.248 710.909 647.643 627.08 c 0
 817.711 556.292 938.381 537.608 1125.18 662.035 c 0
 1154.78 681.754 1189.85 685.45 1211.39 660.179 c 0
 1246.91 618.509 1224.63 536.57 1171.49 492.335 c 0
EndSplineSet
EndChar

StartChar: exclamdown
Encoding: 161 161 96
Width: 406
VWidth: 0
Flags: HW
VStem: 137.99 136.05<128.005 639.723> 153.851 140.012<-453.213 69.6993>
LayerCount: 2
Fore
SplineSet
187.545 779.934 m 0
 109.756 792.807 51.5982 898.794 112.912 963.35 c 0
 149.432 1001.8 221.398 1018.8 266.292 976.093 c 0
 317.048 927.698 313.748 810.883 231.001 783.302 c 0
 216.632 778.426 201.549 777.617 187.545 779.934 c 0
113.011 595.625 m 0
 110.116 665.647 152.352 704.119 201.47 700.448 c 0
 250.026 696.82 303.818 654.283 298.961 593.246 c 0
 287.995 455.425 306.323 -250.964 318.766 -391.698 c 0
 325.118 -463.521 273.276 -514.159 218.549 -513.745 c 0
 167.795 -513.36 128.219 -468.583 128.852 -394.328 c 0
 130.089 -249.312 120.323 418.831 113.011 595.625 c 0
EndSplineSet
EndChar

StartChar: cent
Encoding: 162 162 97
Width: 875
VWidth: 0
Flags: HW
VStem: 397 136.05<1000.73 1180.06> 422.482 140.013<-231.42 -29.0901>
LayerCount: 2
Fore
SplineSet
371.997 1136.57 m 0
 369.528 1206.26 411.4 1244.46 460.481 1240.79 c 0
 509.034 1237.16 562.83 1194.63 557.971 1133.59 c 0
 547.047 996.348 574.989 -29.5596 587.398 -169.904 c 0
 593.748 -241.728 541.91 -292.365 487.18 -291.951 c 0
 436.425 -291.567 396.851 -246.79 397.483 -172.535 c 0
 398.718 -27.452 379.332 958.396 371.997 1136.57 c 0
687.471 803.563 m 0
 650.13 825.966 518.681 855.367 425.603 827.08 c 0
 235.436 769.288 119.017 515.473 203.961 334.628 c 0
 283.612 165.053 474.942 80.2973 761.211 178.644 c 0
 879.353 219.229 921.207 56.2872 807.798 15.4767 c 0
 523.434 -86.8528 131.311 -52.0396 22.8765 314.207 c 0
 -53.6878 572.81 61.8784 903.195 371.547 994.659 c 0
 529.916 1040.56 733.715 994.183 790.037 953.218 c 0
 886.966 882.72 783.76 745.792 687.471 803.563 c 0
EndSplineSet
EndChar

StartChar: Euro
Encoding: 8364 8364 98
Width: 1378
VWidth: 0
Flags: HW
HStem: 482 136<79.7516 835.081> 836 136<62.7516 879.081>
LayerCount: 2
Fore
SplineSet
843.87 811.006 m 0
 666.103 815 266.84 816.969 120.527 812.993 c 0
 43.4083 811.242 -3.43782 854.552 0.198664 908.597 c 0
 3.6857 960.421 52.1335 1007.66 120.165 1002.94 c 0
 262.149 993.08 700.04 983.276 837.98 996.879 c 0
 961.974 1009.1 998.792 807.526 843.87 811.006 c 0
799.87 457.006 m 0
 622.406 460.993 283.12 462.98 138.117 459.009 c 0
 60.7044 456.889 13.5582 500.494 17.1987 554.597 c 0
 20.6857 606.421 69.1335 653.664 137.165 648.94 c 0
 279.426 639.061 655.856 629.258 793.98 642.879 c 0
 917.974 655.099 954.792 453.526 799.87 457.006 c 0
1027.29 1278.38 m 0
 966.523 1320.05 876.021 1324.08 762.847 1293.84 c 0
 403.864 1199.36 255.463 673.688 393.857 393.053 c 0
 402.761 374.989 412.321 358.047 422.479 342.175 c 0
 600.057 64.6929 976.274 100.083 1253.97 278.069 c 0
 1338.34 331.636 1430.73 201.934 1348.6 139.129 c 0
 1281.29 87.7373 1207.85 47.4743 1131.65 18.2646 c 0
 762.024 -123.42 321.642 -4.17622 203.512 375.489 c 0
 103.428 697.158 190.911 1295.54 688.074 1449.89 c 0
 851.834 1500.37 1040.03 1489.5 1122.45 1427.98 c 0
 1223.53 1351.55 1131.66 1206.9 1027.29 1278.38 c 0
EndSplineSet
EndChar

StartChar: yen
Encoding: 165 165 99
Width: 1160
VWidth: 0
Flags: HW
HStem: 307.946 126.889<223.324 573.117 772.874 1164.67> 535.712 126.066<221.324 525.536 862.222 1163.29>
LayerCount: 2
Fore
SplineSet
592.502 4.19443 m 0
 587.09 -5.90832 581.031 -14.7965 574.36 -22.4758 c 0
 491.378 -117.997 342.856 6.54272 418.326 91.8573 c 0
 452.28 130.241 496.412 209.352 532.906 282.668 c 1
 423.795 281.849 333.046 280.672 281.689 279.265 c 0
 204.276 277.145 157.13 320.75 160.771 374.853 c 0
 164.258 426.675 212.706 473.922 280.737 469.196 c 0
 339.357 465.125 466.446 461.677 602.248 460.144 c 1
 594.107 477.647 586.114 494.201 578.294 509.991 c 1
 450.012 509.2 338.342 507.871 279.689 506.265 c 0
 202.276 504.145 155.13 547.75 158.771 601.853 c 0
 162.258 653.677 210.706 700.92 278.737 696.196 c 0
 319.552 693.362 395.866 690.748 482.241 688.987 c 1
 335.207 946.057 141.478 1226.46 23.5352 1357.66 c 1
 -56.5027 1448.35 76.5443 1593.61 164.102 1482.47 c 0
 306.764 1301.4 529.295 961.869 677.708 686.485 c 1
 689.271 686.419 701.622 686.364 711.481 686.331 c 1
 832.77 982.741 950.402 1303.91 959.634 1382.9 c 0
 967.985 1454.36 1035.19 1482.67 1088.73 1465.63 c 0
 1140.31 1449.21 1176.97 1392.54 1152.27 1315.38 c 0
 1119.66 1213.43 1013.51 952.388 900.316 687.259 c 1
 988.773 688.603 1049.01 695.686 1094.91 694.965 c 0
 1154.39 694.032 1195.03 638.297 1193.96 588.593 c 0
 1192.97 542.95 1154.98 507.212 1090.44 508.662 c 0
 1029.96 510.021 930.648 510.649 824.125 510.707 c 1
 816.022 492.14 808.511 474.991 801.638 459.346 c 1
 924.726 459.823 1034.33 462.387 1086.55 467.535 c 0
 1210.54 479.761 1247.36 278.182 1092.44 281.662 c 0
 1012.99 283.447 868.111 283.958 723.014 283.604 c 1
 680.052 189.361 632.024 77.9675 592.502 4.19443 c 0
EndSplineSet
EndChar

StartChar: uni00AD
Encoding: 173 173 100
Width: 650
VWidth: 0
Flags: HW
HStem: 470.189 140<57.7516 593.151>
LayerCount: 2
Fore
SplineSet
551.866 447.596 m 0
 374.326 451.585 262.071 449.195 116.117 445.198 c 0
 38.7044 443.078 -8.44175 486.683 -4.80134 540.786 c 0
 -1.31432 592.61 47.1335 639.853 115.165 635.129 c 0
 258.617 625.167 406.308 619.695 545.975 633.469 c 0
 669.969 645.69 706.787 444.116 551.866 447.596 c 0
EndSplineSet
EndChar

StartChar: macron
Encoding: 175 175 101
Width: 695
VWidth: 0
Flags: HW
HStem: 1330.2 117<59.3846 638.872>
LayerCount: 2
Fore
SplineSet
591.87 1305.21 m 0
 414.23 1309.2 267.794 1305.22 120.597 1301.2 c 0
 47.8461 1299.51 -3.40369 1334.5 0.166338 1387.17 c 0
 3.55606 1437.19 54.7167 1476.69 120.165 1472.14 c 0
 263.122 1462.2 446.416 1458.32 585.979 1472.08 c 0
 648.265 1478.22 696.134 1427.84 695.401 1378.23 c 0
 694.741 1333.58 654.033 1303.81 591.87 1305.21 c 0
EndSplineSet
EndChar

StartChar: degree
Encoding: 176 176 102
Width: 520
VWidth: 0
Flags: HW
LayerCount: 2
Fore
SplineSet
175.661 1377.51 m 0
 103.574 1321.43 136.364 1174.04 225.416 1161.77 c 0
 323.082 1148.3 377.584 1182.06 379.003 1281.36 c 0
 379.474 1314.37 370.013 1339.66 355.167 1358.81 c 0
 315.255 1410.28 230.627 1420.26 175.661 1377.51 c 0
8.3304 1364.99 m 0
 17.5913 1410.48 40.9756 1447.77 72.297 1475.58 c 0
 176.347 1567.95 369.655 1562.95 463.571 1456.54 c 0
 603.099 1298.46 478.651 962.549 210.369 1015.96 c 0
 73.87 1043.14 -30.6077 1173.69 8.3304 1364.99 c 0
EndSplineSet
EndChar

StartChar: plusminus
Encoding: 177 177 103
Width: 957
VWidth: 0
Flags: HW
HStem: 48.1895 139.999<67.7516 890.151> 470.189 140<67.7516 890.151>
VStem: 423.557 135.976<253.175 842.986>
LayerCount: 2
Fore
SplineSet
851.147 25.5449 m 0
 673.473 29.5376 271.355 27.1781 126.117 23.1989 c 0
 48.7044 21.0786 1.55824 64.6831 5.19866 118.786 c 0
 8.6856 170.608 57.1337 217.855 125.165 213.129 c 0
 266.872 203.289 704.761 197.843 842.975 211.469 c 0
 965.901 223.586 1004.42 22.1007 851.147 25.5449 c 0
398.561 296.619 m 0
 401.645 473.912 396.787 641.44 392.047 787.344 c 0
 389.531 864.789 432.919 912.111 487.019 908.746 c 0
 538.858 905.523 586.352 857.315 581.969 789.261 c 0
 572.778 646.41 569.948 442.81 584.4 303.452 c 0
 597.239 179.652 395.863 141.573 398.561 296.619 c 0
848.866 447.596 m 0
 671.75 451.575 271.355 449.176 126.117 445.198 c 0
 48.7044 443.078 1.55826 486.683 5.19866 540.786 c 0
 8.68569 592.61 57.1335 639.853 125.165 635.129 c 0
 266.871 625.289 704.763 619.839 842.975 633.469 c 0
 966.969 645.69 1003.79 444.116 848.866 447.596 c 0
EndSplineSet
EndChar

StartChar: guillemotleft
Encoding: 171 171 104
Width: 736
VWidth: 0
Flags: HW
LayerCount: 2
Fore
SplineSet
592.096 125.154 m 0
 533.058 197.198 434.026 319.228 377.001 386.072 c 0
 303.237 472.538 295.39 506.541 380.571 612.006 c 0
 448.895 696.6 519.238 785.032 611.708 889.564 c 0
 637.118 918.289 674.184 913.287 697.599 895.086 c 0
 735.744 865.437 756.398 796.783 711.034 739.482 c 0
 657.553 671.929 586.404 582.08 520.152 500.233 c 1
 576.744 429.777 652.858 334.264 703.135 277.59 c 0
 751.509 223.061 732.412 146.242 692.141 112.946 c 0
 664.064 89.7311 621.614 89.1337 592.096 125.154 c 0
276.096 125.154 m 0
 217.06 197.199 118.026 319.228 61.0004 386.072 c 0
 -12.7634 472.537 -20.6108 506.542 64.571 612.006 c 0
 132.896 696.6 203.24 785.03 295.708 889.564 c 0
 321.117 918.289 358.184 913.286 381.599 895.086 c 0
 419.745 865.436 440.397 796.784 395.034 739.482 c 0
 341.555 671.928 270.406 582.078 204.152 500.233 c 1
 260.744 429.777 336.859 334.266 387.135 277.59 c 0
 435.508 223.06 416.413 146.243 376.141 112.946 c 0
 348.064 89.7316 305.614 89.133 276.096 125.154 c 0
EndSplineSet
EndChar

StartChar: guillemotright
Encoding: 187 187 105
Width: 736
VWidth: 0
Flags: HW
LayerCount: 2
Fore
SplineSet
144.322 125.154 m 0
 113.958 88.1001 70.3834 90.0697 42.4216 114.524 c 0
 3.60789 148.469 -14.4229 223.812 33.2835 277.59 c 0
 83.3218 333.998 160.989 431.415 216.266 500.233 c 1
 148.678 583.726 79.1139 671.612 25.3843 739.482 c 0
 -18.1982 794.534 -0.669968 860.076 34.224 891.253 c 0
 57.5638 912.106 97.2118 920.65 124.71 889.564 c 0
 217.179 785.031 287.523 696.6 355.847 612.006 c 0
 441.028 506.541 433.181 472.538 359.417 386.072 c 0
 302.392 319.228 203.358 197.199 144.322 125.154 c 0
460.322 125.154 m 0
 429.958 88.1001 386.383 90.0697 358.421 114.524 c 0
 319.608 148.469 301.577 223.812 349.283 277.59 c 0
 399.321 333.998 476.989 431.415 532.266 500.233 c 1
 464.68 583.728 395.114 671.612 341.384 739.482 c 0
 297.802 794.535 315.33 860.076 350.224 891.253 c 0
 373.564 912.106 413.212 920.65 440.71 889.564 c 0
 533.178 785.03 603.521 696.599 671.846 612.006 c 0
 757.029 506.544 749.182 472.534 675.417 386.072 c 0
 618.39 319.229 519.358 197.199 460.322 125.154 c 0
EndSplineSet
EndChar

StartChar: logicalnot
Encoding: 172 172 106
Width: 1085
VWidth: 0
Flags: HW
HStem: 449.654 133.936<85.8188 926.5>
VStem: 928.5 120<75.1551 449.654>
LayerCount: 2
Fore
SplineSet
903.5 119.654 m 0
 903.5 270.323 901.733 294.767 901.519 424.615 c 1
 780.708 424.412 259.245 423.349 144.184 420.198 c 0
 66.7715 418.078 19.6255 461.683 23.266 515.786 c 0
 26.753 567.61 75.2007 614.853 143.232 610.129 c 0
 284.643 600.309 811.084 594.864 949.042 608.469 c 0
 991.395 612.643 1067.27 608.951 1071.47 520.843 c 0
 1073.57 476.863 1072.39 159.581 1073.49 112.235 c 0
 1076.33 -10.0794 903.5 -6.4446 903.5 119.654 c 0
EndSplineSet
EndChar

StartChar: registered
Encoding: 174 174 107
Width: 1461
VWidth: 0
Flags: HW
HStem: 0 118.182<503.297 970.444> 1365.36 103.56<512.058 951.432>
VStem: 408.711 125.522<766 1075.11> 428.408 131.825<237.391 595.154> 1310.63 125.5<467.083 997.315>
LayerCount: 2
Fore
SplineSet
705.163 1513.17 m 0
 734.994 1516.86 761.67 1506.83 778.959 1493.8 c 1
 1226.63 1485.33 1470.81 1131.45 1461.12 734.919 c 0
 1446.2 123.705 1062.59 -25 718.634 -25 c 0
 374.893 -25 24.6956 229.276 1.66928 661.027 c 0
 -18.7733 1044.33 148.472 1444.29 705.163 1513.17 c 0
687.072 1331.41 m 0
 243.285 1301.66 167.634 968.867 167.634 689.358 c 0
 167.634 388.814 432.322 139.609 719.123 143.18 c 0
 971.63 146.324 1278.57 241.431 1286.03 730.347 c 0
 1291.32 1077.1 1101.76 1334.76 715.981 1340.32 c 1
 706.115 1337.01 701.229 1332.31 687.072 1331.41 c 0
548.791 1046.42 m 1
 548.461 987.634 554.535 912.408 558.599 780.107 c 1
 680.904 764.415 785.97 751.335 873.074 805.257 c 0
 935.923 844.163 941.314 928.894 853.373 993.896 c 0
 774.126 1052.47 667.039 1062.74 548.791 1046.42 c 1
384.44 1047.68 m 1
 303.419 1050.52 298.062 1177.53 374.646 1191.64 c 0
 384.464 1193.44 395.746 1195.47 405.22 1197.13 c 1
 434.222 1222.88 484.835 1223.76 513.809 1213.72 c 1
 668.04 1234.25 845.322 1225.93 990.574 1113.79 c 0
 1109.92 1021.66 1144.81 852.878 1050.51 730.849 c 0
 960.155 613.91 831.866 591.99 729.217 598.411 c 1
 830.414 488.819 854.428 437.012 1030.51 314.523 c 0
 1052.56 299.183 1060.92 268.182 1044.68 241.266 c 0
 1018.8 198.348 944.246 170.699 875.248 212.637 c 0
 702.848 317.424 657.252 378.438 575.146 506.479 c 1
 579.154 391.544 583.01 301.18 585.166 271.832 c 0
 589.354 214.804 533.527 189.356 492.313 190.315 c 0
 449.895 191.301 401.653 220.302 403.418 281.294 c 0
 405.68 359.335 389.863 846.074 384.44 1047.68 c 1
EndSplineSet
EndChar

StartChar: acute
Encoding: 180 180 108
Width: 485
VWidth: 0
Flags: HW
LayerCount: 2
Fore
SplineSet
464.578 1376.03 m 0
 322.346 1242.77 252.61 1175.04 151.481 1077.96 c 0
 108.014 1036.24 53.2486 1031.2 20.8655 1060.89 c 0
 -8.10368 1087.45 -6.31979 1132.57 25.8983 1167.06 c 0
 124.79 1272.95 209.66 1365.81 318.541 1486.31 c 0
 401.135 1577.71 545.52 1451.87 464.578 1376.03 c 0
EndSplineSet
EndChar

StartChar: dieresis
Encoding: 168 168 109
Width: 502
VWidth: 0
Flags: HW
LayerCount: 2
Fore
SplineSet
379.838 1417.31 m 0
 296.603 1425.3 232.922 1551.41 297.347 1614.6 c 0
 332.484 1649.05 401.952 1665.03 442.784 1622.75 c 0
 488.552 1575.35 506.27 1452.45 416.926 1421.74 c 0
 404.604 1417.5 391.944 1416.15 379.838 1417.31 c 0
117.138 1412.93 m 0
 34.1552 1420.89 -29.7474 1547.06 34.6467 1610.22 c 0
 69.7838 1644.67 139.252 1660.65 180.084 1618.37 c 0
 225.852 1570.97 243.569 1448.07 154.226 1417.36 c 0
 141.904 1413.12 129.244 1411.77 117.138 1412.93 c 0
EndSplineSet
EndChar

StartChar: periodcentered
Encoding: 183 183 110
Width: 299
VWidth: 0
Flags: HW
LayerCount: 2
Fore
SplineSet
153.497 412.313 m 0
 69.8388 420.338 6.08759 545.928 71.0059 609.594 c 0
 106.143 644.053 175.611 660.03 216.443 617.745 c 0
 262.213 570.346 279.928 447.452 190.585 416.738 c 0
 178.263 412.502 165.603 411.151 153.497 412.313 c 0
EndSplineSet
EndChar

StartChar: oe
Encoding: 339 339 116
Width: 1726
VWidth: 0
Flags: HW
HStem: -18 123.011<360.353 689.194> 491.191 117.437<920.43 1384.22>
VStem: 1543 122<660.39 815.928>
LayerCount: 2
Fore
SplineSet
1025.06 457.171 m 1
 1030.65 341.862 1080.42 233.227 1171.54 173.957 c 0
 1303.13 88.3619 1490.93 155.762 1584.3 239.6 c 0
 1669.54 316.152 1774.89 206.963 1700.06 118.819 c 0
 1602.96 4.46305 1324.66 -103.592 1118.97 -3.47875 c 0
 837.057 133.732 765.356 552.252 949.677 809.559 c 0
 1055.7 957.563 1211.5 1014.36 1351.7 1009.62 c 0
 1532.75 1003.49 1702.01 894.672 1689.34 728.465 c 0
 1671.27 491.648 1377.54 430.232 1025.06 457.171 c 1
1047.55 619.833 m 1
 1115.1 613.334 1178.45 611.366 1235.45 613.629 c 0
 1426.01 621.195 1520.35 675.42 1518.02 734.007 c 0
 1517.32 751.53 1511.11 767.44 1499.7 782.189 c 0
 1446.3 851.206 1280.2 879.211 1164.23 789.247 c 0
 1109.49 746.775 1070.28 686.877 1047.55 619.833 c 1
464.332 1012.9 m 0
 493.856 1015.58 520.199 1006.47 538.34 992.635 c 1
 824.668 960.915 1002.57 781.769 1011.89 493.02 c 0
 1021.24 203.775 848.931 -33.5179 555.401 -42.987 c 0
 271.586 -52.1427 24.6871 132.098 1.66077 448.184 c 0
 -20.8498 757.193 188.999 987.872 464.332 1012.9 c 0
432.43 830.997 m 1
 277.639 781.589 177.969 643.027 179.594 474.24 c 0
 181.497 276.297 363.32 102.789 576.075 132.62 c 0
 742.99 156.024 866.445 323.795 842.142 495.508 c 0
 813.398 698.598 723.239 823.913 432.43 830.997 c 1
EndSplineSet
EndChar

StartChar: OE
Encoding: 338 338 120
Width: 1996
VWidth: 0
Flags: HW
HStem: 0 117<520.172 1376.81> 730 123<1052.44 1538.06> 1334 109<1396.61 1936.51>
VStem: 909.06 143<906.863 1338.7> 932.06 135<74.7532 549.895>
LayerCount: 2
Fore
SplineSet
922.333 1297.01 m 0
 837.084 1299.49 687.308 1307.22 575.787 1280.68 c 0
 531.705 1270.19 491.892 1256.07 456.014 1238.92 c 0
 135.04 1085.49 115.14 677.17 238.6 419.813 c 0
 372.418 140.868 710.574 139.958 929.827 141.999 c 0
 1145.89 144.01 1535.12 129.601 1912.12 158.925 c 0
 2035.2 168.498 2012.74 -7.16161 1905.41 -12.9636 c 0
 1531.31 -33.1852 975.694 -25 948.06 -25 c 0
 682.764 -25 265.013 -72.9056 61.3954 364.448 c 0
 43.4609 402.97 28.1114 446.118 15.9871 492.507 c 0
 -67.8237 813.18 1.96156 1306.35 502.679 1437.19 c 0
 668.546 1480.53 842.768 1470.25 931.551 1464.96 c 0
 963.114 1463.07 1540.5 1449.51 1927.87 1467.97 c 0
 1964.23 1469.7 1979.34 1434.29 1981.12 1409.18 c 0
 1983.67 1373.09 1966.31 1313.02 1909.81 1309.06 c 0
 1600.76 1287.35 974.724 1295.49 922.333 1297.01 c 0
1066.06 1323 m 0
 1066.06 1270.92 1070.44 1022.52 1075.8 878.173 c 1
 1079.09 878.232 1081.39 878.103 1084.02 877.937 c 0
 1395.5 863.989 1516.26 869.931 1826.12 893.925 c 0
 1949.28 903.5 1926.79 726.839 1819.41 721.037 c 0
 1504.62 703.988 1396 708.99 1080.22 705 c 0
 1078.1 705 1075.12 705.142 1074.48 705.177 c 1
 1077.97 435.832 1087.73 226.474 1092.04 115.973 c 0
 1094.59 50.4771 1029.69 16.9544 982.285 17.8113 c 0
 945.654 18.4735 905.833 42.558 907.068 92.6472 c 0
 911.018 236.718 897.002 1142.35 884.098 1380.63 c 0
 882.184 1415.07 900.846 1446.39 937.596 1446.5 c 0
 990.64 1446.65 1066.06 1386.54 1066.06 1323 c 0
EndSplineSet
Colour: ff00
EndChar

StartChar: questiondown
Encoding: 191 191 165
Width: 893
VWidth: 0
Flags: HW
HStem: -471.157 124<333.078 836.508>
LayerCount: 2
Fore
SplineSet
489.319 999.988 m 0
 566.85 982.938 618.615 874.756 555.202 813.701 c 0
 517.164 777.078 444.003 762.518 401.129 807.591 c 0
 351.853 859.273 362.05 975.902 445.516 998.927 c 0
 460.239 1003.06 475.38 1003.05 489.319 999.988 c 0
660.222 580 m 0
 717.706 503.352 708.28 435.391 661.703 357.054 c 0
 554.724 177.377 340.484 31.0744 243.444 -86.1419 c 0
 215.436 -119.699 196.852 -149.405 187.019 -174.6 c 0
 163.207 -235.609 182.539 -276.641 273.245 -311.842 c 0
 404.035 -362.288 640.821 -344.235 782.502 -322.435 c 0
 917.359 -302.602 931.32 -479.104 800.386 -495.956 c 0
 585.132 -523.371 386.713 -506.182 242.988 -475.603 c 0
 175.952 -461.196 119.819 -434.746 78.0911 -397.714 c 0
 -32.7071 -299.387 -28.7101 -137.7 114.526 23.4397 c 0
 241.682 166.871 414.925 302.231 493.173 425.331 c 0
 525.054 474.924 521.431 502.096 496.879 536.469 c 0
 470.704 573.113 460.73 615.691 492.578 640.039 c 0
 536.848 673.885 614.588 640.846 660.222 580 c 0
EndSplineSet
EndChar

StartChar: multiply
Encoding: 215 215 167
Width: 831
VWidth: 0
Flags: HW
LayerCount: 2
Fore
SplineSet
56.8256 702.066 m 0
 9.82419 752.902 16.5753 820.634 62.7194 854.052 c 0
 99.7016 880.834 161.204 886.807 195.267 839.637 c 0
 229.276 792.548 338.493 669.927 405.468 599.102 c 1
 459.059 661.289 569.705 783.997 619.301 838.799 c 0
 664.939 889.227 733.469 891.524 771.957 847.261 c 0
 801.919 812.804 813.335 752.08 769.38 713.956 c 0
 723.466 674.133 582.528 525.773 528.051 461.879 c 1
 587.792 397.72 714.849 274.055 762.445 236.658 c 0
 813.703 196.385 813.882 120.525 768.265 79.3688 c 0
 728.769 43.7354 663.847 42.4889 611.343 101.36 c 0
 573.375 143.931 466.191 262.221 409.248 322.221 c 1
 354.372 260.124 248.952 151.916 219.953 107.362 c 0
 184.69 53.1865 109.096 45.583 63.8023 87.5905 c 0
 24.799 123.764 17.7915 188.317 71.7627 245.845 c 0
 114.688 291.6 235.995 394.08 287.643 459.484 c 1
 228.338 524.288 110.021 644.53 56.8256 702.066 c 0
EndSplineSet
EndChar

StartChar: section
Encoding: 167 167 168
Width: 1161
VWidth: 0
Flags: HW
HStem: 1478.21 128<510.666 997.214>
LayerCount: 2
Fore
SplineSet
570.149 814.28 m 1
 385.275 958.873 180.28 1118.21 122.054 1275.53 c 0
 99.7459 1335.81 112.706 1449.96 230.826 1527.14 c 0
 464.986 1680.14 832.574 1676.44 977.143 1630.01 c 0
 1043.18 1608.81 1065.52 1541.59 1041.94 1492.68 c 0
 1024.12 1455.71 979.596 1431.85 930.553 1455.73 c 0
 870.489 1484.99 773.238 1492.66 672.779 1483.51 c 0
 471.329 1465.16 308.551 1383.37 311.395 1352.5 c 0
 330.352 1146.67 979.845 799.099 1063.98 568.792 c 0
 1078.62 528.721 1086.72 491.381 1088.96 456.614 c 0
 1104.54 214.375 842.648 131.432 667.74 120.387 c 1
 834.478 -14.2278 1004.34 -143.956 1044.98 -255.208 c 0
 1061.93 -301.597 1069.93 -344.003 1070 -382.742 c 0
 1070.45 -628.852 765.324 -683.788 594.5 -683.788 c 0
 389.072 -683.788 220.898 -613.215 125.166 -462.171 c 0
 77.3406 -386.713 114.202 -284.313 189.097 -268.071 c 0
 230.623 -259.065 269.876 -285.95 280.785 -339.826 c 0
 305.067 -459.746 508.354 -537.443 681.158 -516.836 c 0
 806.632 -501.874 892.495 -441.28 878.686 -328.835 c 0
 860.874 -183.784 213.938 151.935 103.054 451.535 c 0
 80.7458 511.812 93.7058 625.961 211.826 703.141 c 0
 314.294 770.085 446.252 800.816 570.149 814.28 c 1
435.55 319.103 m 1
 523.384 298.761 603.751 294.551 672.487 302.878 c 0
 826.86 321.58 909.482 399.107 897.686 495.165 c 0
 893.35 530.475 839.459 593.569 755.686 665.426 c 1
 724.159 666.311 691.256 665.073 657.89 662.036 c 0
 455.298 643.599 289.512 559.806 292.395 528.505 c 0
 297.397 474.2 352.651 399.126 435.55 319.103 c 1
EndSplineSet
EndChar

StartChar: Oslash
Encoding: 216 216 170
Width: 1314
VWidth: 0
Flags: HW
LayerCount: 2
Fore
SplineSet
1100.07 1479.68 m 0
 1129.61 1524.83 1184.34 1555.43 1225.28 1521.06 c 0
 1260.22 1491.73 1267.61 1431.27 1231.08 1387.84 c 0
 1142.29 1282.66 307.268 89.4193 236.578 -31.6253 c 0
 206.285 -83.3994 144.185 -110.565 100.374 -79.135 c 0
 59.8497 -50.0642 61.3579 9.73815 104.775 69.6947 c 0
 190.275 187.008 1004.1 1332.25 1100.07 1479.68 c 0
570.718 1479.15 m 0
 600.988 1487.74 628.861 1479.36 647.495 1468.11 c 1
 1011.15 1489.41 1263.87 1195.82 1298.28 802.997 c 0
 1351.46 196.083 1020.63 -6.92457 704.737 -35.2012 c 0
 420.347 -60.6576 98.9962 131.851 23.5395 555.085 c 0
 -29.7752 854.129 60.6717 1334.51 570.718 1479.15 c 0
577.019 1294.51 m 0
 179.095 1170.18 166.088 779.236 188.223 602.347 c 0
 225.932 300.988 471.121 110.809 687.331 135.077 c 0
 925.653 161.826 1160.83 281.268 1123.21 762.774 c 0
 1094.58 1120.33 909.836 1332.46 601.407 1305.75 c 1
 592.928 1301.85 584.865 1296.97 577.019 1294.51 c 0
EndSplineSet
EndChar

StartChar: oslash
Encoding: 248 248 171
Width: 1012
VWidth: 0
Flags: HW
HStem: -18 123.011<355.058 689.194>
LayerCount: 2
Fore
SplineSet
807.062 1020.66 m 0
 836.604 1065.82 891.329 1096.44 932.28 1062.06 c 0
 967.22 1032.73 974.586 972.24 938.113 928.885 c 0
 848.337 822.526 307.141 89.2023 236.578 -31.6253 c 0
 206.285 -83.3994 144.185 -110.565 100.374 -79.135 c 0
 59.8497 -50.0642 61.3579 9.73815 104.775 69.6947 c 0
 190.985 187.983 711.466 873.817 807.062 1020.66 c 0
464.332 1012.9 m 0
 493.856 1015.58 520.199 1006.47 538.34 992.635 c 1
 824.668 960.915 1002.57 781.769 1011.89 493.02 c 0
 1021.24 203.775 848.931 -33.5179 555.401 -42.987 c 0
 271.586 -52.1427 24.6871 132.098 1.66077 448.184 c 0
 -20.8498 757.193 188.999 987.872 464.332 1012.9 c 0
432.43 830.997 m 1
 277.639 781.589 177.969 643.027 179.594 474.24 c 0
 181.497 276.297 363.32 102.789 576.075 132.62 c 0
 742.99 156.024 866.445 323.795 842.142 495.508 c 0
 813.398 698.598 723.239 823.913 432.43 830.997 c 1
EndSplineSet
EndChar

StartChar: dotlessi
Encoding: 305 305 172
Width: 412
VWidth: 0
Flags: HW
VStem: 140.171 136.056<451.753 971.336> 152.167 140.009<15.6691 551.262>
LayerCount: 2
Fore
SplineSet
115.201 926.501 m 0
 111.984 996.814 154.28 1035.43 203.546 1031.77 c 0
 251.991 1028.18 305.736 985.952 301.157 925.028 c 0
 290.753 786.612 304.003 218.093 317.069 77.3522 c 0
 323.696 5.96094 272.601 -44.8743 218.068 -45.1319 c 0
 167.068 -45.3727 126.858 -0.748434 127.167 73.8886 c 0
 127.769 219.323 123.281 749.901 115.201 926.501 c 0
EndSplineSet
EndChar

StartChar: divide
Encoding: 247 247 177
Width: 1085
VWidth: 0
Flags: HW
HStem: 445.189 140<85.8188 996.219>
LayerCount: 2
Fore
SplineSet
530.537 719.587 m 0
 447.305 727.574 383.618 853.683 448.047 916.869 c 0
 483.183 951.328 552.652 967.305 593.484 925.02 c 0
 639.255 877.62 656.965 754.727 567.626 724.011 c 0
 555.304 719.777 542.644 718.425 530.537 719.587 c 0
542.537 74.587 m 0
 459.305 82.5727 395.619 208.684 460.047 271.869 c 0
 495.183 306.328 564.652 322.305 605.484 280.02 c 0
 651.255 232.62 668.965 109.727 579.626 79.0115 c 0
 567.304 74.7762 554.644 73.4255 542.537 74.587 c 0
954.933 422.596 m 0
 777.893 426.574 289.306 424.172 144.184 420.198 c 0
 66.7715 418.078 19.6255 461.683 23.266 515.786 c 0
 26.753 567.61 75.2007 614.853 143.232 610.129 c 0
 284.643 600.309 811.084 594.864 949.042 608.469 c 0
 1073.04 620.69 1109.85 419.116 954.933 422.596 c 0
EndSplineSet
EndChar

StartChar: Ccedilla
Encoding: 199 199 178
Width: 1202
VWidth: 0
Flags: HW
VStem: 596.623 85.377<-114 58.0136>
LayerCount: 2
Fore
SplineSet
567 30.0002 m 0
 567 88.5355 651.637 126.526 690.744 86.6909 c 0
 698.897 78.3863 703.415 66.8647 703.972 55.1887 c 0
 706.509 1.88363 705.978 -35.6642 706.512 -83.252 c 1
 793.825 -67.3765 923.514 -71.9446 973.726 -180.141 c 0
 1020.91 -281.81 959.316 -404.208 859.113 -450.693 c 0
 732.187 -509.187 574.556 -455.106 511.965 -375.445 c 0
 491.685 -349.634 487.943 -315.013 505.268 -291.51 c 0
 521.404 -269.621 551.86 -269.207 573.893 -286.205 c 0
 636.611 -334.587 719.93 -343.815 788.531 -320.346 c 0
 825.188 -307.805 845.016 -264.779 829.289 -239.033 c 0
 809.102 -205.987 759.085 -208.259 690.839 -238.817 c 0
 631.281 -265.486 569.567 -231.376 571.635 -165.219 c 0
 573.565 -103.493 567 -40.6448 567 30.0002 c 0
870.913 1278.35 m 0
 810.133 1320.03 719.584 1324.08 606.419 1293.84 c 0
 247.494 1199.38 99.0099 673.73 237.424 393.053 c 0
 246.328 374.989 255.888 358.047 266.046 342.175 c 0
 443.624 64.6932 819.836 100.078 1097.55 278.074 c 0
 1181.91 331.632 1274.3 201.934 1192.17 139.129 c 0
 1124.86 87.7375 1051.42 47.4723 975.218 18.2646 c 0
 605.587 -123.412 165.214 -4.18153 47.0795 375.489 c 0
 -53.0074 697.157 34.4795 1295.54 531.642 1449.89 c 0
 695.399 1500.37 883.612 1489.5 966.018 1427.99 c 0
 1067.09 1351.56 975.238 1206.89 870.913 1278.35 c 0
EndSplineSet
EndChar

StartChar: cedilla
Encoding: 184 184 179
Width: 578
VWidth: 0
Flags: HW
VStem: 143.534 85.377<-107 65.0136>
LayerCount: 2
Fore
SplineSet
113.911 37.0004 m 0
 113.911 95.5358 198.548 133.526 237.655 93.691 c 0
 245.808 85.3865 250.327 73.8646 250.883 62.1887 c 0
 253.42 8.88358 252.888 -28.6641 253.423 -76.252 c 1
 340.736 -60.3763 470.425 -64.9447 520.637 -173.141 c 0
 567.82 -274.811 506.23 -397.205 406.019 -443.695 c 0
 278.737 -502.353 122.083 -448.074 58.6619 -368.179 c 0
 38.0817 -341.206 35.0002 -307.815 52.1796 -284.51 c 0
 68.3152 -262.621 98.7704 -262.208 120.804 -279.205 c 0
 183.521 -327.588 266.842 -336.815 335.442 -313.346 c 0
 372.099 -300.805 391.927 -257.779 376.2 -232.033 c 0
 356.012 -198.986 305.997 -201.26 237.75 -231.817 c 0
 178.191 -258.485 116.478 -224.377 118.546 -158.219 c 0
 120.475 -96.493 113.91 -33.6448 113.911 37.0004 c 0
EndSplineSet
EndChar

StartChar: ccedilla
Encoding: 231 231 180
Width: 875
VWidth: 0
Flags: HW
VStem: 413.623 85.377<-112 60.0136>
LayerCount: 2
Fore
SplineSet
384 32.0002 m 0
 384 90.5357 468.637 128.526 507.744 88.6909 c 0
 515.897 80.3864 520.415 68.8647 520.972 57.1887 c 0
 523.509 3.88363 522.978 -33.6642 523.512 -81.252 c 1
 610.825 -65.3765 740.514 -69.9446 790.726 -178.141 c 0
 837.909 -279.81 776.316 -402.208 676.113 -448.693 c 0
 549.187 -507.187 391.556 -453.106 328.965 -373.445 c 0
 308.685 -347.634 304.943 -313.013 322.268 -289.51 c 0
 338.404 -267.621 368.859 -267.208 390.893 -284.205 c 0
 453.61 -332.588 536.931 -341.815 605.531 -318.346 c 0
 642.188 -305.805 662.016 -262.779 646.289 -237.033 c 0
 626.101 -203.986 576.086 -206.26 507.839 -236.817 c 0
 448.281 -263.485 386.567 -229.377 388.635 -163.219 c 0
 390.565 -101.493 384 -38.6449 384 32.0002 c 0
687.471 803.563 m 0
 650.13 825.966 518.681 855.367 425.603 827.08 c 0
 235.436 769.288 119.017 515.473 203.961 334.628 c 0
 283.612 165.053 474.942 80.2973 761.211 178.644 c 0
 879.353 219.229 921.207 56.2872 807.798 15.4767 c 0
 523.434 -86.8528 131.311 -52.0396 22.8765 314.207 c 0
 -53.6878 572.81 61.8784 903.195 371.547 994.659 c 0
 529.916 1040.56 733.715 994.183 790.037 953.218 c 0
 886.966 882.72 783.76 745.792 687.471 803.563 c 0
EndSplineSet
EndChar

StartChar: ordfeminine
Encoding: 170 170 181
Width: 533
VWidth: 0
Flags: HW
HStem: 1293.78 113.22<226.307 377.7>
VStem: 380.127 110.5<1120.22 1293.78 1407 1466.89>
LayerCount: 2
Fore
SplineSet
199.085 1386.78 m 1
 222.789 1398.47 245.543 1407.58 267.666 1414.86 c 0
 309.087 1428.3 336.99 1432.86 362.063 1433.56 c 1
 346.615 1445.59 289.651 1460.96 199.085 1386.78 c 1
142.376 1354.05 m 1
 65.467 1342.07 15.8379 1438.02 80.8674 1505.53 c 0
 175.892 1604.21 344.857 1637.25 447.005 1585.04 c 0
 503.945 1555.93 518.204 1489.74 515.594 1438.72 c 0
 506.614 1263.16 507.738 1209.12 529.95 1059.26 c 0
 534.923 1025.7 543.113 956.454 485.954 951.988 c 0
 434.607 947.977 397.513 960.344 377.535 991.788 c 1
 259.534 923.57 24.6918 924.384 2.35773 1087.61 c 0
 -14.3509 1209.74 60.498 1299.03 142.376 1354.05 c 1
352.371 1267.62 m 1
 264.925 1255.11 153.621 1198.42 175.009 1124.75 c 0
 183.899 1094.13 278.115 1102.03 354.542 1159.6 c 1
 352.349 1206.6 352.009 1231.36 352.371 1267.62 c 1
EndSplineSet
EndChar

StartChar: ordmasculine
Encoding: 186 186 182
Width: 556
VWidth: 0
Flags: HW
LayerCount: 2
Fore
SplineSet
208.922 1356.26 m 0
 130.172 1308.71 167.635 1156.31 240.737 1142.21 c 0
 334.501 1124.12 383.539 1183.91 393.185 1262.7 c 0
 395.417 1280.93 391.13 1298.41 381.482 1314.55 c 0
 351.338 1364.99 271.747 1394.19 208.922 1356.26 c 0
8.55709 1365.99 m 0
 20.5984 1414.76 50.2732 1454 88.4224 1482.52 c 0
 203.891 1568.84 409.216 1568.18 500.028 1446.62 c 0
 624.257 1280.33 550.202 991.521 317.471 958.904 c 0
 279.632 953.599 242.387 955.505 207.398 964.064 c 0
 58.2134 1000.56 -43.2509 1156.19 8.55709 1365.99 c 0
EndSplineSet
EndChar

StartChar: uni00B5
Encoding: 181 181 183
Width: 1024
VWidth: 0
Flags: HW
VStem: 90 148<436.908 937.459> 115.482 122.735<-433.036 13.6026> 785 132<505.226 971.077>
LayerCount: 2
Fore
SplineSet
264.498 -13.6348 m 1
 270.184 -194.789 276.245 -342.934 280.398 -389.904 c 0
 286.75 -461.728 234.908 -512.365 180.18 -511.951 c 0
 129.426 -511.567 89.8501 -466.79 90.4829 -392.535 c 0
 91.7145 -248.02 72.3178 739.537 65.0322 915.703 c 1
 60.6385 986.004 102.745 1025.24 151.993 1022.36 c 0
 200.376 1019.53 254.663 978.315 250.957 917.535 c 0
 247.133 849.644 253.059 504.859 262.952 349.551 c 0
 263.762 336.367 264.944 323.972 266.486 312.233 c 0
 284.833 172.572 347.659 132.843 444.729 145.785 c 0
 649.031 172.432 757.979 493.118 760 923.156 c 0
 760.538 992.022 800.005 1030.58 847.739 1027.97 c 0
 896.138 1025.32 945.578 981.928 941.957 922.539 c 0
 934.173 784.43 956.186 225.721 971.847 85.7608 c 0
 979.715 14.9311 931.166 -37.9422 876.638 -38.7968 c 0
 826.221 -39.587 787.033 4.9163 786.003 78.6418 c 0
 785.34 120.401 784.634 177.686 783.101 252.637 c 1
 689.442 36.2878 577.204 -22.1077 440.162 -33.9063 c 0
 369.535 -40.0967 310.186 -31.9448 264.498 -13.6348 c 1
EndSplineSet
EndChar

StartChar: paragraph
Encoding: 182 182 184
Width: 961
VWidth: 0
Flags: HW
HStem: 551.334 127.69<272.59 556.245>
VStem: 557.119 126.002<-1.17419 551.334 693.028 1343.97> 761.178 130.652<10.7619 520.718> 786.178 120.652<824.019 1299.67>
LayerCount: 2
Fore
SplineSet
736.254 50.0509 m 0
 726.353 176.695 728.042 373.763 731.253 547.365 c 1
 723.207 545.994 715.19 544.682 708.25 543.58 c 1
 708.88 314.096 711.533 110.668 715.556 52.7323 c 0
 720.569 -19.4605 667.629 -68.8457 613.054 -67.402 c 0
 562.318 -66.0599 523.589 -20.5458 525.624 53.6851 c 0
 527.232 112.337 529.376 306.015 531.046 524.911 c 1
 257.11 512.794 28.4626 594.141 2.94201 862.949 c 0
 -30.6852 1217.16 228.436 1440.95 546.066 1480.81 c 0
 760.571 1507.72 918.598 1464.4 955.643 1288.14 c 0
 968.656 1226.23 957.175 1189.22 931.241 1162.92 c 1
 907.855 734.004 910.874 281.847 916.821 61.988 c 0
 918.7 -7.46925 886.426 -55.7339 837.716 -59.8455 c 0
 786.04 -64.2074 741.524 -17.3528 736.254 50.0509 c 0
532.873 1314.43 m 1
 342.21 1274.83 140.129 1119.29 184.458 865.616 c 0
 205.309 746.306 356.403 699.173 532.268 703.145 c 1
 533.829 961.589 534.472 1217.05 532.873 1314.43 c 1
708.163 723.219 m 1
 719.088 725.471 729.46 727.815 738.55 730.007 c 1
 745.25 911.627 750.212 1091.51 761.22 1280.45 c 0
 761.444 1284.29 762.339 1290.07 762.693 1291.91 c 1
 751.137 1300.73 735.497 1308.29 717.788 1313.48 c 1
 711.753 1235.61 708.619 981.085 708.163 723.219 c 1
EndSplineSet
EndChar

StartChar: Eth
Encoding: 208 208 185
Width: 1260
VWidth: 0
Flags: HW
HStem: 88 98<35.903 104.003> 742.843 116<-51.6763 709.439>
VStem: 112 140<19.581 535.387>
LayerCount: 2
Fore
SplineSet
662.438 717.849 m 0
 485.159 721.832 153.06 715.455 6.14756 711.437 c 0
 -66.3836 709.75 -117.854 744.34 -114.261 796.945 c 0
 -110.851 846.857 -59.5509 885.916 5.73682 881.382 c 0
 147.437 871.542 517.821 870.041 656.547 883.722 c 0
 718.89 889.867 766.985 839.687 765.961 790.06 c 0
 765.044 745.629 724.209 716.462 662.438 717.849 c 0
185.502 1320.04 m 0
 134.27 1316.7 117.224 1375.72 114.964 1407.77 c 0
 113.11 1434.05 119.15 1482.93 164.396 1485.95 c 0
 561.667 1511.22 852.649 1431.87 1098.4 1128.76 c 0
 1301.17 879.217 1307.78 446.629 1085.69 196.395 c 0
 835.833 -84.8252 426.382 -60.4775 51.0943 64.2829 c 0
 -47.8526 97.2655 1.75421 239.927 96.5462 209.834 c 0
 414.245 109.245 788.73 93.2701 962.19 319.25 c 0
 1128.35 535.063 1103.43 860.025 951.614 1046.21 c 0
 752.576 1290.68 489.571 1336.88 185.502 1320.04 c 0
62.019 1387.02 m 0
 59.2821 1457.09 101.598 1495.53 150.665 1492.02 c 0
 199.261 1488.53 253.124 1445.95 247.918 1384.97 c 0
 237.316 1248.11 264.228 221.61 276.896 81.2795 c 0
 283.532 9.60191 232.013 -41.1884 177.361 -41.1311 c 0
 126.442 -41.0776 86.4792 3.65132 87.0006 78.1712 c 0
 87.9922 222.909 68.9783 1210.05 62.019 1387.02 c 0
EndSplineSet
EndChar

StartChar: AE
Encoding: 198 198 186
Width: 2030
VWidth: 0
Flags: HW
HStem: 0 119<1063.71 1170.24 1645.38 1914.01> 483 112.229<511.068 980.693> 730 123<1049.09 1534.71> 1324 119<949.524 1936.35>
VStem: 905.71 143<906.863 1338.09>
LayerCount: 2
Fore
SplineSet
957.988 458.002 m 0
 797.651 456.215 562.007 468.806 351.099 441.211 c 0
 280.095 431.921 229.006 466.224 227.818 519.831 c 0
 226.625 573.704 274.189 629.505 345.332 630.995 c 0
 537.292 635.014 842.867 629.052 967.636 620.166 c 0
 1020.51 616.4 1065.1 578.864 1065.97 533.05 c 0
 1066.85 486.872 1022.45 458.72 957.988 458.002 c 0
795.659 1415.49 m 0
 832.984 1472.81 888.535 1465.23 931.841 1465 c 0
 1314.44 1462.99 1568.76 1451.02 1924.52 1467.97 c 0
 1967.27 1470.01 1981.12 1425.5 1982.67 1398.52 c 0
 1984.89 1360.1 1965.91 1302.45 1906.14 1299.04 c 0
 1613.99 1282.36 1035.49 1286.48 931.269 1288.65 c 1
 821.906 1133.13 210.066 149.984 148.144 28.4566 c 0
 117.554 -31.5788 47.1312 -52.2695 -0.991394 -22.158 c 0
 -44.2263 4.89525 -54.3635 64.1013 -14.2134 127.021 c 0
 64.2073 249.913 698.108 1265.69 795.659 1415.49 c 0
1062.72 1323.52 m 0
 1065.51 1269.43 1067.5 1022.03 1072.49 878.174 c 1
 1075.7 878.231 1078.07 878.102 1080.67 877.937 c 0
 1392.15 863.989 1512.91 869.931 1822.77 893.925 c 0
 1945.93 903.5 1923.44 726.839 1816.06 721.037 c 0
 1501.27 703.988 1392.65 708.99 1076.87 705 c 0
 1074.75 705 1071.76 705.142 1071.14 705.177 c 1
 1074.51 453.733 1084.39 257.443 1088.02 143.183 c 1
 1365.64 133.934 1632.68 133.613 1908.77 154.925 c 0
 2031.55 164.475 2009.17 -7.17367 1902.08 -12.9626 c 0
 1596.32 -29.95 1321.25 -22.0909 1018.75 -24.9622 c 1
 950.787 -45.0302 901.688 10.3368 903.718 92.6472 c 0
 907.668 236.718 893.652 1142.35 880.748 1380.63 c 0
 878.926 1413.41 895.559 1444.19 930.308 1445.82 c 0
 984.831 1448.37 1059.89 1385.57 1062.72 1323.52 c 0
EndSplineSet
Colour: ff00
EndChar

StartChar: Thorn
Encoding: 222 222 187
Width: 1050
VWidth: 0
Flags: HW
VStem: 95.4541 140<34.4708 675.925 1344.55 1403.06>
LayerCount: 2
Fore
SplineSet
62.4067 1384.44 m 0
 60.8319 1454.52 103.948 1492.33 153.178 1487.53 c 0
 201.525 1482.82 254.274 1439.34 248.279 1378.55 c 0
 234.794 1241.77 250.616 220.536 260.394 79.7321 c 0
 265.407 7.53942 212.465 -41.8456 157.892 -40.402 c 0
 107.154 -39.0598 68.4302 6.4551 70.4635 80.6847 c 0
 74.4197 225.072 66.3866 1207.32 62.4067 1384.44 c 0
310.438 265.243 m 0
 193.537 280.044 105.574 316.866 42.0739 359.199 c 0
 -12.2668 395.425 -23.8787 450.994 -1.0482 488.42 c 0
 16.3674 516.97 54.3255 530.657 89.0441 509.291 c 0
 165.164 462.447 259.817 436.769 334.571 428.861 c 0
 556.862 405.347 753.059 432.347 831.202 617.253 c 0
 913.124 811.101 816.859 1011.54 666.24 1074.96 c 0
 531.464 1131.71 374.297 1093.85 226.514 1058.73 c 0
 177.828 1047.16 145.238 1083.11 136.38 1119.15 c 0
 125.398 1163.83 143.297 1226.9 206.296 1242.05 c 0
 387.939 1285.72 586.046 1288.17 713.584 1242.4 c 0
 1015.46 1134.07 1094.63 814.837 1005.97 567.923 c 0
 889.822 244.463 592.93 230.041 310.438 265.243 c 0
EndSplineSet
EndChar

StartChar: thorn
Encoding: 254 254 188
Width: 1063
VWidth: 0
Flags: HW
VStem: 107.059 140<-824.529 154.411 1339.03 1392.06>
LayerCount: 2
Fore
SplineSet
74.0063 1373.44 m 0
 72.4486 1442.75 114.532 1480.64 163.285 1476.66 c 0
 212.176 1472.68 265.93 1428.92 259.879 1367.55 c 0
 246.44 1231.24 262.278 -639.278 271.999 -779.268 c 0
 276.985 -851.079 224.553 -900.427 170.178 -899.417 c 0
 119.186 -898.471 80.0246 -852.927 82.0684 -778.315 c 0
 86.0217 -634.031 77.9798 1196.64 74.0063 1373.44 c 0
318.895 -24.9315 m 0
 200.249 -10.1007 98.5406 48.2599 37.1325 89.1987 c 0
 -16.8604 125.194 -28.679 180.271 -6.41092 217.721 c 0
 10.8253 246.708 49.2299 260.751 84.1025 239.291 c 0
 162.943 190.774 249.329 150.166 342.039 138.815 c 0
 568.3 111.11 754.993 136.229 835.164 325.583 c 0
 921.605 529.743 820.037 764.173 673.299 825.959 c 0
 538.52 882.709 381.358 844.837 233.574 809.727 c 0
 184.888 798.161 152.296 834.11 143.439 870.151 c 0
 132.459 914.831 150.354 977.906 213.355 993.049 c 0
 394.509 1036.59 593 1039.47 720.109 993.527 c 0
 1023.59 883.839 1110.26 545.814 1013 277.843 c 0
 895.82 -45.0004 600.696 -60.156 318.895 -24.9315 c 0
EndSplineSet
EndChar

StartChar: ae
Encoding: 230 230 189
Width: 1550
VWidth: 0
Flags: HW
HStem: 495.063 118.251<750.244 1213.88>
VStem: 1366.68 122<665.978 820.928>
LayerCount: 2
Fore
SplineSet
848.744 462.171 m 1
 854.339 346.862 904.104 238.227 995.226 178.957 c 0
 1126.82 93.3612 1314.61 160.761 1407.98 244.602 c 0
 1493.23 321.15 1598.58 211.967 1523.74 123.819 c 0
 1426.64 9.46349 1148.35 -98.5922 942.654 1.52125 c 0
 660.266 138.964 589.557 557.972 773.362 814.559 c 0
 879.384 962.563 1035.19 1019.36 1175.39 1014.62 c 0
 1356.22 1008.5 1525.26 899.849 1513.07 734.202 c 0
 1495.61 496.858 1201.57 435.25 848.744 462.171 c 1
871.231 624.832 m 1
 938.753 618.365 1002.33 616.377 1059.09 618.627 c 0
 1249.68 626.182 1344.03 680.417 1341.7 739.007 c 0
 1341 756.531 1334.79 772.44 1323.38 787.189 c 0
 1269.98 856.202 1103.89 884.216 987.919 794.247 c 0
 933.171 751.772 893.969 691.878 871.231 624.832 c 1
719.116 83.5858 m 0
 625.876 17.6743 519.42 -20.162 417.566 -32.3432 c 0
 219.371 -56.0463 23.683 18.6549 2.62833 195.037 c 0
 -28.6243 456.855 220.046 602.024 414.997 629.751 c 0
 531.462 646.315 627.003 639.859 681.882 633.465 c 1
 682.473 707.957 687.786 758.172 652.618 795.532 c 0
 580.213 872.45 367.014 852.655 199.028 693.834 c 0
 163.942 660.662 119.57 663.832 93.6279 692.394 c 0
 59.9522 729.469 59.6366 798.72 113.183 846.631 c 0
 285.567 1000.87 540.938 1056.2 713.696 971.445 c 0
 832.365 913.227 859.206 791.369 852.786 704.164 c 0
 837.606 497.987 830.615 388.994 847.012 319.762 c 0
 866.321 238.237 802.624 142.618 719.116 83.5858 c 0
678.269 459.256 m 1
 634.098 468.89 535.27 486.717 457.495 471.467 c 0
 314.256 443.382 152.225 350.713 176.405 224.711 c 0
 180.538 203.172 192.85 185.363 213.699 170.457 c 0
 314.786 98.1821 586.66 130.456 703.835 295.046 c 1
 693.397 337.67 679.043 378.033 678.269 459.256 c 1
EndSplineSet
EndChar

StartChar: germandbls
Encoding: 223 223 190
Width: 1134
VWidth: 0
Flags: HW
HStem: 722.462 153<394.168 654.365>
VStem: 80.999 140.001<27.2564 1205.66>
LayerCount: 2
Fore
SplineSet
238.574 964.041 m 0
 238.756 889.106 246.487 96.289 246.08 75.3982 c 0
 244.792 9.12375 195.01 -36.7023 142.74 -35.4649 c 0
 91.9545 -34.2627 53.9801 11.6278 56.0084 85.6848 c 0
 59.7688 222.927 60.0617 840.922 61.6011 981.274 c 0
 65.091 1299.46 204.114 1417.03 335.613 1450.27 c 0
 379.288 1461.16 417.326 1467.35 456.723 1470.6 c 0
 731.44 1493.28 937.817 1342.74 954.916 1134.04 c 0
 966.902 987.756 909.734 885.367 805.441 833.576 c 1
 928.01 797.145 1042.82 693.043 1095.61 544.067 c 0
 1163.38 352.802 1092.41 81.6276 887.302 9.41858 c 0
 691.549 -59.4955 502.347 -56.2517 337.583 19.2738 c 0
 277.318 46.8981 265.78 116.173 285.602 159.162 c 0
 299.831 190.021 335.475 210.524 375.645 191.62 c 0
 539.819 114.362 719.24 121.864 831.039 184.691 c 0
 952.871 253.156 975.248 405.596 908.212 524.741 c 0
 821.826 678.276 634.961 674.961 437.154 697.625 c 0
 372.563 705.025 334.806 745.713 332.015 792.358 c 0
 328.859 845.11 370.154 896.946 436.082 900.427 c 0
 625.692 910.44 810.678 977.042 779.43 1128.62 c 0
 754.907 1247.57 608.854 1323.25 410.136 1281.53 c 0
 323.265 1263.3 238.015 1194.24 238.574 964.041 c 0
EndSplineSet
EndChar

StartChar: eth
Encoding: 240 240 191
Width: 1028
VWidth: 0
Flags: HW
LayerCount: 2
Fore
SplineSet
904.292 1329.74 m 0
 769.963 1205.8 649.094 1138.12 529.047 1072.09 c 0
 418.451 1011.26 349.617 1166.25 453.82 1218.36 c 0
 588.656 1285.79 673.545 1341.12 797.255 1441.42 c 0
 839.319 1475.52 886.537 1474.88 913.875 1445.32 c 0
 941.965 1414.94 941.257 1363.85 904.292 1329.74 c 0
793.091 931.723 m 1
 724.139 1154.97 622.104 1257.41 435.33 1392.76 c 0
 397.657 1420.06 395.856 1463.23 415.715 1492.92 c 0
 440.425 1529.87 497.851 1551.39 547.936 1517.76 c 0
 800.913 1347.88 988.013 1107.81 1012.29 711.915 c 0
 1024.06 520.027 994.446 319.89 911.104 207.14 c 0
 804.824 63.3579 680.398 -13.3764 558.086 -40.8593 c 0
 302.298 -98.3337 57.7433 58.6056 16.0948 244.535 c 0
 -57.7635 574.256 128.844 901.515 456.647 980.308 c 0
 574.773 1008.7 696.237 986.865 793.091 931.723 c 1
843.107 656.914 m 1
 787.834 752.078 670.816 827.511 521.589 820.407 c 0
 491.971 818.997 460.378 810.146 428.678 794.702 c 0
 259.114 712.09 109.138 454.431 204.866 258.347 c 0
 220.787 225.735 245.102 197.566 275.717 175.49 c 0
 397.124 87.947 619.914 96.3792 782.572 323.918 c 0
 835.502 397.96 850.591 529.529 843.107 656.914 c 1
EndSplineSet
EndChar

StartChar: sterling
Encoding: 163 163 192
Width: 1157
VWidth: 0
Flags: HW
HStem: 282 114<179.347 337.719> 699.454 140<164.871 248.339 401.365 815.639>
VStem: 248.339 134.732<837.329 1171.81>
LayerCount: 2
Fore
SplineSet
940.555 1199.34 m 0
 826.215 1289.18 717.517 1333.01 594.311 1277.23 c 0
 456.759 1214.95 397.697 1123.12 399.997 972.381 c 0
 400.614 931.952 402.808 892.403 405.838 857.766 c 1
 525.134 856.667 651.357 860.102 738.943 868.734 c 0
 862.932 880.963 899.759 679.381 744.834 682.861 c 0
 644.326 685.119 534.253 683.391 431.433 680.748 c 1
 461.047 532.231 501.711 419.5 510.907 297.655 c 1
 693.669 158.516 837.051 4.67525 1038.98 192.315 c 0
 1074.47 225.285 1119.49 208.062 1141.46 179.062 c 0
 1170.3 140.985 1171.84 75.495 1113.08 31.0585 c 0
 881.01 -144.418 649.112 -24.9795 485.291 93.1054 c 1
 421.023 -40.0312 220.273 -74.7878 98.4067 22.459 c 0
 -21.7922 118.375 -4.05078 391.866 179.113 420.696 c 0
 224.113 427.779 268.405 423.159 308.099 411.765 c 1
 289.566 490.317 264.984 580.259 246.441 675.329 c 1
 229.14 674.82 214.118 673.728 197.545 674.758 c 0
 45.6667 684.195 76.4596 874.032 215.131 864.394 c 0
 217.091 864.258 220.014 864.061 221.37 863.971 c 1
 204.368 1158.42 298.923 1342.39 535.139 1443.77 c 0
 731.254 1527.94 912.624 1459.86 1063.13 1318.2 c 0
 1098.47 1284.94 1096.95 1234.29 1072.23 1202.49 c 0
 1044.59 1166.94 991.212 1159.54 940.555 1199.34 c 0
331.417 211.789 m 1
 291.831 241.776 262.84 256.773 254.306 257.01 c 0
 234.822 257.551 219.35 249.15 208.495 236.545 c 0
 189.426 214.403 191.858 189.816 202.174 181.063 c 0
 220.977 165.109 244.765 150.108 264.709 145.05 c 0
 291.3 138.306 319.023 146.143 331.417 211.789 c 1
EndSplineSet
EndChar

StartChar: doublestorya
Encoding: 65537 -1 193
Width: 885
VWidth: 0
Flags: HW
VStem: 709.322 119.846<298.073 547.423 690.013 855.333> 719.458 135.71<-13.7183 72.7168>
LayerCount: 2
Fore
SplineSet
823.135 -46.7015 m 0
 756.039 -54.8837 718.022 -18.5617 702.754 31.5756 c 1
 614.921 -23.2625 520.549 -55.6245 427.673 -68.7221 c 0
 228.438 -96.8188 28.6066 -31.3355 4.00857 144.537 c 0
 -38.9603 451.771 266.982 629.518 468.633 684.131 c 0
 566.692 710.688 634.851 719.117 683.449 717.253 c 1
 684.537 768.611 682.355 804.725 658.137 830.535 c 0
 590.704 902.401 373.885 871.908 200.343 707.834 c 0
 165.257 674.662 120.885 677.832 94.943 706.394 c 0
 61.2675 743.469 60.9518 812.72 114.498 860.631 c 0
 286.872 1014.86 569.307 1080.88 742.349 994.361 c 0
 833.146 948.962 858.641 842.842 854.134 756.695 c 0
 838.126 450.714 840.221 353.469 879.886 91.7455 c 0
 888.695 33.6222 894.175 -38.0385 823.135 -46.7015 c 0
679.452 513.517 m 1
 662.32 523.83 616.196 538.961 534.757 520.854 c 0
 399.559 490.795 140.271 342.295 177.566 175.454 c 0
 180.53 162.193 185.894 151.34 193.424 141.949 c 0
 260.559 58.218 528.669 95.8218 683.745 221.049 c 1
 678.722 327.526 678.275 419.868 679.452 513.517 c 1
EndSplineSet
EndChar

StartChar: dcroat
Encoding: 273 273 194
Width: 977
VWidth: 0
Flags: HW
HStem: 1128 121<455.952 976.676>
VStem: 738.4 136<75.4526 1421.63>
LayerCount: 2
Fore
SplineSet
904.438 1107.01 m 0
 726.967 1110.99 664.131 1107.02 517.684 1103.01 c 0
 444.705 1101.01 393.16 1136.25 396.734 1188.97 c 0
 400.124 1238.99 451.284 1278.49 516.732 1273.94 c 0
 660.526 1263.95 758.225 1260.04 898.547 1273.88 c 0
 960.832 1280.02 1008.7 1229.64 1007.97 1180.03 c 0
 1007.31 1135.38 966.603 1105.61 904.438 1107.01 c 0
713.406 1377.44 m 0
 711.836 1447.32 754.694 1485.18 803.828 1480.57 c 0
 852.307 1476.02 905.285 1432.48 899.279 1371.55 c 0
 885.776 1234.63 897.173 208.379 906.94 67.7323 c 0
 911.953 -4.46044 859.013 -53.8457 804.438 -52.402 c 0
 753.701 -51.0598 714.974 -5.54505 717.009 68.6847 c 0
 720.972 213.226 717.382 1200.46 713.406 1377.44 c 0
694.471 803.563 m 0
 651.776 829.178 544.609 844.48 450.886 814.643 c 0
 212.262 738.679 93.9809 456.196 226.941 257.767 c 0
 327.813 107.227 543.742 69.5483 765.025 218.729 c 0
 795.683 239.397 833.105 247.406 855.363 219.316 c 0
 886.034 180.607 858.395 117.546 809.382 79.2921 c 0
 552.93 -120.862 104.086 -83.1641 8.97968 316.484 c 0
 -54.5849 583.59 106.703 914.489 424.311 989.944 c 0
 580.639 1027.08 740.948 994.013 797.037 953.218 c 0
 893.966 882.72 790.76 745.792 694.471 803.563 c 0
EndSplineSet
EndChar

StartChar: circumflex
Encoding: 710 710 195
Width: 617
VWidth: 0
Flags: HW
LayerCount: 2
Fore
SplineSet
48.789 1206.02 m 0
 120.082 1297.03 154.692 1354.09 217.839 1453.41 c 0
 264.605 1526.97 344.944 1538.13 401.327 1444.94 c 0
 455.569 1355.3 505.865 1290.19 575.077 1196.9 c 0
 634.501 1116.81 515.908 999.463 445.625 1097.43 c 0
 400.909 1159.75 356.79 1222.28 306.793 1301.14 c 1
 249.027 1212.04 201.168 1152.28 166.548 1101.85 c 0
 137.395 1059.38 88.4643 1057.51 57.3562 1081.51 c 0
 24.0694 1107.19 12.7583 1160.02 48.789 1206.02 c 0
EndSplineSet
EndChar

StartChar: tilde
Encoding: 732 732 196
Width: 959
VWidth: 0
Flags: HW
LayerCount: 2
Fore
SplineSet
787.089 1116.12 m 0
 718.444 1023.44 585.581 991.492 433.541 1080.42 c 0
 342.25 1133.82 309.343 1119.34 260.123 1060.9 c 0
 234.208 1030.12 197.671 1020.04 167.03 1032.93 c 0
 114.117 1055.18 108.573 1128.88 143.547 1178.32 c 0
 196.594 1253.32 353.986 1333.26 491.651 1235.37 c 0
 586.801 1167.72 611.715 1169.79 682.672 1238.02 c 0
 716.255 1270.31 763.448 1281.86 796.589 1257.63 c 0
 835.679 1229.05 828.689 1172.28 787.089 1116.12 c 0
EndSplineSet
EndChar

StartChar: ring
Encoding: 730 730 197
Width: 520
VWidth: 0
Flags: HW
LayerCount: 2
Fore
SplineSet
175.661 1377.51 m 0
 103.574 1321.43 136.364 1174.04 225.416 1161.77 c 0
 323.082 1148.3 377.584 1182.06 379.003 1281.36 c 0
 379.474 1314.37 370.013 1339.66 355.167 1358.81 c 0
 315.255 1410.28 230.627 1420.26 175.661 1377.51 c 0
8.3304 1364.99 m 0
 17.5913 1410.48 40.9756 1447.77 72.297 1475.58 c 0
 176.347 1567.95 369.655 1562.95 463.571 1456.54 c 0
 603.099 1298.46 478.651 962.549 210.369 1015.96 c 0
 73.87 1043.14 -30.6077 1173.69 8.3304 1364.99 c 0
EndSplineSet
EndChar

StartChar: caron
Encoding: 711 711 198
Width: 617
VWidth: 0
Flags: HW
LayerCount: 2
Fore
SplineSet
568.193 1350.58 m 0
 496.9 1259.57 461.82 1201.91 398.673 1102.59 c 0
 351.907 1029.03 271.568 1017.87 215.185 1111.06 c 0
 160.944 1200.7 110.648 1265.82 41.4343 1359.1 c 0
 -17.9869 1439.19 100.604 1556.54 170.887 1458.57 c 0
 215.602 1396.25 259.722 1333.72 309.718 1254.86 c 1
 367.485 1343.96 415.343 1403.72 449.963 1454.15 c 0
 479.117 1496.62 528.047 1498.49 559.156 1474.49 c 0
 592.443 1448.81 604.06 1396.37 568.193 1350.58 c 0
EndSplineSet
EndChar

StartChar: uni02CB
Encoding: 715 715 199
Width: 485
VWidth: 0
Flags: HW
LayerCount: 2
Fore
SplineSet
23.0255 1368.38 m 0
 -59.3896 1445.59 84.0987 1572.38 167.296 1480.31 c 0
 276.175 1359.81 361.048 1266.95 459.939 1161.06 c 0
 490.704 1128.12 494.074 1085.34 468.259 1058.12 c 0
 436.755 1024.9 379.303 1028.82 334.357 1071.96 c 0
 233.225 1169.04 164.462 1235.86 23.0255 1368.38 c 0
EndSplineSet
EndChar

StartChar: uni02CA
Encoding: 714 714 200
Width: 485
VWidth: 0
Flags: HW
LayerCount: 2
Fore
SplineSet
464.578 1376.03 m 0
 322.346 1242.77 252.61 1175.04 151.481 1077.96 c 0
 108.014 1036.24 53.2486 1031.2 20.8655 1060.89 c 0
 -8.10368 1087.45 -6.31979 1132.57 25.8983 1167.06 c 0
 124.79 1272.95 209.66 1365.81 318.541 1486.31 c 0
 401.135 1577.71 545.52 1451.87 464.578 1376.03 c 0
EndSplineSet
EndChar

StartChar: uni02C9
Encoding: 713 713 201
Width: 695
VWidth: 0
Flags: HW
HStem: 1330.2 117<59.3846 638.872>
LayerCount: 2
Fore
SplineSet
591.87 1305.21 m 0
 414.23 1309.2 267.794 1305.22 120.597 1301.2 c 0
 47.8461 1299.51 -3.40369 1334.5 0.166338 1387.17 c 0
 3.55606 1437.19 54.7167 1476.69 120.165 1472.14 c 0
 263.122 1462.2 446.416 1458.32 585.979 1472.08 c 0
 648.265 1478.22 696.134 1427.84 695.401 1378.23 c 0
 694.741 1333.58 654.033 1303.81 591.87 1305.21 c 0
EndSplineSet
EndChar

StartChar: beta
Encoding: 946 946 202
Width: 1134
VWidth: 0
Flags: HW
HStem: 722.462 153<394.168 654.365>
VStem: 86.5996 126.974<514.785 1187.08> 89.999 140.001<-523.744 3.49384>
LayerCount: 2
Fore
SplineSet
238.574 964.041 m 0
 238.754 889.623 255.601 -448.832 255.08 -475.602 c 0
 253.792 -541.875 204.01 -587.703 151.74 -586.465 c 0
 100.954 -585.262 62.9804 -539.373 65.0084 -465.315 c 0
 68.7568 -328.508 60.0588 840.653 61.6011 981.274 c 0
 65.091 1299.46 204.114 1417.03 335.613 1450.27 c 0
 379.288 1461.16 417.326 1467.35 456.723 1470.6 c 0
 731.44 1493.28 937.817 1342.74 954.916 1134.04 c 0
 966.902 987.756 909.734 885.367 805.441 833.576 c 1
 928.01 797.145 1042.82 693.043 1095.61 544.067 c 0
 1163.38 352.802 1092.41 81.6276 887.302 9.41858 c 0
 691.549 -59.4955 502.347 -56.2517 337.583 19.2738 c 0
 277.318 46.8981 265.78 116.173 285.602 159.162 c 0
 299.831 190.021 335.475 210.524 375.645 191.62 c 0
 539.819 114.362 719.24 121.864 831.039 184.691 c 0
 952.871 253.156 975.248 405.596 908.212 524.741 c 0
 821.826 678.276 634.961 674.961 437.154 697.625 c 0
 372.563 705.025 334.806 745.713 332.015 792.358 c 0
 328.859 845.11 370.154 896.946 436.082 900.427 c 0
 625.692 910.44 810.678 977.042 779.43 1128.62 c 0
 754.907 1247.57 608.854 1323.25 410.136 1281.53 c 0
 323.265 1263.3 238.015 1194.24 238.574 964.041 c 0
EndSplineSet
EndChar

StartChar: ogonek
Encoding: 731 731 204
Width: 947
VWidth: 0
Flags: HW
LayerCount: 2
Fore
SplineSet
326.262 60.1238 m 0
 348.763 87.1264 396.453 89.1774 419.932 73.9407 c 0
 434.052 64.7772 439.502 42.5463 429.134 27.0799 c 0
 367.101 -65.4638 368.237 -104.796 388.467 -123.762 c 0
 421.228 -154.476 521.742 -147.988 592.976 -86.1241 c 0
 623.395 -59.7088 660.622 -70.496 680.015 -95.2109 c 0
 710.423 -133.965 712.614 -209.061 652.734 -255.72 c 0
 549.224 -336.376 372.096 -349.817 290.199 -263.173 c 0
 213.892 -182.441 242.502 -40.3859 326.262 60.1238 c 0
EndSplineSet
EndChar

StartChar: dotaccent
Encoding: 729 729 220
Width: 299
VWidth: 0
Flags: HW
LayerCount: 2
Fore
SplineSet
150.038 1291.93 m 0
 66.876 1299.91 3.17308 1426.08 67.547 1489.22 c 0
 102.684 1523.67 172.152 1539.65 212.984 1497.37 c 0
 258.752 1449.97 276.471 1327.07 187.126 1296.36 c 0
 174.804 1292.12 162.144 1290.77 150.038 1291.93 c 0
EndSplineSet
EndChar

StartChar: breve
Encoding: 728 728 221
Width: 979
VWidth: 0
Flags: HW
HStem: 1267 130<313.971 666.242>
LayerCount: 2
Fore
SplineSet
171.987 1396.68 m 0
 141.118 1436.48 152.61 1482.24 177.557 1507.28 c 0
 198.324 1528.13 237.671 1541.43 266.42 1512.68 c 0
 344.972 1434.12 391.802 1423.94 490.263 1421.99 c 0
 582.811 1420.06 639.114 1434.54 698.862 1503.39 c 0
 766.54 1581.37 862.363 1480.69 810.611 1402.24 c 0
 743.534 1300.54 628.822 1243.05 491.934 1242 c 0
 354.903 1240.95 252.134 1293.34 171.987 1396.68 c 0
EndSplineSet
EndChar

StartChar: hungarumlaut
Encoding: 733 733 251
Width: 582
VWidth: 0
Flags: HW
VStem: 161.409 131<1356.82 1512.03> 422.409 131<1356.82 1512.03>
LayerCount: 2
Fore
SplineSet
576.58 1453.61 m 0
 503.647 1273.8 469.738 1184.01 418.695 1053.9 c 0
 396.56 996.986 347.824 969.629 305.712 983.784 c 0
 268.809 996.188 251.756 1037.67 266.682 1081.88 c 0
 311.58 1219.55 350.622 1339.7 398.517 1494.36 c 0
 418.837 1560.4 482.77 1571.95 526.325 1554.61 c 0
 561.85 1540.46 595.814 1501.34 576.58 1453.61 c 0
315.584 1453.62 m 0
 242.658 1273.82 208.733 1184 157.698 1053.91 c 0
 135.684 997.301 87.4289 969.964 45.4415 983.544 c 0
 7.85701 995.7 -9.2915 1036.37 6.02291 1082.92 c 0
 50.7199 1219.99 89.7494 1340.12 137.517 1494.36 c 0
 157.836 1560.4 221.771 1571.95 265.325 1554.61 c 0
 300.85 1540.46 334.817 1501.35 315.584 1453.62 c 0
EndSplineSet
EndChar

StartChar: IJ
Encoding: 306 306 252
Width: 1552
VWidth: 0
Flags: H
HStem: -291 114<259.015 728.758> 1381.3 110.32<274.198 665.694>
VStem: 140.074 140.001<13.2231 1381.3>
LayerCount: 2
Fore
SplineSet
115.439 1418.67 m 0
 113.362 1511.15 179.555 1517.45 225.477 1516.62 c 0
 537.242 1510.98 778.428 1480.45 1154.17 1538.7 c 0
 1236.39 1551.46 1293.4 1483.44 1296.97 1413.27 c 0
 1323.82 885.216 1398.03 372.185 1159.94 7.33788 c 0
 960.188 -298.757 676.185 -360.198 299.079 -315.829 c 0
 230.597 -307.771 195.287 -257.392 202.499 -210.843 c 0
 208.198 -174.054 242.083 -144.975 287.95 -152.314 c 0
 580.079 -199.055 802.072 -158.345 987.813 64.0268 c 0
 1188.74 304.586 1184.33 717.739 1126.44 1365.7 c 1
 840.144 1328.66 501.619 1345.81 298.156 1355.18 c 1
 288.875 1090.67 296.104 198.957 305.015 70.6366 c 0
 310.031 -1.55608 257.086 -50.9413 202.513 -49.4977 c 0
 151.775 -48.1555 113.051 -2.64112 115.083 71.589 c 0
 119.047 216.251 119.414 1241.83 115.439 1418.67 c 0
EndSplineSet
EndChar

StartChar: ij
Encoding: 307 307 253
Width: 930
VWidth: 0
Flags: HW
VStem: 150.459 136<112.257 230.027 578.368 973.622> 642.059 140<-801.681 -744>
LayerCount: 2
Fore
SplineSet
115.653 1359.19 m 0
 117.704 1379.7 127.847 1396.31 141.006 1409.22 c 0
 176.143 1443.67 245.611 1459.65 286.443 1417.37 c 0
 300.001 1403.32 309.674 1386.24 315.89 1368.22 c 0
 334.079 1315.5 325.279 1238.6 260.585 1216.36 c 0
 248.263 1212.12 235.603 1210.77 223.496 1211.93 c 0
 156.413 1218.37 109.173 1294.39 115.653 1359.19 c 0
619.193 441.629 m 1
 564.399 228.472 489.716 51.9136 453.734 5.65138 c 0
 406.353 -55.2651 332.387 -101.125 250.635 -68.1796 c 1
 163.379 -32.8352 115.151 34.3345 118.009 138.685 c 0
 121.995 284.141 129.438 752.652 125.465 929.438 c 0
 125.311 936.293 125.528 942.836 126.111 949.087 c 0
 131.625 1008.14 173.303 1036.72 216.237 1032.53 c 0
 264.585 1027.82 317.332 984.344 311.338 923.547 c 0
 297.645 784.654 290.162 314.546 299.94 173.732 c 0
 300.302 168.513 301.822 162.688 304.333 157.239 c 0
 313.637 137.044 327.063 133.722 333.538 136.705 c 0
 410.858 172.333 568.006 784.276 581.11 923.345 c 0
 588.422 1000.95 647.566 1032.06 700.67 1026.98 c 0
 750.654 1022.19 808.38 984.847 802.338 923.547 c 0
 788.856 786.839 797.266 -604.105 806.999 -744.268 c 0
 807.283 -748.361 807.382 -752.397 807.302 -756.366 c 0
 805.99 -821.498 756.154 -865.768 704.497 -864.402 c 0
 653.76 -863.061 615.033 -817.544 617.068 -743.315 c 0
 619.762 -645.063 620.38 -10.7956 619.193 441.629 c 1
585.662 1359.27 m 0
 587.712 1379.78 597.847 1396.31 611.006 1409.22 c 0
 646.143 1443.67 715.611 1459.65 756.443 1417.37 c 0
 770.001 1403.33 779.674 1386.24 785.89 1368.22 c 0
 804.079 1315.5 795.279 1238.6 730.585 1216.36 c 0
 718.263 1212.12 705.603 1210.77 693.496 1211.93 c 0
 626.415 1218.37 579.177 1294.45 585.662 1359.27 c 0
EndSplineSet
EndChar

StartChar: uni0237
Encoding: 567 567 278
Width: 545
VWidth: 0
Flags: HW
VStem: 254.9 132.1<480.334 967.598>
LayerCount: 2
Fore
SplineSet
230.077 933.028 m 0
 216.19 1049 400.511 1043.12 411.845 941.779 c 0
 473.497 390.531 486.717 -174.973 444.655 -473.488 c 0
 415.325 -681.647 317.636 -806.353 195.809 -863.67 c 0
 -17.7802 -964.16 -296.335 -857.353 -382.628 -673.628 c 0
 -402.545 -631.224 -396.356 -586.762 -365.515 -566.301 c 0
 -337.206 -547.518 -301.506 -560.322 -281.126 -591.242 c 0
 -173.95 -753.851 154.113 -820.974 237.006 -551.646 c 0
 317.363 -290.56 295.954 382.881 230.077 933.028 c 0
EndSplineSet
EndChar

StartChar: gcommaaccent
Encoding: 291 291 315
Width: 900
VWidth: 0
Flags: HW
VStem: 422 130<1071.36 1389.52>
LayerCount: 2
Fore
SplineSet
576.987 1111.82 m 0
 580.985 998.563 407.71 992.149 397.122 1099.53 c 0
 381.378 1258.04 444.544 1456.16 520.528 1539.85 c 0
 602.239 1629.22 720.222 1519.27 643.141 1427.92 c 0
 562.977 1332.1 572.917 1246.17 576.987 1111.82 c 0
EndSplineSet
Refer: 5 103 N 1 0 0 1 0 0 2
EndChar

StartChar: Hbar
Encoding: 294 294 316
Width: 1333
VWidth: 0
Flags: HW
HStem: 723 140<167.319 687.55> 757 122<687.55 1190.44> 1145 121<8.251 1329.82>
VStem: 90.1387 136.049<930.122 1427.26> 115.621 140.013<15.7803 531.806> 1077.5 136.05<920.031 1417.17> 1102.99 140.01<5.6865 521.713>
LayerCount: 2
Fore
SplineSet
1302.44 1132.01 m 0
 1125.95 1135.97 200.818 1123.98 55.6841 1120.01 c 0
 -17.2949 1118.01 -68.8395 1153.25 -65.2664 1205.97 c 0
 -61.8765 1255.99 -10.7163 1295.49 54.7319 1290.94 c 0
 194.924 1281.2 1159.04 1285.32 1296.55 1298.88 c 0
 1358.83 1305.02 1406.71 1254.64 1405.97 1205.03 c 0
 1405.31 1160.38 1364.6 1130.61 1302.44 1132.01 c 0
EndSplineSet
Refer: 34 72 N 1 0 0 1 0 0 2
EndChar

StartChar: hbar
Encoding: 295 295 317
Width: 1024
VWidth: 0
Flags: HW
HStem: 1141 117<-0.0473022 579.44>
VStem: 99.9551 124.592<763.888 1424.64> 113.982 127.543<-11.8623 572.444> 802.863 126.603<20.4965 502.932>
LayerCount: 2
Fore
SplineSet
532.438 1116.01 m 0
 354.798 1120 208.362 1116.02 61.1649 1112 c 0
 -11.5858 1110.31 -62.8355 1145.3 -59.2654 1197.97 c 0
 -55.8758 1247.99 -4.71516 1287.49 60.7329 1282.94 c 0
 203.69 1273 386.984 1269.12 526.547 1282.88 c 0
 588.833 1289.02 636.702 1238.64 635.969 1189.03 c 0
 635.309 1144.38 594.601 1114.61 532.438 1116.01 c 0
777.88 43.5279 m 0
 791.558 415.531 780.13 593.546 750.818 709.945 c 0
 713.255 859.109 517.876 871.418 395.193 724.835 c 0
 262.508 566.303 270.245 321.157 266.52 129.609 c 0
 265.699 87.4384 290.864 -40.0439 179.451 -40.6266 c 0
 105.741 -41.0121 89.1649 35.7616 88.9822 83.761 c 0
 87.025 596.819 82.1934 819.604 74.957 1401.78 c 0
 73.5895 1511.73 243.35 1501.81 242.087 1399.65 c 0
 239.161 1163.55 245.425 1039.45 248.602 836.94 c 1
 380.265 990.529 571.72 1057.41 754.537 982.107 c 0
 997.128 882.166 961.375 440.05 954.452 55.6371 c 0
 952.725 -8.65815 901.447 -42.1919 855.608 -40.8306 c 0
 815.552 -39.641 775.926 -9.60849 777.88 43.5279 c 0
EndSplineSet
EndChar

StartChar: kgreenlandic
Encoding: 312 312 318
Width: 991
VWidth: 0
Flags: HW
HStem: 890 114<675.264 807.264>
VStem: 115.554 124.599<53.8902 370.553 731.392 966.335>
LayerCount: 2
Fore
SplineSet
91.0756 936.058 m 0
 85.9796 1001.46 117.133 1044 163.4 1046.81 c 0
 212.495 1049.79 264.755 1008.69 267.964 949.349 c 0
 271.087 891.579 274.306 848.642 275.608 787.111 c 1
 413.642 904.838 576.092 981.121 719.255 1027.77 c 0
 835.272 1065.57 922.882 912.163 795.437 866.466 c 0
 585.461 791.192 450.809 712.081 319.859 561.588 c 0
 318.898 560.484 317.327 557.149 317.07 555.978 c 0
 456.072 349.511 707.683 122.878 891.137 179.874 c 0
 903.129 183.6 915.937 184.094 927.684 179.959 c 0
 973.781 163.731 972.09 104.719 957.922 66.1603 c 0
 933.918 0.836957 857.126 -57.4429 733.813 -11.422 c 0
 567.426 50.6735 427.868 106.275 278.032 296.019 c 1
 275.651 179.412 268.141 125.027 265.104 57.2644 c 0
 261.79 -9.69541 217.586 -60.5686 165.585 -58.3373 c 0
 116.201 -56.2183 87.1615 -6.66195 90.5831 64.2055 c 0
 111.566 498.871 108.989 706.187 91.0756 936.058 c 0
EndSplineSet
EndChar

StartChar: uni2010
Encoding: 8208 8208 319
Width: 660
VWidth: 0
Flags: HW
HStem: 470.189 140<62.7511 598.151>
LayerCount: 2
Fore
SplineSet
556.866 447.596 m 0
 379.326 451.585 267.071 449.195 121.117 445.198 c 0
 43.7041 443.078 -3.4425 486.683 0.197912 540.786 c 0
 3.68494 592.61 52.1332 639.853 120.165 635.129 c 0
 263.617 625.167 411.308 619.695 550.975 633.469 c 0
 674.969 645.69 711.787 444.116 556.866 447.596 c 0
EndSplineSet
EndChar

StartChar: uni2011
Encoding: 8209 8209 320
Width: 660
VWidth: 0
Flags: HW
HStem: 470.189 140<62.7511 598.151>
LayerCount: 2
Fore
SplineSet
556.866 447.596 m 0
 379.326 451.585 267.071 449.195 121.117 445.198 c 0
 43.7041 443.078 -3.4425 486.683 0.197912 540.786 c 0
 3.68494 592.61 52.1332 639.853 120.165 635.129 c 0
 263.617 625.167 411.308 619.695 550.975 633.469 c 0
 674.969 645.69 711.787 444.116 556.866 447.596 c 0
EndSplineSet
EndChar

StartChar: figuredash
Encoding: 8210 8210 321
Width: 1035
VWidth: 0
Flags: HW
HStem: 445.189 140<62.7516 973.15>
LayerCount: 2
Fore
SplineSet
931.865 422.596 m 0
 754.825 426.574 266.238 424.172 121.117 420.198 c 0
 43.7044 418.078 -3.44176 461.683 0.198664 515.786 c 0
 3.6857 567.61 52.1335 614.853 120.165 610.129 c 0
 261.575 600.309 788.016 594.864 925.974 608.469 c 0
 1049.97 620.689 1086.78 419.116 931.865 422.596 c 0
EndSplineSet
EndChar

StartChar: endash
Encoding: 8211 8211 322
Width: 1035
VWidth: 0
Flags: HW
HStem: 445.189 140<62.7516 973.15>
LayerCount: 2
Fore
SplineSet
931.865 422.596 m 0
 754.825 426.574 266.238 424.172 121.117 420.198 c 0
 43.7044 418.078 -3.44176 461.683 0.198664 515.786 c 0
 3.6857 567.61 52.1335 614.853 120.165 610.129 c 0
 261.575 600.309 788.016 594.864 925.974 608.469 c 0
 1049.97 620.689 1086.78 419.116 931.865 422.596 c 0
EndSplineSet
EndChar

StartChar: emdash
Encoding: 8212 8212 323
Width: 2173
VWidth: 0
Flags: HW
HStem: 445.189 140<62.7516 2111.15>
LayerCount: 2
Fore
SplineSet
2069.87 422.596 m 0
 1893.23 426.565 265.657 424.156 121.117 420.198 c 0
 43.7044 418.078 -3.44176 461.683 0.198664 515.786 c 0
 3.6857 567.61 52.1335 614.853 120.165 610.129 c 0
 260.058 600.415 1927.37 594.996 2063.98 608.469 c 0
 2187.94 620.688 2224.82 419.115 2069.87 422.596 c 0
EndSplineSet
EndChar

StartChar: afii00208
Encoding: 8213 8213 324
Width: 2173
VWidth: 0
Flags: HW
HStem: 445.189 140<62.7516 2111.15>
LayerCount: 2
Fore
SplineSet
2069.87 422.596 m 0
 1893.23 426.565 265.657 424.156 121.117 420.198 c 0
 43.7044 418.078 -3.44176 461.683 0.198664 515.786 c 0
 3.6857 567.61 52.1335 614.853 120.165 610.129 c 0
 260.058 600.415 1927.37 594.996 2063.98 608.469 c 0
 2187.94 620.688 2224.82 419.115 2069.87 422.596 c 0
EndSplineSet
EndChar

StartChar: Lslash
Encoding: 321 321 325
Width: 1020
VWidth: 0
Flags: HW
HStem: -12 132<241.82 706.34> 32 122<629.339 1020.23>
VStem: 112 126<115.589 1435.78>
LayerCount: 2
Fore
SplineSet
397.925 756.054 m 0
 234.484 685.363 173.566 655.195 41.3955 590.03 c 0
 -10.3615 564.745 -79.1885 558.29 -99.1106 609.426 c 0
 -117.012 655.375 -80.9121 708.1 -21.4421 730.574 c 0
 113.573 781.6 210.364 819.624 331.817 890.615 c 0
 378.213 917.735 444.492 906.73 464.855 860.325 c 0
 482.533 820.038 452.995 779.873 397.925 756.054 c 0
EndSplineSet
Refer: 38 76 N 1 0 0 1 0 0 2
EndChar

StartChar: lslash
Encoding: 322 322 326
Width: 406
VWidth: 0
Flags: HW
VStem: 135 130<0 1440>
LayerCount: 2
Fore
SplineSet
417.925 756.054 m 0
 254.484 685.363 193.566 655.194 61.3959 590.031 c 0
 9.63882 564.745 -59.1884 558.29 -79.1106 609.426 c 0
 -97.0121 655.375 -60.9122 708.1 -1.44213 730.574 c 0
 133.573 781.6 230.364 819.624 351.817 890.615 c 0
 398.213 917.735 464.492 906.73 484.855 860.325 c 0
 502.533 820.038 472.995 779.873 417.925 756.054 c 0
EndSplineSet
Refer: 11 108 N 1 0 0 1 0 0 2
EndChar

StartChar: Eng
Encoding: 330 330 328
Width: 1140
VWidth: 0
Flags: HW
HStem: -296 120<652.112 859.798>
VStem: 117.311 137<-8.19292 554.411> 911.312 128.998<-122.784 1204.48>
LayerCount: 2
Fore
SplineSet
886.315 51.4047 m 0
 892.052 406.016 894.2 900.844 880.098 1059.79 c 0
 871.826 1153.02 843.727 1212.77 807.222 1249.5 c 0
 705.023 1352.31 505.864 1290.8 402.757 1188.27 c 0
 215.283 1001.86 289.644 322.048 279.277 124.688 c 0
 276.879 79.084 286.445 -41.4158 178.758 -38.5819 c 0
 104.952 -36.6397 90.5443 40.6202 92.328 88.9222 c 0
 103.264 385.175 89.9312 1020.61 58.1038 1368.72 c 0
 48.1205 1477.92 215.877 1503.31 232.725 1390.7 c 0
 238.142 1354.49 240.945 1320.25 243.72 1285.45 c 1
 416.915 1473.12 707.594 1526.43 853.994 1437.36 c 0
 988.417 1355.57 1045.57 1222.28 1054.94 1084.7 c 0
 1066.94 908.617 1065.91 243.713 1065.31 60.9167 c 0
 1064.87 -71.1201 1054.73 -182.531 945.967 -264.927 c 0
 856.323 -332.837 756.435 -336.445 679.772 -320.475 c 0
 630.009 -310.108 603.024 -273.587 602.938 -235.591 c 0
 602.843 -193.233 635.827 -151 687.871 -151 c 0
 748.703 -151 782.075 -149.806 828.823 -124.095 c 0
 873.803 -99.3557 884.851 -39.1311 886.315 51.4047 c 0
EndSplineSet
EndChar

StartChar: eng
Encoding: 331 331 329
Width: 1026
VWidth: 0
Flags: HW
HStem: -297 120<568.241 775.927>
VStem: 117.311 137<-8.19292 562.529> 827.44 131<-123.784 517.766>
LayerCount: 2
Fore
SplineSet
802.443 50.4045 m 0
 808.204 406.51 814.806 552.544 770.461 702.929 c 0
 758.233 744.395 740.019 774.291 718.697 794.786 c 0
 649.441 861.356 527.315 840.432 422.517 730.731 c 0
 263.908 564.701 289.463 318.592 279.277 124.688 c 0
 276.879 79.084 286.445 -41.4158 178.758 -38.5819 c 0
 104.952 -36.6397 90.5443 40.6202 92.328 88.9222 c 0
 103.329 386.935 107.332 558.628 75.4148 907.724 c 0
 65.4437 1016.78 230.222 1042.09 247.036 929.698 c 0
 252.247 894.861 255.63 862.883 259.205 828.457 c 1
 387.288 983.982 601.853 1059.3 784.721 976.788 c 0
 1023.26 869.161 984.639 417.086 983.44 59.9167 c 0
 982.995 -72.4887 970.658 -183.687 862.096 -265.927 c 0
 772.452 -333.837 672.564 -337.445 595.901 -321.475 c 0
 546.137 -311.108 519.153 -274.587 519.067 -236.591 c 0
 518.971 -194.233 551.956 -152 604 -152 c 0
 664.832 -152 698.204 -150.806 744.952 -125.095 c 0
 789.933 -100.355 800.979 -40.1314 802.443 50.4045 c 0
EndSplineSet
EndChar

StartChar: longs
Encoding: 383 383 332
Width: 675
VWidth: 0
Flags: HW
HStem: -504 120<-97.9006 155.192> 1333 114<426.142 672.717>
VStem: 189 123<563.46 1204.43> 232 122.271<-304.673 483.601>
LayerCount: 2
Fore
SplineSet
-35.5601 -359.042 m 0
 -18.1573 -360.045 -1.99947 -360.233 12.9758 -359.683 c 0
 243.489 -351.207 214.568 -168.378 207.018 32.0589 c 0
 196.024 323.91 180.758 658.835 164.03 1001.78 c 0
 162.711 1028.82 163.23 1058.07 166.162 1088.39 c 0
 184.014 1273.03 296.926 1504.49 630.885 1471.88 c 0
 696.108 1465.51 732.551 1419.81 724.781 1372.95 c 0
 717.913 1331.52 677.437 1299.12 624.433 1308.37 c 0
 599.169 1312.78 576.234 1314.12 555.413 1313 c 0
 381.669 1303.7 331.599 1114.37 336.96 1019.41 c 0
 354.714 704.943 364.983 360.868 379.244 53.1573 c 0
 381.945 -5.11017 387.153 -75.0515 383.961 -146.13 c 0
 375.251 -340.097 296.544 -545.006 -56.1352 -528.974 c 0
 -116.686 -526.222 -155.535 -489.057 -153.043 -443.377 c 0
 -150.367 -394.328 -102.341 -355.189 -35.5601 -359.042 c 0
EndSplineSet
EndChar

StartChar: uni0250
Encoding: 592 592 333
Width: 905
VWidth: 0
Flags: HW
VStem: 69 135.71<868.126 968.135> 95 120<133.51 306.83 425.752 685.224>
LayerCount: 2
Fore
SplineSet
102.135 1005.68 m 0
 174.552 1014.51 208.233 960.109 221.86 909.459 c 1
 307.279 962.364 401.554 993.119 493.213 1004.14 c 0
 695.696 1028.49 899.031 954.349 920.224 776.806 c 0
 951.78 512.45 642.293 345.826 446.698 301.462 c 0
 361.63 282.168 289.904 276.787 240.774 279.404 c 1
 239.795 224.681 240.264 185.768 266.031 158.308 c 0
 333.463 86.4453 550.286 116.931 723.825 281.009 c 0
 758.912 314.181 803.282 311.011 829.225 282.449 c 0
 862.901 245.374 863.216 176.122 809.67 128.212 c 0
 637.295 -26.0201 354.862 -92.0393 181.82 -5.51782 c 0
 91.0201 39.8825 65.5297 146 70.0341 232.148 c 0
 86.0432 538.328 83.9999 604.965 44.2822 867.098 c 0
 35.4435 925.427 30.9137 996.991 102.135 1005.68 c 0
244.799 452.921 m 1
 268.92 448.729 345.99 447.332 401.619 460.518 c 0
 544.152 494.304 776.291 621.308 746.676 746.069 c 0
 743.476 759.55 737.782 770.897 729.773 780.893 c 0
 659.936 868.051 393.692 842.98 240.427 719.778 c 1
 245.294 617.971 245.87 542.314 244.799 452.921 c 1
EndSplineSet
EndChar

StartChar: uni0251
Encoding: 593 593 334
Width: 918
VWidth: 0
Flags: HW
VStem: 723 123<454.906 779.036 868.816 987.204> 754.977 138.013<8.77242 112.321>
LayerCount: 2
Fore
SplineSet
701.585 960.487 m 0
 708.721 1000.23 749.572 1016.57 783.135 1015.88 c 0
 827.527 1014.98 872.401 980.644 870.995 912.485 c 0
 865.11 627.264 868.845 521.499 883.548 351.05 c 1
 915.928 319.595 929.694 266.616 896.61 223.966 c 1
 902.973 165.646 909.984 104.724 917.815 38.9553 c 0
 931.137 -72.9382 756.204 -92.6048 742.2 14.7663 c 0
 739.924 32.2124 737.5 51.1351 735.513 66.9052 c 1
 668.39 19.365 600.568 -9.89258 533.333 -24.9585 c 0
 286.35 -80.302 57.0539 61.6819 16.0947 244.535 c 0
 -56.9453 570.608 92.9067 930.985 391.737 1001.78 c 0
 516.435 1031.32 635.169 1004.27 699.237 947.084 c 1
 700.182 952.651 700.67 955.386 701.585 960.487 c 0
718.62 261.614 m 1
 709.78 441.98 700.051 545.197 698.062 711.384 c 1
 663.662 782.435 545.725 870.842 416.717 826.552 c 0
 249.68 769.206 106.713 506.237 190.606 264.749 c 0
 198.772 241.242 212.197 220.336 230.136 202.264 c 0
 325.819 105.869 551.34 95.3638 718.62 261.614 c 1
EndSplineSet
EndChar

StartChar: uni0252
Encoding: 594 594 335
Width: 1008
VWidth: 0
Flags: HW
LayerCount: 2
Fore
SplineSet
250.169 157.957 m 1
 342.861 111.182 630.224 57.2945 734.445 189.479 c 0
 843.408 327.678 855.136 647.761 730.255 768.82 c 0
 639.614 856.687 486.636 833.863 382.38 725.654 c 0
 249.064 587.295 234.393 233.889 250.169 157.957 c 1
101.011 956.233 m 0
 98.391 1068.88 274.746 1051.34 267.945 949.337 c 0
 265.619 914.452 263.917 883.014 262.053 850.575 c 1
 391.277 983.206 590.502 1043.72 767.658 963.788 c 0
 1007.56 855.546 1053.35 388.129 881.456 118.558 c 0
 699.437 -166.884 294.561 -16.3146 211.795 -7.43008 c 1
 190.967 -20.1801 172.837 -26.3987 154.12 -26.1098 c 0
 83.3556 -25.0176 73.9516 60.8319 75.0887 99.7307 c 0
 90.0986 613.055 104.962 786.323 101.011 956.233 c 0
EndSplineSet
EndChar

StartChar: uni0254
Encoding: 596 596 336
Width: 791
VWidth: 0
Flags: HW
LayerCount: 2
Fore
SplineSet
124.412 680.312 m 0
 98.1586 647.737 59.734 638.197 31.3431 660.782 c 0
 -8.73259 692.663 -13.1571 766.888 31.4256 822.617 c 0
 170.237 996.135 344.848 1016.68 498.906 985.503 c 0
 779.292 928.758 840.863 503.267 756.631 253.996 c 0
 705.922 103.931 624.58 16.7696 498.61 -23.7965 c 0
 335.899 -76.1938 175.538 -48.7338 73.8796 28.051 c 0
 24.4057 65.4192 13.6671 119.18 34.748 157.205 c 0
 53.4078 190.862 96.4967 206.769 137.237 183.771 c 0
 251.942 119.017 300.461 96.0147 429.57 135.887 c 0
 499.874 157.598 572.592 230.779 595.009 305.21 c 0
 645.766 473.734 621.693 739.065 456.816 812.145 c 0
 363.37 853.563 228.456 809.409 124.412 680.312 c 0
EndSplineSet
EndChar

StartChar: uni0259
Encoding: 601 601 337
Width: 987
VWidth: 0
Flags: HW
HStem: 471.229 116.457<458.177 926.774>
LayerCount: 2
Fore
SplineSet
764.46 447.605 m 1
 547.838 453.008 379.241 471.467 278.724 465.352 c 0
 194.743 460.242 175.903 443.271 178.033 408.53 c 0
 181.057 359.201 192.181 316.986 209.084 281.548 c 0
 275.914 141.436 438.116 99.4932 578.205 166.698 c 0
 695.984 223.199 755.126 331.597 764.46 447.605 c 1
739.781 624.388 m 1
 718.385 681.865 684.325 733.908 639.58 773.219 c 0
 521.629 876.843 308.706 839.303 204.938 770.192 c 0
 109.253 706.466 22.0195 829.567 107.525 906.174 c 1
 222.328 1006.74 528.25 1069.66 717.096 941.263 c 0
 830.505 864.156 903.355 741.116 931.269 608.712 c 1
 1000.64 589.268 1002.21 504.056 943.672 465.865 c 1
 939.192 339.196 893.836 213.078 802.101 117.673 c 0
 703.004 14.61 579.453 -38.5701 458.926 -44.3833 c 0
 230.041 -55.4229 14.6067 105.623 0.511175 404.41 c 0
 -0.241839 420.372 -0.180381 435.486 0.802255 449.84 c 0
 15.9224 670.697 239.146 659.091 739.781 624.388 c 1
EndSplineSet
EndChar

StartChar: uni0258
Encoding: 600 600 338
Width: 987
VWidth: 0
Flags: HW
HStem: 471.229 116.457<458.177 926.774>
LayerCount: 2
Fore
SplineSet
764.46 447.605 m 1
 547.838 453.008 379.241 471.467 278.724 465.352 c 0
 194.743 460.242 175.903 443.271 178.033 408.53 c 0
 181.057 359.201 192.181 316.986 209.084 281.548 c 0
 275.914 141.436 438.116 99.4932 578.205 166.698 c 0
 695.984 223.199 755.126 331.597 764.46 447.605 c 1
739.781 624.388 m 1
 718.385 681.865 684.325 733.908 639.58 773.219 c 0
 521.629 876.843 308.706 839.303 204.938 770.192 c 0
 163.823 742.81 117.894 750.314 91.9119 779.192 c 0
 61.8692 812.584 63.9045 867.093 107.525 906.174 c 1
 222.328 1006.74 528.25 1069.66 717.096 941.263 c 0
 830.505 864.156 903.355 741.116 931.269 608.712 c 1
 950.641 603.283 966.546 592.377 976.326 577.4 c 0
 984.283 565.215 987.736 551.119 987.253 537.388 c 0
 986.272 509.436 969.786 482.903 943.672 465.865 c 1
 939.192 339.196 893.836 213.078 802.101 117.673 c 0
 703.004 14.61 579.453 -38.5701 458.926 -44.3833 c 0
 230.041 -55.4229 14.6067 105.623 0.511175 404.41 c 0
 -0.241839 420.372 -0.180381 435.486 0.802255 449.84 c 0
 15.9224 670.697 239.146 659.091 739.781 624.388 c 1
EndSplineSet
EndChar

StartChar: uni025B
Encoding: 603 603 339
Width: 784
VWidth: 0
Flags: HW
LayerCount: 2
Fore
SplineSet
168.064 525.64 m 1
 19.2971 610.143 -25.0112 850.672 177.645 957.157 c 0
 289.467 1015.22 500.43 1036.44 672.501 958.79 c 0
 730.278 932.731 754.409 883.515 739.145 840.524 c 0
 723.569 796.656 671.912 773.422 616.667 793.51 c 0
 467.854 847.709 327.47 849.546 268.535 808.504 c 0
 225.289 777.462 214.766 719.362 234.301 692.895 c 0
 267.006 649.022 364.857 610.365 484.834 621.886 c 0
 619.378 634.805 625.246 453.641 490.727 451.005 c 0
 352.058 448.012 210.122 410.645 181.601 284.459 c 0
 164.827 210.972 217.153 163.904 288.807 147.368 c 0
 426.837 115.955 562.51 146.341 665.357 190.971 c 0
 778.928 239.238 833.295 71.0256 723.011 18.4472 c 0
 566.749 -56.5168 297.296 -55.9646 176.076 -1.84809 c 0
 25.9976 64.4908 -24.697 214.311 11.0982 345.558 c 0
 34.8362 432.879 104.132 492.54 168.064 525.64 c 1
EndSplineSet
EndChar

StartChar: uni025C
Encoding: 604 604 340
Width: 771
VWidth: 0
Flags: HW
LayerCount: 2
Fore
SplineSet
713.285 685.699 m 0
 697.154 632.871 660.668 580.076 607.879 545.906 c 1
 668.356 515.863 724.032 459.38 753.238 377.609 c 0
 799.171 249.008 758.886 96.0269 614.836 18.3931 c 0
 497.75 -44.7094 229.655 -66.2548 68.3368 -3.70263 c 0
 9.4262 19.1404 -9.66397 75.4766 4.60394 119.203 c 0
 17.6981 159.332 60.4374 188.524 112.755 170.659 c 0
 219.047 134.363 356.112 113.998 491.276 155.88 c 0
 561.577 177.663 613.054 233.056 590.805 304.573 c 0
 551.673 430.358 431.508 456.123 294.144 448.043 c 0
 223.762 443.904 183.974 496.189 188.458 545.551 c 0
 192.382 588.734 230.678 624.611 289.115 618.881 c 0
 398.684 608.136 503.952 662.858 533.584 709.422 c 0
 551.992 738.35 537.896 798.438 493.931 824.493 c 0
 432.455 860.92 290.306 849.838 147.083 784.269 c 0
 96.8644 761.279 46.0861 775.629 24.5722 813.643 c 0
 0.892342 855.486 21.4678 908.688 78.85 940.521 c 0
 246.034 1031.55 456.046 1027.02 571.791 977.376 c 0
 706.903 919.417 743.9 785.956 713.285 685.699 c 0
EndSplineSet
EndChar

StartChar: uni026A
Encoding: 618 618 343
Width: 673
VWidth: 0
Flags: HW
HStem: -2.40039 140<75.7565 272.6 412.608 611.155> 840 140<62.7516 265.604 401.659 598.151>
VStem: 272.6 140.008<68.3893 475.338 795.811 888.358>
LayerCount: 2
Fore
SplineSet
570.151 -25 m 0
 392.497 -21.0077 280.076 -23.3922 134.122 -27.391 c 0
 56.7093 -29.5111 9.56314 14.0935 13.2036 68.1968 c 0
 16.6905 120.019 65.1385 167.266 133.17 162.54 c 0
 276.623 152.578 424.312 147.11 563.979 160.879 c 0
 687.839 173.091 724.873 -28.4766 570.151 -25 c 0
556.866 817.406 m 0
 378.997 821.402 267.748 819.02 120.581 814.995 c 0
 43.4344 813.243 -3.43988 856.522 0.198662 910.597 c 0
 3.68552 962.418 52.134 1009.67 120.165 1004.94 c 0
 263.617 994.978 411.309 989.505 550.975 1003.28 c 0
 674.965 1015.51 711.791 813.926 556.866 817.406 c 0
240.602 863.213 m 0
 237.818 933.132 279.813 971.418 328.979 967.773 c 0
 377.424 964.183 431.168 921.95 426.589 861.028 c 0
 416.149 722.133 424.424 258.215 437.501 117.352 c 0
 444.16 45.6187 392.582 -5.30741 337.819 -5.13243 c 0
 287.064 -4.97025 247.292 39.6325 247.6 113.888 c 0
 248.205 260.075 248.688 685.285 240.602 863.213 c 0
EndSplineSet
EndChar

StartChar: uni0272
Encoding: 626 626 344
Width: 1030
VWidth: 0
Flags: HW
HStem: -236 130<-51.0571 107.447>
VStem: 112.866 127.681<-95.5243 539.875 739.888 966.257> 806.863 129.603<16.4965 501.213>
LayerCount: 2
Fore
SplineSet
781.88 39.5279 m 0
 795.555 411.459 783.141 593.502 753.818 709.945 c 0
 716.342 858.764 525.202 871.807 402.193 724.835 c 0
 269.737 566.575 277.388 315.964 272.996 76.5414 c 0
 271.09 -27.3738 284.006 -156.166 171.054 -225.321 c 0
 100.128 -268.746 23.2336 -259.624 1.52775 -260.953 c 0
 -130.3 -269.022 -138.328 -72.2722 -8.31465 -81.0569 c 0
 109.86 -89.0416 94.8826 -33.5933 95.9833 76.1072 c 0
 98.5085 327.795 95.9877 725.874 87.883 945.208 c 0
 83.7657 1056.64 265.739 1046.44 263.996 943.576 c 0
 263.399 908.327 263.893 869.873 264.497 827.756 c 1
 388.782 1000.44 582.163 1055.99 761.537 982.107 c 0
 1004.19 882.14 968.374 436.023 961.452 51.6393 c 0
 959.715 -12.7218 907.72 -45.7628 861.819 -44.8527 c 0
 821.291 -44.049 779.892 -14.5471 781.88 39.5279 c 0
EndSplineSet
EndChar

StartChar: uni0275
Encoding: 629 629 345
Width: 1012
VWidth: 0
Flags: HW
HStem: -18 123.011<360.353 689.194> 474.229 121<126.728 858.164>
LayerCount: 2
Fore
SplineSet
868.166 456.241 m 0
 691.296 460.215 337.336 453.227 191.685 449.238 c 0
 118.706 447.24 67.1617 482.482 70.7346 535.2 c 0
 74.1242 585.215 125.285 624.718 190.733 620.169 c 0
 332.312 610.338 723.868 609.432 862.547 623.108 c 0
 924.833 629.251 972.702 578.869 971.969 529.263 c 0
 971.309 484.616 930.437 454.841 868.166 456.241 c 0
464.332 1012.9 m 0
 493.856 1015.58 520.199 1006.47 538.34 992.635 c 1
 824.668 960.915 1002.57 781.769 1011.89 493.02 c 0
 1021.24 203.775 848.931 -33.5179 555.401 -42.987 c 0
 271.586 -52.1427 24.6871 132.098 1.66077 448.184 c 0
 -20.8498 757.193 188.999 987.872 464.332 1012.9 c 0
432.43 830.997 m 1
 277.639 781.589 177.969 643.027 179.594 474.24 c 0
 181.497 276.297 363.32 102.789 576.075 132.62 c 0
 742.99 156.024 866.445 323.795 842.142 495.508 c 0
 813.398 698.598 723.239 823.913 432.43 830.997 c 1
EndSplineSet
EndChar

StartChar: uni0279
Encoding: 633 633 346
Width: 719
VWidth: 0
Flags: HW
HStem: 0 123<-3.38784 244.163>
VStem: 464.485 134.515<415.548 975.005>
LayerCount: 2
Fore
SplineSet
48.2382 147.969 m 0
 162.856 142.285 278.802 174.146 358.172 327.316 c 0
 448.3 501.248 441.757 647.097 439.487 837.37 c 0
 438.965 881.231 415.45 1002.93 524.173 1006.66 c 0
 598.303 1009.21 622.606 932.977 623.991 882.688 c 0
 632.231 583.432 627.451 401.877 665.805 64.5654 c 1
 676.95 -42.9105 520.616 -77.2132 496.75 33.1802 c 0
 488.716 70.3472 479.799 136.118 473.331 199.8 c 1
 370.825 10.6565 231.784 -20.8868 47.5569 -24.9938 c 0
 -89.4972 -28.0476 -82.3044 154.443 48.2382 147.969 c 0
EndSplineSet
EndChar

StartChar: uni027E
Encoding: 638 638 347
Width: 791
VWidth: 0
Flags: HW
HStem: -4 140<-3.68123 534.833> 11 122<296.349 669.446>
VStem: 140 127<130.464 749.194>
LayerCount: 2
Fore
SplineSet
625.724 -13.9822 m 0
 537.15 -14.9774 200.645 -24.9916 54.6844 -28.9906 c 0
 -22.7288 -31.1107 -69.8743 12.4942 -66.234 66.5974 c 0
 -62.7473 118.42 -14.2989 165.666 53.7319 160.94 c 0
 195.543 151.092 519.909 150.146 620.064 157.925 c 0
 679.673 162.556 726.565 115.259 727.832 66.1924 c 0
 729.015 20.367 690.539 -13.2546 625.724 -13.9822 c 0
115.046 467.445 m 0
 106.522 648.166 103.433 886.655 299.76 974.807 c 0
 457.92 1045.82 693.032 997.162 782.304 956.778 c 0
 915.363 896.586 825.215 728.416 695.093 791.505 c 0
 629.59 823.263 466.772 848.2 404.818 818.462 c 0
 308.9 772.42 289.822 592.51 291.995 479.481 c 0
 293.957 377.464 311.914 215.42 316.974 105.146 c 0
 322.324 -11.4549 146.81 -28.68 140.036 96.6506 c 0
 134.075 206.94 120.088 360.544 115.046 467.445 c 0
EndSplineSet
EndChar

StartChar: uni0280
Encoding: 640 640 348
Width: 878
VWidth: 0
Flags: HW
HStem: 832 111<60.8478 124.569>
VStem: 134.464 123.649<-7.89245 427.934 596.953 834.99>
LayerCount: 2
Fore
SplineSet
280.615 829.143 m 1
 279.69 774.357 278.589 701.181 280.387 623.891 c 1
 522.277 602.652 620.125 616.743 676.63 677.957 c 0
 690.26 692.722 693.419 738.499 679.213 763.739 c 0
 642.037 829.792 466.67 857.211 280.615 829.143 c 1
100.269 805.13 m 1
 51.9056 802.94 23.3271 839.947 16.4115 874.642 c 0
 9.40028 909.816 22.844 958.12 71.2295 967.54 c 0
 86.48 970.506 104.804 973.987 119.092 976.611 c 1
 148.732 1012.57 192.821 1009.5 224.937 994.014 c 1
 445.952 1025.1 710.664 1015.75 817.244 868.669 c 0
 871.55 793.728 895.55 669.423 832.826 587.77 c 0
 761.144 494.457 632.019 447.784 434.493 452.747 c 1
 555.826 339.571 740.077 177.756 838.656 89.6395 c 0
 872.805 59.1174 860.077 11.5303 834.194 -14.7213 c 0
 796.07 -53.3881 724.677 -59.0341 657.322 8.32233 c 0
 598.16 67.4857 413.093 236.612 285.033 364.843 c 1
 290.784 177.044 292.675 137.426 296.404 83.7323 c 0
 301.346 12.5974 250.527 -37.2409 196.549 -36.4225 c 0
 145.724 -35.6519 107.437 10.3129 109.473 84.6846 c 0
 112.947 211.49 106.84 525.776 100.269 805.13 c 1
EndSplineSet
EndChar

StartChar: uni0281
Encoding: 641 641 349
Width: 878
VWidth: 0
Flags: HW
VStem: 96 136<539.946 936.414> 121 116<123.454 365.662 534 566.625>
LayerCount: 2
Fore
SplineSet
276.552 134.463 m 1
 465.593 114.806 638.629 149.897 672.663 217.228 c 1
 685.404 242.71 679.761 288.884 665.385 303.26 c 1
 606.187 361.636 506.165 370.985 267.311 339.211 c 1
 268.764 259.723 273.065 187.451 276.552 134.463 c 1
95.3781 150.307 m 1
 89.3682 433.293 80.6387 766.862 71.0655 894.191 c 1
 70.6313 900.399 70.4632 906.126 70.5329 911.822 c 0
 71.3578 979.221 110.397 1019.99 158.67 1019.25 c 0
 210.533 1018.45 258.876 971.164 256.994 903.44 c 1
 256.124 852.046 257.686 785.44 260.92 597.866 c 1
 378.508 725.732 552.206 892.414 607.531 952.849 c 1
 610.568 956.187 613.706 959.459 616.798 962.513 c 0
 680.451 1025.4 749.612 1018.3 786.336 980.823 c 0
 811.021 955.632 823.832 910.749 792.493 880.139 c 1
 698.582 787.972 526.961 629.335 414.682 516.589 c 1
 612.357 530.657 742.254 489.946 818.141 400.081 c 1
 884.389 320.82 865.941 195.384 814.858 118.218 c 1
 714.524 -33.9448 449.454 -54.1381 228.739 -32.6981 c 1
 195.137 -50.71 152.271 -53.3554 122.318 -20.292 c 1
 106.533 -18.1152 90.2883 -16.25 74.2825 -13.7227 c 1
 33.1705 -7.84961 14.6745 29.0257 14.1778 60.5262 c 0
 13.5433 100.77 40.4729 149.598 95.3781 150.307 c 1
EndSplineSet
EndChar

StartChar: uni0283
Encoding: 643 643 350
Width: 675
VWidth: 0
Flags: HW
HStem: -504 120<-97.9006 155.192> 1333 114<426.142 672.717>
VStem: 189 123<563.46 1204.43> 232 122.271<-304.673 483.601>
LayerCount: 2
Fore
SplineSet
-35.5601 -359.042 m 0
 -18.1573 -360.045 -1.99947 -360.233 12.9758 -359.683 c 0
 243.489 -351.207 214.568 -168.378 207.018 32.0589 c 0
 196.024 323.91 180.758 658.835 164.03 1001.78 c 0
 162.711 1028.82 163.23 1058.07 166.162 1088.39 c 0
 184.014 1273.03 296.926 1504.49 630.885 1471.88 c 0
 696.108 1465.51 732.551 1419.81 724.781 1372.95 c 0
 717.913 1331.52 677.437 1299.12 624.433 1308.37 c 0
 599.169 1312.78 576.234 1314.12 555.413 1313 c 0
 381.669 1303.7 331.599 1114.37 336.96 1019.41 c 0
 354.714 704.943 364.983 360.868 379.244 53.1573 c 0
 381.945 -5.11017 387.153 -75.0515 383.961 -146.13 c 0
 375.251 -340.097 296.544 -545.006 -56.1352 -528.974 c 0
 -116.686 -526.222 -155.535 -489.057 -153.043 -443.377 c 0
 -150.367 -394.328 -102.341 -355.189 -35.5601 -359.042 c 0
EndSplineSet
EndChar

StartChar: uni028A
Encoding: 650 650 351
Width: 1091
VWidth: 0
Flags: HW
HStem: 854 118<51.0775 300.508 764.508 1026.18>
LayerCount: 2
Fore
SplineSet
432.273 807.941 m 0
 276.546 724.888 231.668 500.674 253.757 387.951 c 0
 285.142 227.798 391.077 100.37 631.495 157.079 c 0
 801.933 197.281 869.575 367.199 814.186 600.218 c 0
 790.379 700.371 689.614 796.858 624.104 834.294 c 0
 603.507 846.065 596.094 870.495 593.624 893.969 c 0
 589.26 935.431 611.689 989.352 685.99 996.873 c 0
 787.259 1007.12 937.601 998.978 993.4 996.984 c 0
 1050.12 994.958 1088.27 965.61 1091.3 923.76 c 0
 1094.74 876.439 1053.38 833.141 996.29 829.064 c 0
 970.411 827.214 914.665 827.787 858.188 827.818 c 1
 922.146 774.295 977.782 700.045 999.655 596.556 c 0
 1039.69 407.127 1007.05 54.6665 664.661 -17.4631 c 0
 383.317 -76.7331 120.717 69.5703 77.7525 374.512 c 0
 58.1688 513.508 99.7325 706.607 222.918 825.564 c 1
 173.868 823.797 133.387 823 96.5075 823 c 0
 -30.3412 823 -31.7848 997 100.508 997 c 2
 394.508 997 l 2
 427.189 997 452.248 981.335 464.842 957.931 c 0
 491.464 908.455 471.17 828.686 432.273 807.941 c 0
EndSplineSet
EndChar

StartChar: uni028C
Encoding: 652 652 352
Width: 870
VWidth: 0
Flags: HW
LayerCount: 2
Fore
SplineSet
899.16 81.2714 m 0
 943.411 -29.5413 774.892 -102.714 730.542 15.1993 c 0
 609.479 337.066 515.021 493.248 392.273 737.277 c 1
 282.474 464.221 238.087 310.857 139.63 19.0083 c 0
 121.04 -36.0938 71.2526 -48.9871 32.4446 -36.3286 c 0
 -6.7208 -23.5534 -50.097 18.5561 -32.6979 69.1325 c 0
 82.3899 403.678 141.755 595.784 288.867 948.62 c 0
 301.684 979.364 321.593 1001.45 345.657 1013.14 c 0
 400.492 1039.77 462.766 1008.92 489.437 953.907 c 0
 652.657 617.26 754.854 442.648 899.16 81.2714 c 0
EndSplineSet
EndChar

StartChar: uni0289
Encoding: 649 649 353
Width: 1024
VWidth: 0
Flags: HW
HStem: 481.229 117<1.72717 1027.73>
VStem: 90 136<441.594 963.142> 114 124<188.791 750.479> 785 132<604.458 971.077>
LayerCount: 2
Fore
SplineSet
986.167 456.241 m 0
 809.094 460.22 211.569 460.206 66.6842 456.238 c 0
 -6.2949 454.24 -57.839 489.482 -54.2664 542.2 c 0
 -50.8769 592.215 0.283683 631.718 65.7319 627.169 c 0
 206.97 617.361 842.954 609.539 980.547 623.108 c 0
 1042.83 629.252 1090.71 578.869 1089.97 529.262 c 0
 1089.31 484.615 1048.44 454.841 986.167 456.241 c 0
65.049 915.436 m 0
 60.6475 985.858 102.569 1025.25 151.993 1022.36 c 0
 200.376 1019.53 254.663 978.315 250.957 917.535 c 0
 247.133 849.644 253.059 504.859 262.952 349.551 c 0
 263.762 336.367 264.944 323.972 266.486 312.233 c 0
 284.833 172.572 347.659 132.843 444.729 145.785 c 0
 649.031 172.432 757.979 493.118 760 923.156 c 0
 760.538 992.022 800.005 1030.58 847.739 1027.97 c 0
 896.138 1025.32 945.578 981.928 941.957 922.539 c 0
 934.173 784.43 956.186 225.721 971.847 85.7608 c 0
 979.715 14.9311 931.166 -37.9422 876.638 -38.7968 c 0
 826.221 -39.587 787.033 4.9163 786.003 78.6418 c 0
 785.34 120.401 784.634 177.686 783.101 252.637 c 1
 689.442 36.2878 577.204 -22.1077 440.162 -33.9063 c 0
 171.036 -57.495 102.434 123.566 89.0791 291.012 c 0
 76.769 445.354 70.9582 821.878 65.049 915.436 c 0
EndSplineSet
EndChar

StartChar: alpha
Encoding: 945 945 354
Width: 975
VWidth: 0
Flags: HW
LayerCount: 2
Fore
SplineSet
772.109 172.014 m 1
 695.322 57.1787 598.671 -4.47857 498.906 -26.8972 c 0
 282.429 -75.5424 56.8206 62.725 16.0948 244.535 c 0
 -57.7635 574.256 128.844 901.515 456.647 980.308 c 0
 672.028 1032.08 768.794 963.421 811.668 857.369 c 0
 818.166 841.294 817.344 822.895 813.567 810.236 c 1
 827.736 796.906 836.02 777.811 837.355 755.494 c 0
 857.374 421.06 873.765 328.09 993.094 152.027 c 0
 1029.77 97.9188 1021.46 -13.8029 963.751 -27.6807 c 0
 951.064 -30.7316 937.924 -28.0352 926.703 -22.0947 c 0
 858.729 13.8917 820.586 76.4476 772.109 172.014 c 1
670.39 757.149 m 1
 622.177 791.878 657.364 826.87 521.589 820.407 c 0
 493.056 819.049 462.788 810.827 432.391 796.483 c 0
 262.355 716.244 110.747 457.097 204.995 258.079 c 0
 225.067 215.693 256.764 182.726 295.055 161.533 c 0
 399.769 103.577 559.022 131.144 664.396 322.784 c 0
 697.99 384.952 692.769 566.469 669.664 724.38 c 0
 668.007 735.704 668.644 748.231 670.39 757.149 c 1
EndSplineSet
EndChar

StartChar: theta
Encoding: 952 952 355
Width: 1023
VWidth: 0
Flags: HW
HStem: 0 131.534<381.053 672.924> 722.441 140<96.9339 634.775> 737.843 136<564.698 939.238>
VStem: 876.61 121.87<386.96 1046.42>
LayerCount: 2
Fore
SplineSet
895.048 712.849 m 0
 718.351 716.819 302.065 701.483 154.78 697.436 c 0
 77.6248 695.684 30.7419 738.953 34.3811 793.038 c 0
 37.8681 844.862 86.3158 892.105 154.347 887.381 c 0
 295.197 877.6 750.206 885.019 889.157 898.722 c 0
 1013.15 910.943 1049.97 709.369 895.048 712.849 c 0
385.279 1441.35 m 1
 396.427 1462.23 420.19 1476.51 448.215 1476.6 c 0
 896.839 1478.08 1025.61 1141.37 1023.48 681.099 c 0
 1020.98 141.503 754.125 -25 534.61 -25 c 0
 302.615 -25 50.578 174.118 5.47113 622.729 c 0
 -24.5052 920.859 64.917 1328.46 346.91 1432.18 c 0
 359.96 1436.98 372.981 1440.02 385.279 1441.35 c 1
464.152 1306.8 m 1
 452.284 1294.17 436.556 1283.21 417.012 1274.27 c 0
 222.811 1185.42 153.472 843.621 171.48 667.544 c 0
 207.021 320.044 366.315 156.949 526.287 156.534 c 0
 684.224 156.124 847.304 288.501 851.612 676.279 c 0
 855.551 1028.95 782.418 1275.26 464.152 1306.8 c 1
EndSplineSet
EndChar

StartChar: quoteleft
Encoding: 8216 8216 356
Width: 227
VWidth: 0
Flags: HW
VStem: 25.3926 136<1082.03 1406.93>
LayerCount: 2
Fore
SplineSet
0.394065 1392.64 m 0
 6.04294 1509.01 182.327 1473.78 186.372 1374.01 c 0
 189.336 1300.92 199.317 1131.2 222.141 1061.81 c 0
 259.853 947.163 103.728 894.618 63.8304 1009.63 c 0
 38.8586 1083.87 -4.95243 1282.5 0.394065 1392.64 c 0
EndSplineSet
EndChar

StartChar: quoteright
Encoding: 8217 8217 357
Width: 227
VWidth: 0
Flags: HW
VStem: 25.3926 136<1082.03 1406.93>
LayerCount: 2
Fore
SplineSet
0.394065 1392.64 m 0
 6.04294 1509.01 182.327 1473.78 186.372 1374.01 c 0
 189.336 1300.92 199.317 1131.2 222.141 1061.81 c 0
 259.853 947.163 103.728 894.618 63.8304 1009.63 c 0
 38.8586 1083.87 -4.95243 1282.5 0.394065 1392.64 c 0
EndSplineSet
EndChar

StartChar: quotedblleft
Encoding: 8220 8220 358
Width: 480
VWidth: 0
Flags: HW
VStem: 25.3926 136<1082.03 1406.93> 287.393 136<1082.03 1406.93>
LayerCount: 2
Fore
SplineSet
262.422 1393.21 m 0
 268.05 1509.12 444.342 1473.44 448.372 1374.01 c 0
 451.335 1300.92 461.317 1131.2 484.141 1061.81 c 0
 521.808 947.299 364.979 893.895 325.711 1009.99 c 0
 301.456 1081.7 257.087 1283.31 262.422 1393.21 c 0
0.394065 1392.64 m 0
 6.04294 1509.01 182.327 1473.78 186.372 1374.01 c 0
 189.336 1300.92 199.317 1131.2 222.141 1061.81 c 0
 259.853 947.163 103.728 894.618 63.8304 1009.63 c 0
 38.8586 1083.87 -4.95243 1282.5 0.394065 1392.64 c 0
EndSplineSet
EndChar

StartChar: quotedblright
Encoding: 8221 8221 359
Width: 480
VWidth: 0
Flags: HW
VStem: 25.3926 136<1082.03 1406.93> 287.393 136<1082.03 1406.93>
LayerCount: 2
Fore
SplineSet
262.422 1393.21 m 0
 268.05 1509.12 444.342 1473.44 448.372 1374.01 c 0
 451.335 1300.92 461.317 1131.2 484.141 1061.81 c 0
 521.808 947.299 364.979 893.895 325.711 1009.99 c 0
 301.456 1081.7 257.087 1283.31 262.422 1393.21 c 0
0.394065 1392.64 m 0
 6.04294 1509.01 182.327 1473.78 186.372 1374.01 c 0
 189.336 1300.92 199.317 1131.2 222.141 1061.81 c 0
 259.853 947.163 103.728 894.618 63.8304 1009.63 c 0
 38.8586 1083.87 -4.95243 1282.5 0.394065 1392.64 c 0
EndSplineSet
EndChar

StartChar: dagger
Encoding: 8224 8224 360
Width: 865
VWidth: 0
Flags: HW
HStem: 855 112<8.72717 372.752> 888 94<487.433 855.488>
VStem: 370.91 105.051<989.651 1409.9> 396.393 109.012<11.3889 508.623>
LayerCount: 2
Fore
SplineSet
802.281 863.002 m 0
 714.936 862.021 220.31 834.029 73.6844 830.009 c 0
 3.02911 828.072 -50.5723 859.163 -47.3021 911.121 c 0
 -44.1906 960.557 8.51888 996.399 72.7319 991.94 c 0
 213 982.199 697.191 999.089 798.064 1006.92 c 0
 852.262 1011.14 905.108 978.024 905.851 930.493 c 0
 906.54 886.362 861.61 863.668 802.281 863.002 c 0
345.931 1360.17 m 0
 343.347 1422.65 372.029 1468.68 419.607 1465.06 c 0
 465.477 1461.56 505.369 1414.18 500.882 1357.79 c 0
 489.934 1220.19 517.921 220.38 530.353 78.784 c 0
 535.782 13.5985 499.756 -42.8821 447.742 -42.7531 c 0
 399.164 -42.6327 371.064 7.30388 371.389 76.073 c 0
 372.609 224.08 353.263 1182.89 345.931 1360.17 c 0
EndSplineSet
EndChar

StartChar: guilsinglleft
Encoding: 8249 8249 361
Width: 420
VWidth: 0
Flags: HW
LayerCount: 2
Fore
SplineSet
276.097 125.154 m 0
 217.06 197.199 118.027 319.227 61.0004 386.072 c 0
 -12.7635 472.537 -20.6109 506.542 64.5711 612.007 c 0
 132.896 696.601 203.241 785.03 295.709 889.564 c 0
 321.118 918.289 358.184 913.286 381.599 895.086 c 0
 419.745 865.436 440.398 796.784 395.035 739.482 c 0
 341.556 671.928 270.407 582.078 204.153 500.233 c 1
 260.745 429.777 336.86 334.266 387.136 277.59 c 0
 435.509 223.059 416.412 146.244 376.142 112.946 c 0
 348.066 89.731 305.614 89.1335 276.097 125.154 c 0
EndSplineSet
EndChar

StartChar: guilsinglright
Encoding: 8250 8250 362
Width: 420
VWidth: 0
Flags: HW
LayerCount: 2
Fore
SplineSet
144.74 125.154 m 0
 114.376 88.1002 70.8014 90.0696 42.8395 114.524 c 0
 4.02584 148.469 -14.005 223.812 33.7014 277.59 c 0
 83.7398 333.998 161.407 431.415 216.684 500.233 c 1
 149.096 583.726 79.5319 671.612 25.8022 739.482 c 0
 -17.7803 794.535 -0.251976 860.076 34.642 891.253 c 0
 57.9818 912.106 97.6298 920.65 125.128 889.564 c 0
 217.597 785.031 287.941 696.6 356.265 612.006 c 0
 441.446 506.541 433.599 472.538 359.835 386.072 c 0
 302.81 319.228 203.776 197.199 144.74 125.154 c 0
EndSplineSet
EndChar

StartChar: perthousand
Encoding: 8240 8240 363
Width: 1656
VWidth: 0
Flags: HW
LayerCount: 2
Fore
SplineSet
1318.6 329.457 m 0
 1254.11 279.623 1269.5 160.531 1356.62 149.637 c 0
 1411.56 142.768 1466.02 177.407 1474.19 244.039 c 0
 1483.85 322.933 1373.5 371.881 1318.6 329.457 c 0
1124.5 331.986 m 0
 1133.76 377.482 1157.15 414.769 1188.47 442.576 c 0
 1292.52 534.949 1485.82 529.953 1579.74 423.543 c 0
 1719.5 265.197 1594.33 -71.1836 1325.75 -16.8799 c 0
 1189.62 10.6416 1085.64 141.075 1124.5 331.986 c 0
772.114 329.218 m 0
 707.677 279.424 723.737 160.481 810.45 149.637 c 0
 865.384 142.767 919.854 177.408 928.015 244.039 c 0
 937.685 323.022 827.133 371.734 772.114 329.218 c 0
578.33 331.986 m 0
 587.591 377.482 610.975 414.769 642.297 442.576 c 0
 746.347 534.949 939.651 529.953 1033.57 423.543 c 0
 1173.33 265.198 1048.16 -71.1869 779.576 -16.8802 c 0
 643.452 10.6433 539.47 141.073 578.33 331.986 c 0
202.114 1186.56 m 0
 137.675 1136.76 153.739 1017.82 240.449 1006.98 c 0
 295.384 1000.11 349.856 1034.75 358.013 1101.38 c 0
 367.686 1180.36 257.133 1229.07 202.114 1186.56 c 0
8.33041 1189.33 m 0
 17.5913 1234.82 40.9756 1272.11 72.297 1299.92 c 0
 176.347 1392.29 369.655 1387.29 463.571 1280.88 c 0
 603.328 1122.54 478.166 786.156 209.575 840.463 c 0
 73.4516 867.986 -30.53 998.416 8.33041 1189.33 c 0
844.484 1309.04 m 0
 877.621 1362.84 939.345 1383.05 983.403 1348.31 c 0
 1019.57 1319.8 1038.49 1260.47 1002.12 1214.81 c 0
 916.365 1107.18 296.783 138.012 228.706 14.9027 c 0
 196.321 -43.6669 124.747 -62.7198 77.3791 -30.2504 c 0
 35.5144 -1.55357 27.7371 57.6973 69.7795 118.908 c 0
 151.758 238.261 751.788 1158.54 844.484 1309.04 c 0
EndSplineSet
EndChar

StartChar: uni2031
Encoding: 8241 8241 364
Width: 2204
VWidth: 0
Flags: HW
LayerCount: 2
Fore
SplineSet
1889.6 327.457 m 0
 1825.11 277.623 1840.5 158.531 1927.62 147.637 c 0
 1982.56 140.768 2037.02 175.407 2045.19 242.039 c 0
 2054.85 320.933 1944.5 369.881 1889.6 327.457 c 0
1695.5 329.986 m 0
 1704.76 375.482 1728.15 412.769 1759.47 440.576 c 0
 1863.53 532.955 2056.81 527.944 2150.74 421.543 c 0
 2290.48 263.194 2165.35 -73.1865 1896.75 -18.8799 c 0
 1760.62 8.6416 1656.64 139.075 1695.5 329.986 c 0
1329.6 329.457 m 0
 1265.11 279.623 1280.5 160.531 1367.62 149.637 c 0
 1422.56 142.768 1477.02 177.407 1485.19 244.039 c 0
 1494.85 322.933 1384.5 371.881 1329.6 329.457 c 0
1135.5 331.986 m 0
 1144.76 377.482 1168.15 414.769 1199.47 442.576 c 0
 1303.52 534.949 1496.82 529.953 1590.74 423.543 c 0
 1730.5 265.197 1605.33 -71.1836 1336.75 -16.8799 c 0
 1200.62 10.6416 1096.64 141.075 1135.5 331.986 c 0
772.114 329.218 m 0
 707.677 279.424 723.737 160.481 810.45 149.637 c 0
 865.384 142.767 919.854 177.408 928.015 244.039 c 0
 937.685 323.022 827.133 371.734 772.114 329.218 c 0
578.33 331.986 m 0
 587.591 377.482 610.975 414.769 642.297 442.576 c 0
 746.347 534.949 939.651 529.953 1033.57 423.543 c 0
 1173.33 265.198 1048.16 -71.1869 779.576 -16.8802 c 0
 643.452 10.6433 539.47 141.073 578.33 331.986 c 0
202.114 1186.56 m 0
 137.675 1136.76 153.739 1017.82 240.449 1006.98 c 0
 295.384 1000.11 349.856 1034.75 358.013 1101.38 c 0
 367.686 1180.36 257.133 1229.07 202.114 1186.56 c 0
8.33041 1189.33 m 0
 17.5913 1234.82 40.9756 1272.11 72.297 1299.92 c 0
 176.347 1392.29 369.655 1387.29 463.571 1280.88 c 0
 603.328 1122.54 478.166 786.156 209.575 840.463 c 0
 73.4516 867.986 -30.53 998.416 8.33041 1189.33 c 0
844.484 1309.04 m 0
 877.621 1362.84 939.345 1383.05 983.403 1348.31 c 0
 1019.57 1319.8 1038.49 1260.47 1002.12 1214.81 c 0
 916.365 1107.18 296.783 138.012 228.706 14.9027 c 0
 196.321 -43.6669 124.747 -62.7198 77.3791 -30.2504 c 0
 35.5144 -1.55357 27.7371 57.6973 69.7795 118.908 c 0
 151.758 238.261 751.788 1158.54 844.484 1309.04 c 0
EndSplineSet
EndChar

StartChar: minute
Encoding: 8242 8242 365
Width: 321
VWidth: 0
Flags: HW
VStem: 161.409 131<1356.82 1512.03>
LayerCount: 2
Fore
SplineSet
315.584 1453.62 m 0
 242.658 1273.82 208.733 1184 157.698 1053.91 c 0
 135.684 997.301 87.4289 969.964 45.4415 983.544 c 0
 7.85701 995.7 -9.2915 1036.37 6.02291 1082.92 c 0
 50.7199 1219.99 89.7494 1340.12 137.517 1494.36 c 0
 157.836 1560.4 221.771 1571.95 265.325 1554.61 c 0
 300.85 1540.46 334.817 1501.35 315.584 1453.62 c 0
EndSplineSet
EndChar

StartChar: radical
Encoding: 8730 8730 368
Width: 1156
VWidth: 0
Flags: HW
LayerCount: 2
Fore
SplineSet
55.8933 895.099 m 0
 49.3156 908.801 -12.5862 932.98 -23.7751 973.933 c 0
 -31.9335 1003.79 -1.51083 1016.76 13.335 1020.31 c 0
 111.797 1043.86 200.97 1009.59 222.839 965.009 c 0
 263.327 882.458 429.651 513.827 560.927 243.911 c 1
 685.693 592.728 915.702 1300.24 1014.46 1592.99 c 0
 1032.5 1646.46 1079.26 1661.37 1117.18 1648.46 c 0
 1155.73 1635.33 1194.75 1592.16 1177.79 1542.87 c 0
 1062.56 1207.93 787.82 399.971 656.957 30.6498 c 0
 645.603 -1.39451 626.714 -24.6323 602.599 -36.5471 c 0
 549.382 -62.8403 490.588 -28.8927 464.898 24.0932 c 0
 300.914 362.306 220.335 558.746 55.8933 895.099 c 0
EndSplineSet
EndChar

StartChar: uni221B
Encoding: 8731 8731 369
Width: 1156
VWidth: 0
Flags: HW
HStem: 927.498 75.1621<320.686 645.955>
LayerCount: 2
Fore
SplineSet
632.17 1501.94 m 0
 756.012 1447.89 746.539 1304.19 667.744 1239.11 c 1
 770.28 1173.44 795.584 993.287 657.992 917.844 c 0
 586.298 878.541 429.231 865.869 331.953 904.242 c 0
 292.07 919.974 278.881 959.688 289.207 990.26 c 0
 298.592 1018.05 329.404 1038.7 365.163 1026.28 c 0
 425.406 1005.35 502.542 993.878 577.963 1017.65 c 0
 615.769 1029.57 639.565 1057.68 628.853 1092.7 c 0
 608.322 1159.83 546.274 1174.77 467.493 1170.04 c 0
 419.596 1167.18 392.148 1204.05 395.071 1238.44 c 0
 397.707 1269.44 425.633 1295.19 465.001 1291.27 c 0
 525.003 1285.28 582.421 1316.9 596.766 1339.83 c 0
 603.705 1350.92 598.495 1380.83 577.214 1393.66 c 0
 547.103 1411.81 468.002 1407.56 386.076 1369.4 c 0
 353.001 1353.99 316.859 1363.17 301.31 1391.02 c 0
 284.197 1421.68 300.058 1459.29 336.897 1479.8 c 0
 435.893 1534.94 561.566 1532.75 632.17 1501.94 c 0
55.8933 895.099 m 0
 49.3156 908.801 -12.5862 932.98 -23.7751 973.933 c 0
 -31.9335 1003.79 -1.51083 1016.76 13.335 1020.31 c 0
 111.797 1043.86 200.97 1009.59 222.839 965.009 c 0
 263.327 882.458 429.651 513.827 560.927 243.911 c 1
 685.693 592.728 915.702 1300.24 1014.46 1592.99 c 0
 1032.5 1646.46 1079.26 1661.37 1117.18 1648.46 c 0
 1155.73 1635.33 1194.75 1592.16 1177.79 1542.87 c 0
 1062.56 1207.93 787.82 399.971 656.957 30.6498 c 0
 645.603 -1.39451 626.714 -24.6323 602.599 -36.5471 c 0
 549.382 -62.8403 490.588 -28.8927 464.898 24.0932 c 0
 300.914 362.306 220.335 558.746 55.8933 895.099 c 0
EndSplineSet
EndChar

StartChar: angle
Encoding: 8736 8736 370
Width: 954
VWidth: 0
Flags: HW
HStem: -1 125<170.004 889.417>
LayerCount: 2
Fore
SplineSet
853.049 -23.9781 m 0
 612.318 -34.0506 351.05 -24.0343 122.72 -26.0033 c 0
 24.0245 -25.8678 -42.7768 111.796 31.312 195.602 c 0
 197.788 382.256 614.517 781.883 807.973 983.318 c 0
 877.725 1055.95 1011.39 947.431 925.437 864.081 c 0
 754.078 697.362 391.493 334.889 223.957 147.594 c 1
 409.03 142.75 637.756 137.484 848.292 151.941 c 0
 972.203 160.449 973.524 -18.9373 853.049 -23.9781 c 0
EndSplineSet
EndChar

StartChar: uni2221
Encoding: 8737 8737 371
Width: 954
VWidth: 0
Flags: HW
HStem: -1 125<170.004 889.417>
LayerCount: 2
Fore
SplineSet
220.283 405.099 m 0
 183.844 429.014 170.909 470.056 187.51 502.861 c 0
 207.22 541.813 258.545 553.03 311.299 526.301 c 0
 545.221 407.78 597.67 248.049 615.92 19.9935 c 0
 620.324 -35.0694 586.344 -80.4453 542.298 -83.6142 c 0
 502.396 -86.4851 473.444 -51.8145 470.057 -1.68535 c 0
 455.403 215.198 417.721 275.523 220.283 405.099 c 0
853.049 -23.9781 m 0
 612.318 -34.0506 351.05 -24.0343 122.72 -26.0033 c 0
 24.0245 -25.8678 -42.7768 111.796 31.312 195.602 c 0
 197.788 382.256 614.517 781.883 807.973 983.318 c 0
 877.725 1055.95 1011.39 947.431 925.437 864.081 c 0
 754.078 697.362 391.493 334.889 223.957 147.594 c 1
 409.03 142.75 637.756 137.484 848.292 151.941 c 0
 972.203 160.449 973.524 -18.9373 853.049 -23.9781 c 0
EndSplineSet
EndChar

StartChar: uni2226
Encoding: 8742 8742 373
Width: 840
VWidth: 0
Flags: HW
VStem: 140.074 140.001<-236.681 1535.72> 560.074 140.001<-236.681 1535.72>
LayerCount: 2
Fore
SplineSet
868.492 823.022 m 0
 705.026 752.323 190.681 528.385 59.8822 463.959 c 0
 8.1291 438.675 -60.6423 432.311 -80.5432 483.394 c 0
 -98.4441 529.344 -62.3453 582.067 -2.87462 604.542 c 0
 130.183 654.828 683.447 888.062 802.384 957.583 c 0
 848.781 984.703 915.058 973.697 935.422 927.293 c 0
 953.101 887.007 923.562 846.84 868.492 823.022 c 0
EndSplineSet
Refer: 372 8741 N 1 0 0 1 0 0 3
EndChar

StartChar: logicaland
Encoding: 8743 8743 374
Width: 870
VWidth: 0
Flags: HW
LayerCount: 2
Fore
SplineSet
899.16 81.2714 m 0
 943.411 -29.5413 774.892 -102.714 730.542 15.1993 c 0
 609.479 337.066 515.021 493.248 392.273 737.277 c 1
 282.474 464.221 238.087 310.857 139.63 19.0083 c 0
 121.04 -36.0938 71.2526 -48.9871 32.4446 -36.3286 c 0
 -6.7208 -23.5534 -50.097 18.5561 -32.6979 69.1325 c 0
 82.3899 403.678 141.755 595.784 288.867 948.62 c 0
 301.684 979.364 321.593 1001.45 345.657 1013.14 c 0
 400.492 1039.77 462.766 1008.92 489.437 953.907 c 0
 652.657 617.26 754.854 442.648 899.16 81.2714 c 0
EndSplineSet
EndChar

StartChar: logicalor
Encoding: 8744 8744 375
Width: 870
VWidth: 0
Flags: HW
LayerCount: 2
Fore
SplineSet
-27.9751 896.729 m 0
 -72.225 1007.54 96.2952 1080.71 140.643 962.801 c 0
 261.702 640.934 356.161 484.749 478.912 240.723 c 1
 588.711 513.78 633.1 667.142 731.555 958.992 c 0
 750.301 1014.55 800.656 1027.11 839.573 1014.05 c 0
 878.388 1001.03 921.17 959.115 903.883 908.868 c 0
 788.791 574.323 729.428 382.219 582.318 29.3797 c 0
 569.5 -1.36326 549.592 -23.4451 525.528 -35.134 c 0
 470.695 -61.7685 408.419 -30.9165 381.748 24.0932 c 0
 218.524 360.738 116.329 535.352 -27.9751 896.729 c 0
EndSplineSet
EndChar

StartChar: therefore
Encoding: 8756 8756 376
Width: 1000
VWidth: 0
Flags: HW
LayerCount: 2
Fore
SplineSet
819.063 -23.0659 m 0
 741.276 -10.1931 683.115 95.7936 744.43 160.35 c 0
 780.951 198.801 852.916 215.798 897.81 173.093 c 0
 948.564 124.701 945.261 7.88222 862.527 -19.6961 c 0
 848.142 -24.5767 833.07 -25.3838 819.063 -23.0659 c 0
498.063 774.934 m 0
 420.275 787.807 362.115 893.794 423.43 958.35 c 0
 459.951 996.801 531.916 1013.8 576.81 971.093 c 0
 627.567 922.699 624.266 805.883 541.519 778.301 c 0
 527.151 773.427 512.066 772.617 498.063 774.934 c 0
169.143 -31.0659 m 0
 91.3554 -18.1932 33.1944 87.7945 94.5094 152.35 c 0
 131.031 190.801 202.995 207.797 247.89 165.093 c 0
 298.644 116.7 295.341 -0.118032 212.607 -27.6961 c 0
 198.222 -32.5766 183.15 -33.3838 169.143 -31.0659 c 0
EndSplineSet
EndChar

StartChar: uni2235
Encoding: 8757 8757 377
Width: 1000
VWidth: 0
Flags: HW
LayerCount: 2
Fore
SplineSet
819.063 785.934 m 0
 741.274 798.808 683.117 904.792 744.43 969.35 c 0
 780.95 1007.8 852.917 1024.8 897.81 982.093 c 0
 948.567 933.699 945.266 816.883 862.519 789.301 c 0
 848.151 784.427 833.066 783.617 819.063 785.934 c 0
501.063 -27.0659 m 0
 423.277 -14.1932 365.113 91.7947 426.43 156.35 c 0
 462.951 194.801 534.915 211.798 579.81 169.093 c 0
 630.564 120.701 627.261 3.88229 544.526 -23.6962 c 0
 530.143 -28.5765 515.07 -29.3838 501.063 -27.0659 c 0
169.143 777.934 m 0
 91.3542 790.807 33.196 896.793 94.5094 961.35 c 0
 131.03 999.802 202.996 1016.8 247.89 974.093 c 0
 298.647 925.699 295.346 808.883 212.599 781.301 c 0
 198.231 776.427 183.146 775.617 169.143 777.934 c 0
EndSplineSet
EndChar

StartChar: uni2236
Encoding: 8758 8758 378
Width: 338
VWidth: 0
Flags: HW
LayerCount: 2
Fore
SplineSet
155.545 783.934 m 0
 77.756 796.807 19.5979 902.793 80.9115 967.35 c 0
 117.433 1005.8 189.398 1022.8 234.292 980.093 c 0
 285.049 931.699 281.748 814.883 199.001 787.301 c 0
 184.633 782.427 169.548 781.617 155.545 783.934 c 0
171.585 -31.0659 m 0
 93.7977 -18.1932 35.6365 87.7945 96.9515 152.35 c 0
 133.473 190.801 205.437 207.797 250.332 165.093 c 0
 301.086 116.7 297.783 -0.118087 215.049 -27.696 c 0
 200.664 -32.5767 185.592 -33.3838 171.585 -31.0659 c 0
EndSplineSet
EndChar

StartChar: uni2237
Encoding: 8759 8759 379
Width: 700
VWidth: 0
Flags: HW
LayerCount: 2
Fore
SplineSet
516.582 783.934 m 0
 438.794 796.807 380.634 902.794 441.949 967.35 c 0
 478.47 1005.8 550.435 1022.8 595.329 980.093 c 0
 646.086 931.699 642.785 814.883 560.038 787.301 c 0
 545.67 782.427 530.585 781.617 516.582 783.934 c 0
532.622 -31.0659 m 0
 454.836 -18.1932 396.672 87.7947 457.989 152.35 c 0
 494.51 190.801 566.474 207.798 611.369 165.093 c 0
 662.123 116.701 658.82 -0.117779 576.086 -27.6961 c 0
 561.701 -32.5767 546.629 -33.3839 532.622 -31.0659 c 0
155.582 783.934 m 0
 77.793 796.807 19.6351 902.793 80.9486 967.35 c 0
 117.47 1005.8 189.435 1022.8 234.329 980.093 c 0
 285.086 931.699 281.785 814.883 199.038 787.301 c 0
 184.67 782.427 169.585 781.617 155.582 783.934 c 0
171.622 -31.0659 m 0
 93.8347 -18.1932 35.6735 87.7944 96.9886 152.35 c 0
 133.51 190.801 205.474 207.797 250.369 165.093 c 0
 301.123 116.7 297.82 -0.118032 215.086 -27.6961 c 0
 200.701 -32.5766 185.629 -33.3838 171.622 -31.0659 c 0
EndSplineSet
EndChar

StartChar: similar
Encoding: 8764 8764 380
Width: 1227
VWidth: 0
Flags: HW
LayerCount: 2
Fore
SplineSet
1171.49 492.335 m 0
 1001.33 350.721 807.969 362.403 613.174 446.027 c 0
 418.698 529.514 268.177 541.202 114.249 423.162 c 0
 79.0581 396.174 38.5574 402.478 17.211 431.9 c 0
 -13.1088 473.691 -5.93267 549.847 54.0451 592.955 c 0
 237.516 724.819 446.248 710.909 647.643 627.08 c 0
 817.711 556.292 938.381 537.608 1125.18 662.035 c 0
 1154.78 681.754 1189.85 685.45 1211.39 660.179 c 0
 1246.91 618.509 1224.63 536.57 1171.49 492.335 c 0
EndSplineSet
EndChar

StartChar: uni2243
Encoding: 8771 8771 381
Width: 1147
VWidth: 0
Flags: HW
HStem: 264 136<68.7513 1048.08>
LayerCount: 2
Fore
SplineSet
1075.73 613.463 m 0
 906.366 472.51 746.376 483.456 552.07 566.87 c 0
 355.93 651.072 281.549 663.64 124.61 543.595 c 0
 89.4485 517.112 49.856 523.41 28.5718 552.111 c 0
 -2.33767 593.792 4.7052 670.505 64.9417 713.798 c 0
 246.842 844.532 386.321 831.262 586.539 747.923 c 0
 757.362 676.82 841.381 657.85 1029.08 782.877 c 0
 1059.34 803.034 1094.28 805.667 1115.29 781.022 c 0
 1150.81 739.351 1128.77 657.608 1075.73 613.463 c 0
1012.87 239.006 m 0
 835.676 242.987 271.921 244.977 127.117 241.009 c 0
 49.7044 238.889 2.55825 282.494 6.19866 336.597 c 0
 9.68558 388.419 58.1337 435.666 126.165 430.94 c 0
 267.591 421.119 869.418 411.318 1006.98 424.879 c 0
 1130.97 437.101 1167.79 235.526 1012.87 239.006 c 0
EndSplineSet
EndChar

StartChar: uni2244
Encoding: 8772 8772 382
Width: 1147
VWidth: 0
Flags: HW
HStem: 264 136<68.7513 1048.08>
LayerCount: 2
Fore
SplineSet
730.062 903.661 m 0
 759.605 948.817 814.329 979.441 855.28 945.063 c 0
 890.22 915.731 897.586 855.24 861.113 811.885 c 0
 772.514 706.922 491.828 250.091 419.578 126.375 c 0
 389.285 74.6008 327.185 47.4351 283.374 78.865 c 0
 242.85 107.936 244.36 167.743 287.771 227.689 c 0
 372.587 344.063 633.029 754.61 730.062 903.661 c 0
EndSplineSet
Refer: 381 8771 N 1 0 0 1 0 0 2
EndChar

StartChar: congruent
Encoding: 8773 8773 383
Width: 1147
VWidth: 0
Flags: HW
HStem: 84 136<62.7513 1042.08> 409 136<68.7513 1048.08>
LayerCount: 2
Fore
SplineSet
1075.73 761.463 m 0
 906.366 620.51 746.376 631.456 552.07 714.87 c 0
 355.93 799.072 281.549 811.64 124.61 691.595 c 0
 89.4485 665.112 49.856 671.41 28.5718 700.111 c 0
 -2.33767 741.792 4.7052 818.505 64.9417 861.798 c 0
 246.842 992.532 386.321 979.262 586.539 895.923 c 0
 757.362 824.82 841.381 805.85 1029.08 930.877 c 0
 1059.34 951.034 1094.28 953.667 1115.29 929.022 c 0
 1150.81 887.351 1128.77 805.608 1075.73 761.463 c 0
1012.87 384.006 m 0
 835.675 387.987 271.921 389.975 127.117 386.009 c 0
 49.7044 383.889 2.55825 427.494 6.19866 481.597 c 0
 9.68568 533.421 58.1335 580.664 126.165 575.94 c 0
 267.59 566.119 869.419 556.313 1006.98 569.879 c 0
 1130.98 582.1 1167.79 380.526 1012.87 384.006 c 0
1006.87 59.0063 m 0
 829.676 62.9879 265.921 64.9764 121.117 61.0094 c 0
 43.7044 58.8891 -3.44175 102.494 0.198664 156.597 c 0
 3.68559 208.419 52.1337 255.666 120.165 250.94 c 0
 261.591 241.119 863.418 231.318 1000.98 244.879 c 0
 1124.98 257.101 1161.79 55.5251 1006.87 59.0063 c 0
EndSplineSet
EndChar

StartChar: uni2246
Encoding: 8774 8774 384
Width: 1147
VWidth: 0
Flags: HW
HStem: 84 136<62.7513 1042.08> 409 136<68.7513 1048.08>
LayerCount: 2
Fore
SplineSet
667.062 635.661 m 0
 696.605 680.817 751.329 711.441 792.28 677.063 c 0
 827.22 647.731 834.586 587.24 798.113 543.885 c 0
 709.198 438.547 525.208 129.741 452.578 5.37469 c 0
 422.285 -46.3992 360.185 -73.5649 316.374 -42.135 c 0
 275.85 -13.064 277.359 46.7409 320.772 106.691 c 0
 405.695 223.213 569.904 486.418 667.062 635.661 c 0
EndSplineSet
Refer: 383 8773 N 1 0 0 1 0 0 2
EndChar

StartChar: uni2247
Encoding: 8775 8775 385
Width: 1147
VWidth: 0
Flags: HW
HStem: 84 136<62.7513 1042.08> 409 136<68.7513 1048.08>
LayerCount: 2
Fore
SplineSet
775.062 968.661 m 0
 804.605 1013.82 859.329 1044.44 900.28 1010.06 c 0
 935.22 980.731 942.586 920.24 906.113 876.885 c 0
 818.262 772.807 446.975 143.341 374.578 19.3747 c 0
 344.285 -32.3995 282.185 -59.5645 238.374 -28.135 c 0
 197.85 0.935632 199.358 60.7384 242.775 120.695 c 0
 326.987 236.241 677.694 819.096 775.062 968.661 c 0
EndSplineSet
Refer: 383 8773 N 1 0 0 1 0 0 2
EndChar

StartChar: equivalence
Encoding: 8801 8801 387
Width: 1147
VWidth: 0
Flags: HW
HStem: 84 136<62.7513 1042.08> 409 136<68.7513 1048.08> 733 136<68.7513 1048.08>
LayerCount: 2
Fore
SplineSet
1012.87 708.006 m 0
 835.281 711.996 272.709 713.956 126.526 709.993 c 0
 49.4078 708.242 2.56222 751.553 6.19866 805.597 c 0
 9.68568 857.421 58.1335 904.664 126.165 899.94 c 0
 267.59 890.119 869.419 880.313 1006.98 893.879 c 0
 1130.98 906.1 1167.79 704.526 1012.87 708.006 c 0
1012.87 384.006 m 0
 835.675 387.987 271.921 389.975 127.117 386.009 c 0
 49.7044 383.889 2.55825 427.494 6.19866 481.597 c 0
 9.68568 533.421 58.1335 580.664 126.165 575.94 c 0
 267.59 566.119 869.419 556.313 1006.98 569.879 c 0
 1130.98 582.1 1167.79 380.526 1012.87 384.006 c 0
1006.87 59.0063 m 0
 829.676 62.9879 265.921 64.9764 121.117 61.0094 c 0
 43.7044 58.8891 -3.44175 102.494 0.198664 156.597 c 0
 3.68559 208.419 52.1337 255.666 120.165 250.94 c 0
 261.591 241.119 863.418 231.318 1000.98 244.879 c 0
 1124.98 257.101 1161.79 55.5251 1006.87 59.0063 c 0
EndSplineSet
EndChar

StartChar: notequal
Encoding: 8800 8800 388
Width: 1116
VWidth: 0
Flags: HW
HStem: 263 136<62.7513 1042.08> 617 136<68.7513 1048.08>
LayerCount: 2
Fore
SplineSet
730.062 895.661 m 0
 759.605 940.817 814.329 971.441 855.28 937.063 c 0
 890.22 907.731 897.586 847.24 861.113 803.885 c 0
 772.514 698.922 491.828 242.091 419.578 118.375 c 0
 389.285 66.6008 327.185 39.4351 283.374 70.865 c 0
 242.85 99.9358 244.36 159.743 287.771 219.689 c 0
 372.587 336.063 633.029 746.61 730.062 895.661 c 0
EndSplineSet
Refer: 75 61 N 1 0 0 1 0 0 2
EndChar

StartChar: lessequal
Encoding: 8804 8804 389
Width: 1147
VWidth: 0
Flags: HW
HStem: 127 136<80.7172 1060.05> 333 116.001<768.555 1068.59>
LayerCount: 2
Fore
SplineSet
1005.2 308.285 m 0
 793.911 340.481 336.191 432.462 96.063 480.486 c 0
 -4.92458 500.682 -16.7263 693.586 98.7528 723.216 c 0
 403.854 801.5 759.956 867.591 1007.87 940.972 c 0
 1102.38 968.95 1180.61 817.994 1064.15 783.054 c 0
 854.33 720.11 563.363 660.37 311.475 602.941 c 1
 527.714 560.618 844.106 502.05 1060.21 473.79 c 0
 1108.77 467.44 1134.25 431.69 1128.74 393.71 c 0
 1121.72 345.266 1070.35 298.358 1005.2 308.285 c 0
1024.84 102.006 m 0
 847.641 105.989 283.886 107.977 139.082 104.009 c 0
 61.6696 101.889 14.5238 145.494 18.1643 199.597 c 0
 21.6512 251.419 70.099 298.666 138.13 293.94 c 0
 279.556 284.119 881.384 274.317 1018.95 287.879 c 0
 1142.91 300.098 1179.79 98.5239 1024.84 102.006 c 0
EndSplineSet
EndChar

StartChar: greaterequal
Encoding: 8805 8805 390
Width: 1147
VWidth: 0
Flags: HW
HStem: 127 136<86.954 1066.28> 333 116.001<78.4144 378.445>
LayerCount: 2
Fore
SplineSet
141.8 308.285 m 0
 76.3396 298.311 24.7203 345.74 18.1459 394.498 c 0
 13.0513 432.281 38.6593 467.497 86.7927 473.79 c 0
 302.604 502.012 621.32 561.016 835.525 602.941 c 1
 581.582 660.838 293.036 719.997 82.8506 783.054 c 0
 -33.162 817.859 44.2043 969.068 139.13 940.972 c 0
 387.045 867.593 743.145 801.499 1048.24 723.216 c 0
 1093.99 711.477 1118.49 673.081 1126.35 634.699 c 0
 1138.27 576.521 1117.44 493.787 1050.93 480.486 c 0
 810.809 432.464 353.089 340.48 141.8 308.285 c 0
122.383 102.011 m 0
 52.384 100.439 14.412 143.167 19.0306 192.428 c 0
 23.5759 240.907 67.118 293.885 128.056 287.879 c 0
 265.615 274.318 867.445 284.12 1008.87 293.94 c 0
 1081.06 298.955 1130.45 246.013 1129.01 191.439 c 0
 1127.66 140.7 1082.15 101.977 1007.92 104.009 c 0
 863.115 107.977 299.577 105.994 122.383 102.011 c 0
EndSplineSet
EndChar

